<svg width="41" height="40" viewBox="0 0 41 40" fill="none" xmlns="http://www.w3.org/2000/svg">
<path opacity="0.1" d="M6.76878 20.605C6.659 20.4074 6.47619 20.2562 6.23735 20.2323C6.08062 20.2169 5.93801 20.1646 5.79102 20.123C6.06847 20.3551 6.40434 20.5087 6.76878 20.605Z" fill="#010101"/>
<path opacity="0.1" d="M9.62017 31.3104C9.46344 31.295 9.32082 31.2427 9.17383 31.2012C9.45128 31.4332 9.78715 31.5869 10.1516 31.6831C10.0418 31.4855 9.859 31.3343 9.62017 31.3104Z" fill="#010101"/>
<path opacity="0.1" d="M6.83336 10.6198C6.98155 10.7871 7.20343 10.8232 7.42184 10.8001C7.14193 10.5824 6.83178 10.4148 6.48828 10.3301C6.60676 10.4224 6.73226 10.5052 6.83336 10.6198Z" fill="#010101"/>
<path opacity="0.1" d="M8.46018 26.1441C8.3504 25.9464 8.1676 25.7953 7.92876 25.7714C7.77203 25.756 7.62941 25.7036 7.48242 25.6621C7.75988 25.8942 8.09574 26.0478 8.46018 26.1441Z" fill="#010101"/>
<path opacity="0.1" d="M4.5479 14.6913C4.39117 14.6759 4.24855 14.6235 4.10156 14.582C4.37902 14.8141 4.71488 14.9677 5.07932 15.064C4.96954 14.8664 4.78674 14.7152 4.5479 14.6913Z" fill="#010101"/>
<path opacity="0.1" d="M18.4154 7.08268C18.5636 7.24998 18.7855 7.2861 19.0039 7.26299C18.724 7.04531 18.4138 6.87772 18.0703 6.79297C18.1888 6.88529 18.3143 6.96812 18.4154 7.08268Z" fill="#010101"/>
<path opacity="0.1" d="M12.6244 8.85221C12.7726 9.01951 12.9944 9.05563 13.2129 9.03252C12.9329 8.81484 12.6228 8.64725 12.2793 8.5625C12.3978 8.65482 12.5233 8.73765 12.6244 8.85221Z" fill="#010101"/>
<path opacity="0.1" d="M24.2064 5.31706C24.3546 5.48435 24.5765 5.52048 24.7949 5.49736C24.515 5.27969 24.2048 5.11209 23.8613 5.02734C23.9798 5.11967 24.1053 5.2025 24.2064 5.31706Z" fill="#010101"/>
<path opacity="0.1" d="M33.1152 14.3788C33.4646 14.671 33.7342 15.0523 33.8709 15.5002C34.156 16.4346 33.8334 17.457 33.0483 18.1059C32.8252 18.2908 32.7329 18.5827 32.8146 18.8502C32.8962 19.1178 33.1358 19.3084 33.4241 19.3373C33.5659 19.3512 33.6941 19.4007 33.8281 19.4362C33.8053 19.3952 33.7641 19.3678 33.75 19.3218C33.6684 19.0543 33.7606 18.7624 33.9837 18.5775C34.7688 17.9286 35.0915 16.9062 34.8063 15.9718C34.5652 15.1819 33.9188 14.6057 33.1152 14.3788Z" fill="#010101"/>
<path opacity="0.1" d="M34.8047 19.9159C35.1541 20.2081 35.4236 20.5894 35.5603 21.0373C35.8455 21.9717 35.5228 22.9941 34.7377 23.643C34.5146 23.8279 34.4224 24.1198 34.504 24.3873C34.5857 24.6549 34.8252 24.8455 35.1135 24.8744C35.2554 24.8883 35.3836 24.9378 35.5176 24.9733C35.4948 24.9323 35.4535 24.9049 35.4395 24.8589C35.3578 24.5914 35.4501 24.2995 35.6732 24.1146C36.4583 23.4657 36.7809 22.4433 36.4958 21.5089C36.2547 20.719 35.6082 20.1428 34.8047 19.9159Z" fill="#010101"/>
<path opacity="0.1" d="M31.4238 8.83777C31.7732 9.13002 32.0427 9.51125 32.1795 9.95917C32.4646 10.8935 32.142 11.9159 31.3569 12.5648C31.1338 12.7498 31.0415 13.0417 31.1232 13.3092C31.2048 13.5767 31.4444 13.7674 31.7327 13.7962C31.8745 13.8102 32.0027 13.8597 32.1367 13.8951C32.1139 13.8542 32.0727 13.8268 32.0586 13.7808C31.977 13.5133 32.0692 13.2214 32.2923 13.0364C33.0774 12.3875 33.4001 11.3651 33.1149 10.4308C32.8738 9.6409 32.2274 9.06471 31.4238 8.83777Z" fill="#010101"/>
<path opacity="0.1" d="M36.4948 25.4553C36.8442 25.7476 37.1137 26.1288 37.2504 26.5767C37.6458 27.8724 36.8653 29.2632 35.5108 29.6766C35.0425 29.8195 34.5583 29.8208 34.1074 29.7095C34.755 30.2142 35.6205 30.4002 36.4462 30.1482C37.8008 29.7347 38.5813 28.344 38.1858 27.0483C37.9448 26.2584 37.2983 25.6822 36.4948 25.4553Z" fill="#010101"/>
<path opacity="0.1" d="M21.245 32.4838C20.8723 32.0629 20.0318 32.3194 19.9577 32.8767C19.8288 33.8565 19.1147 34.6815 18.1378 34.9797C17.6696 35.1226 17.1854 35.1239 16.7344 35.0126C17.3821 35.5173 18.2475 35.7033 19.0733 35.4513C20.0501 35.1531 20.7642 34.3281 20.8931 33.3483C20.9378 33.0125 21.2609 32.8101 21.592 32.7751C21.4727 32.6824 21.3467 32.599 21.245 32.4838Z" fill="#010101"/>
<path opacity="0.1" d="M32.8264 28.9499C32.6401 28.7394 32.3394 28.6577 32.0597 28.7431C31.78 28.8285 31.5762 29.0641 31.5391 29.3428C31.4102 30.3226 30.6961 31.1476 29.7193 31.4458C29.251 31.5887 28.7668 31.59 28.3158 31.4787C28.9635 31.9834 29.8289 32.1694 30.6547 31.9173C31.6315 31.6192 32.3457 30.7942 32.4745 29.8144C32.5116 29.5357 32.7154 29.3001 32.9951 29.2147C33.0432 29.2 33.0902 29.2171 33.1388 29.2122C33.0329 29.1267 32.918 29.0536 32.8264 28.9499Z" fill="#010101"/>
<path opacity="0.1" d="M27.036 30.7163C26.6633 30.2953 25.8229 30.5518 25.7487 31.1092C25.6198 32.0889 24.9057 32.914 23.9289 33.2121C23.4606 33.355 22.9764 33.3563 22.5254 33.245C23.1731 33.7497 24.0385 33.9357 24.8643 33.6837C25.8411 33.3856 26.5552 32.5605 26.6841 31.5808C26.7288 31.2449 27.0519 31.0425 27.383 31.0075C27.2638 30.9148 27.1377 30.8314 27.036 30.7163Z" fill="#010101"/>
<path opacity="0.2" d="M26.1352 6.28741C26.5079 6.70835 27.3484 6.45185 27.4226 5.8945C27.5514 4.91476 28.2655 4.0897 29.2424 3.79156C29.7231 3.64485 30.2106 3.64666 30.6598 3.76018C30.0229 3.23384 29.1243 3.0248 28.2505 3.2915C27.2736 3.58964 26.5595 4.4147 26.4307 5.39444C26.3869 5.72308 26.0763 5.92422 25.7527 5.96645C25.8859 6.06603 26.0231 6.16043 26.1352 6.28741Z" fill="white"/>
<path opacity="0.2" d="M20.3442 8.05499C20.7169 8.47593 21.5574 8.21943 21.6315 7.66207C21.7604 6.68233 22.4745 5.85728 23.4514 5.55914C23.9107 5.41894 24.3847 5.41827 24.8283 5.52291C24.178 4.99922 23.2983 4.80305 22.4595 5.05908C21.4826 5.35722 20.7685 6.18228 20.6396 7.16202C20.5959 7.49066 20.2853 7.6918 19.9617 7.73402C20.0949 7.83361 20.2321 7.92801 20.3442 8.05499Z" fill="white"/>
<path opacity="0.2" d="M8.76018 11.5901C9.13295 12.0111 9.97337 11.7546 10.0476 11.1972C10.1764 10.2175 10.8905 9.39243 11.8674 9.0943C12.3267 8.95409 12.8007 8.95342 13.2443 9.05806C12.594 8.53438 11.7144 8.33821 10.8755 8.59424C9.89863 8.89237 9.18452 9.71743 9.05566 10.6972C9.0119 11.0258 8.70133 11.227 8.37775 11.2692C8.5109 11.3688 8.64809 11.4632 8.76018 11.5901Z" fill="white"/>
<path opacity="0.2" d="M14.5512 9.82256C14.924 10.2435 15.7644 9.98701 15.8386 9.42965C15.9674 8.44991 16.6815 7.62485 17.6584 7.32672C18.1178 7.18651 18.5917 7.18585 19.0353 7.29048C18.385 6.7668 17.5054 6.57063 16.6665 6.82666C15.6896 7.1248 14.9755 7.94985 14.8467 8.92959C14.8029 9.25824 14.4923 9.45938 14.1688 9.5016C14.3019 9.60118 14.4391 9.69559 14.5512 9.82256Z" fill="white"/>
<path opacity="0.2" d="M33.1152 14.3789C33.2223 14.5869 33.4123 14.7446 33.6587 14.7692C33.8018 14.7833 33.9312 14.833 34.0662 14.869C33.7959 14.6379 33.4709 14.4796 33.1152 14.3789Z" fill="white"/>
<path opacity="0.2" d="M37.0395 25.8473C37.1827 25.8614 37.312 25.9112 37.4471 25.9471C37.1768 25.716 36.8518 25.5578 36.4961 25.457C36.6031 25.665 36.7932 25.8227 37.0395 25.8473Z" fill="white"/>
<path opacity="0.2" d="M34.8066 19.918C34.9137 20.126 35.1037 20.2836 35.3501 20.3082C35.4932 20.3223 35.6226 20.3721 35.7576 20.408C35.4873 20.1769 35.1623 20.0187 34.8066 19.918Z" fill="white"/>
<path opacity="0.2" d="M5.07598 15.0638C4.73648 14.7737 4.47215 14.4008 4.33804 13.9614C3.9426 12.6657 4.72309 11.275 6.07765 10.8615C6.53702 10.7213 7.01097 10.7207 7.45458 10.8253C6.8043 10.3016 5.92463 10.1055 5.08575 10.3615C3.73119 10.7749 2.9507 12.1657 3.34614 13.4614C3.59104 14.2638 4.25435 14.8455 5.07598 15.0638Z" fill="white"/>
<path opacity="0.2" d="M31.4258 8.83984C31.5328 9.04783 31.7228 9.2055 31.9692 9.23011C32.1123 9.24422 32.2417 9.29398 32.3768 9.32989C32.1065 9.09881 31.7815 8.94059 31.4258 8.83984Z" fill="white"/>
<path opacity="0.2" d="M23.1739 33.4564C23.021 33.2837 22.7897 33.2479 22.5645 33.2773C22.8428 33.4856 23.1509 33.6412 23.489 33.721C23.3821 33.6349 23.2663 33.561 23.1739 33.4564Z" fill="white"/>
<path opacity="0.2" d="M17.381 35.224C17.228 35.0513 16.9967 35.0155 16.7715 35.0449C17.0498 35.2531 17.3579 35.4088 17.6961 35.4886C17.5891 35.4025 17.4733 35.3286 17.381 35.224Z" fill="white"/>
<path opacity="0.2" d="M28.963 31.6889C28.81 31.5161 28.5787 31.4804 28.3535 31.5098C28.6318 31.718 28.9399 31.8737 29.2781 31.9534C29.1712 31.8673 29.0553 31.7935 28.963 31.6889Z" fill="white"/>
<path opacity="0.2" d="M34.7546 29.9199C34.5953 29.74 34.3512 29.6788 34.1094 29.7109C34.3963 29.9342 34.7164 30.1012 35.0697 30.1844C34.9627 30.0984 34.8469 30.0245 34.7546 29.9199Z" fill="white"/>
<path opacity="0.2" d="M11.1003 36.1208C10.8152 35.1865 11.1378 34.1641 11.9229 33.5152C12.146 33.3302 12.2382 33.0383 12.1566 32.7708C12.0749 32.5033 11.8354 32.3126 11.5471 32.2838C11.3896 32.2682 11.2463 32.2158 11.0986 32.174C11.1168 32.2094 11.1528 32.2319 11.1647 32.2707C11.2463 32.5383 11.1541 32.8302 10.931 33.0151C10.1459 33.664 9.82325 34.6864 10.1084 35.6208C10.3635 36.4566 11.0487 37.046 11.8651 37.2523C11.5148 36.9628 11.2407 36.5806 11.1003 36.1208Z" fill="white"/>
<path opacity="0.2" d="M6.76599 20.6041C6.4265 20.314 6.16217 19.9411 6.02806 19.5017C5.74289 18.5673 6.06555 17.5449 6.85066 16.896C7.07373 16.7111 7.16598 16.4192 7.08433 16.1516C7.00268 15.8841 6.76315 15.6935 6.47483 15.6646C6.31732 15.6491 6.17402 15.5967 6.02637 15.5548C6.04457 15.5902 6.08058 15.6127 6.09243 15.6516C6.17408 15.9191 6.08184 16.211 5.85876 16.396C5.07365 17.0449 4.75099 18.0673 5.03616 19.0016C5.28106 19.804 5.94437 20.3857 6.76599 20.6041Z" fill="white"/>
<path opacity="0.2" d="M8.45545 26.1432C8.11595 25.853 7.85162 25.4802 7.71751 25.0408C7.43234 24.1064 7.755 23.084 8.54012 22.4351C8.76319 22.2502 8.85543 21.9582 8.77378 21.6907C8.69214 21.4232 8.4526 21.2325 8.16429 21.2037C8.00677 21.1881 7.86348 21.1357 7.71582 21.0939C7.73402 21.1293 7.77003 21.1518 7.78189 21.1907C7.86354 21.4582 7.77129 21.7501 7.54822 21.935C6.76311 22.5839 6.44044 23.6063 6.72562 24.5407C6.97051 25.3431 7.63382 25.9248 8.45545 26.1432Z" fill="white"/>
<path opacity="0.2" d="M10.1469 31.6822C9.80735 31.3921 9.54303 31.0192 9.40892 30.5798C9.12375 29.6454 9.44641 28.623 10.2315 27.9741C10.4546 27.7892 10.5468 27.4973 10.4652 27.2298C10.3835 26.9622 10.144 26.7716 9.85569 26.7427C9.69818 26.7272 9.55488 26.6748 9.40723 26.633C9.42543 26.6683 9.46143 26.6909 9.47329 26.7297C9.55494 26.9972 9.46269 27.2892 9.23962 27.4741C8.45451 28.123 8.13185 29.1454 8.41702 30.0798C8.66192 30.8822 9.32523 31.4639 10.1469 31.6822Z" fill="white"/>
<path d="M10.2939 16.1127C11.0693 15.8761 11.5143 15.083 11.288 14.3414C11.0616 13.5997 10.2496 13.1903 9.47422 13.427C8.69886 13.6636 8.25381 14.4567 8.48016 15.1983C8.70652 15.94 9.51856 16.3494 10.2939 16.1127Z" fill="black" fill-opacity="0.3"/>
<path d="M15.9092 14.3998C16.6845 14.1632 17.1296 13.3701 16.9032 12.6285C16.6769 11.8868 15.8648 11.4775 15.0895 11.7141C14.3141 11.9507 13.869 12.7438 14.0954 13.4854C14.3217 14.2271 15.1338 14.6365 15.9092 14.3998Z" fill="black" fill-opacity="0.3"/>
<path d="M21.5244 12.685C22.2997 12.4484 22.7448 11.6553 22.5184 10.9136C22.2921 10.172 21.48 9.76261 20.7047 9.99926C19.9293 10.2359 19.4843 11.029 19.7106 11.7706C19.937 12.5123 20.749 12.9216 21.5244 12.685Z" fill="black" fill-opacity="0.3"/>
<path d="M27.1396 10.9702C27.915 10.7335 28.36 9.94045 28.1337 9.1988C27.9073 8.45716 27.0953 8.04777 26.3199 8.28441C25.5446 8.52105 25.0995 9.31411 25.3259 10.0558C25.5522 10.7974 26.3643 11.2068 27.1396 10.9702Z" fill="black" fill-opacity="0.3"/>
<path d="M11.9326 21.4838C12.708 21.2472 13.153 20.4541 12.9267 19.7125C12.7003 18.9708 11.8883 18.5614 11.1129 18.7981C10.3375 19.0347 9.89248 19.8278 10.1188 20.5694C10.3452 21.3111 11.1572 21.7205 11.9326 21.4838Z" fill="black" fill-opacity="0.3"/>
<path d="M17.5478 19.769C18.3232 19.5323 18.7682 18.7393 18.5419 17.9976C18.3155 17.256 17.5035 16.8466 16.7281 17.0832C15.9528 17.3199 15.5077 18.1129 15.7341 18.8546C15.9604 19.5962 16.7725 20.0056 17.5478 19.769Z" fill="black" fill-opacity="0.3"/>
<path d="M23.1631 18.0561C23.9384 17.8194 24.3835 17.0264 24.1571 16.2847C23.9308 15.5431 23.1187 15.1337 22.3434 15.3703C21.568 15.607 21.1229 16.4001 21.3493 17.1417C21.5757 17.8833 22.3877 18.2927 23.1631 18.0561Z" fill="black" fill-opacity="0.3"/>
<path d="M28.7802 16.3412C29.5556 16.1046 30.0007 15.3115 29.7743 14.5699C29.548 13.8283 28.7359 13.4189 27.9606 13.6555C27.1852 13.8921 26.7401 14.6852 26.9665 15.4269C27.1928 16.1685 28.0049 16.5779 28.7802 16.3412Z" fill="black" fill-opacity="0.3"/>
<path d="M13.5732 26.8549C14.3486 26.6183 14.7936 25.8252 14.5673 25.0836C14.3409 24.3419 13.5289 23.9325 12.7535 24.1692C11.9782 24.4058 11.5331 25.1989 11.7595 25.9405C11.9858 26.6822 12.7979 27.0916 13.5732 26.8549Z" fill="black" fill-opacity="0.3"/>
<path d="M19.1885 25.142C19.9638 24.9054 20.4089 24.1123 20.1825 23.3707C19.9562 22.629 19.1441 22.2196 18.3688 22.4563C17.5934 22.6929 17.1483 23.486 17.3747 24.2276C17.601 24.9693 18.4131 25.3787 19.1885 25.142Z" fill="black" fill-opacity="0.3"/>
<path d="M24.8037 23.4272C25.579 23.1905 26.0241 22.3975 25.7977 21.6558C25.5714 20.9142 24.7593 20.5048 23.984 20.7414C23.2086 20.9781 22.7636 21.7711 22.9899 22.5128C23.2163 23.2544 24.0283 23.6638 24.8037 23.4272Z" fill="black" fill-opacity="0.3"/>
<path d="M30.4189 21.7143C31.1943 21.4777 31.6393 20.6846 31.413 19.9429C31.1866 19.2013 30.3746 18.7919 29.5992 19.0286C28.8239 19.2652 28.3788 20.0583 28.6052 20.7999C28.8315 21.5415 29.6436 21.9509 30.4189 21.7143Z" fill="black" fill-opacity="0.3"/>
<path d="M15.2119 32.226C15.9872 31.9894 16.4323 31.1963 16.2059 30.4547C15.9796 29.713 15.1675 29.3036 14.3922 29.5403C13.6168 29.7769 13.1718 30.57 13.3981 31.3116C13.6245 32.0533 14.4365 32.4627 15.2119 32.226Z" fill="black" fill-opacity="0.3"/>
<path d="M20.8271 30.5131C21.6025 30.2765 22.0475 29.4834 21.8212 28.7418C21.5948 28.0001 20.7828 27.5907 20.0074 27.8274C19.2321 28.064 18.787 28.8571 19.0134 29.5987C19.2397 30.3404 20.0518 30.7498 20.8271 30.5131Z" fill="black" fill-opacity="0.3"/>
<path d="M26.4424 28.8002C27.2177 28.5636 27.6628 27.7705 27.4364 27.0289C27.2101 26.2872 26.398 25.8778 25.6227 26.1145C24.8473 26.3511 24.4022 27.1442 24.6286 27.8858C24.855 28.6275 25.667 29.0369 26.4424 28.8002Z" fill="black" fill-opacity="0.3"/>
<path d="M32.0576 27.0854C32.833 26.8487 33.278 26.0557 33.0517 25.314C32.8253 24.5724 32.0133 24.163 31.2379 24.3996C30.4625 24.6363 30.0175 25.4293 30.2438 26.171C30.4702 26.9126 31.2822 27.322 32.0576 27.0854Z" fill="black" fill-opacity="0.3"/>
<path d="M32.3629 7.63311C32.9715 6.6933 33.1565 5.54159 32.8275 4.46363C32.206 2.42703 29.9689 1.29922 27.8397 1.94905C26.7127 2.293 25.8086 3.08217 25.3266 4.08583C24.3663 3.52236 23.1756 3.37257 22.0486 3.71652C20.9216 4.06048 20.0175 4.84964 19.5355 5.8533C18.5752 5.28984 17.3844 5.14004 16.2575 5.484C15.1305 5.82795 14.2263 6.61712 13.7443 7.62078C12.784 7.05731 11.5933 6.90752 10.4663 7.25147C9.33936 7.59543 8.4352 8.38459 7.9532 9.38825C6.99291 8.82479 5.80217 8.67499 4.6752 9.01895C2.54603 9.66878 1.31996 11.8536 1.94154 13.8902C2.27054 14.9681 3.06714 15.8202 4.09685 16.26C3.4882 17.1998 3.30317 18.3515 3.63217 19.4295C3.96117 20.5075 4.75777 21.3596 5.78748 21.7993C5.17883 22.7392 4.99379 23.8909 5.32279 24.9688C5.65179 26.0468 6.4484 26.8989 7.4781 27.3387C6.86946 28.2785 6.68442 29.4302 7.01342 30.5082C7.34242 31.5861 8.13903 32.4382 9.16873 32.878C8.56009 33.8178 8.37505 34.9695 8.70405 36.0475C9.32563 38.0841 11.5627 39.2119 13.6919 38.5621C14.8189 38.2181 15.723 37.429 16.205 36.4253C17.1653 36.9888 18.356 37.1386 19.483 36.7946C20.61 36.4507 21.5141 35.6615 21.9961 34.6578C22.9564 35.2213 24.1472 35.3711 25.2741 35.0271C26.4011 34.6832 27.3053 33.894 27.7873 32.8904C28.7476 33.4538 29.9383 33.6036 31.0653 33.2597C32.1922 32.9157 33.0964 32.1265 33.5784 31.1229C34.5387 31.6863 35.7294 31.8361 36.8564 31.4922C38.9856 30.8424 40.2116 28.6576 39.5901 26.621C39.2611 25.543 38.4645 24.6909 37.4348 24.2511C38.0434 23.3113 38.2284 22.1596 37.8994 21.0816C37.5704 20.0037 36.7738 19.1516 35.7441 18.7118C36.3528 17.772 36.5378 16.6203 36.2088 15.5423C35.8798 14.4643 35.0832 13.6122 34.0535 13.1724C34.6621 12.2326 34.8472 11.0809 34.5182 10.003C34.1892 8.925 33.3926 8.07289 32.3629 7.63311Z" fill="url(#paint0_linear_1293_430)"/>
<path d="M31.5235 7.08952L30.878 8.08631L31.9701 8.55275C32.7422 8.8825 33.3231 9.51295 33.5617 10.2949C33.8004 11.0768 33.6705 11.9242 33.2141 12.6289L32.5686 13.6256L33.6607 14.0921C34.4328 14.4218 35.0137 15.0523 35.2524 15.8342C35.491 16.6161 35.3611 17.4635 34.9048 18.1682L34.2592 19.165L35.3514 19.6314C36.1234 19.9612 36.7043 20.5916 36.943 21.3736C37.1816 22.1555 37.0518 23.0029 36.5954 23.7075L35.9499 24.7043L37.042 25.1708C37.8141 25.5005 38.395 26.131 38.6336 26.9129C39.0819 28.3816 38.2059 30.0348 36.5645 30.5357C35.7028 30.7987 34.8017 30.6812 34.0845 30.2604L33.1473 29.7105L32.677 30.69C32.317 31.4395 31.6351 32.0402 30.7734 32.3032C29.9116 32.5662 29.0105 32.4487 28.2933 32.0279L27.3562 31.478L26.8858 32.4574C26.5259 33.207 25.8439 33.8077 24.9822 34.0707C24.1205 34.3337 23.2194 34.2162 22.5022 33.7953L21.5651 33.2455L21.0947 34.2249C20.7347 34.9745 20.0528 35.5752 19.1911 35.8382C18.3294 36.1012 17.4283 35.9836 16.7111 35.5628L15.774 35.0129L15.3036 35.9924C14.9436 36.742 14.2617 37.3426 13.4 37.6056C11.7585 38.1066 10.1088 37.2243 9.6605 35.7556C9.42185 34.9737 9.55171 34.1263 10.0081 33.4216L10.6536 32.4248L9.5615 31.9584C8.78941 31.6286 8.20851 30.9982 7.96987 30.2163C7.73122 29.4343 7.86108 28.587 8.31746 27.8823L8.963 26.8855L7.87087 26.4191C7.09879 26.0893 6.51789 25.4588 6.27924 24.6769C6.0406 23.895 6.17045 23.0476 6.62683 22.3429L7.27237 21.3462L6.18025 20.8797C5.40816 20.55 4.82726 19.9195 4.58861 19.1376C4.34997 18.3557 4.47983 17.5083 4.9362 16.8036L5.58175 15.8068L4.48962 15.3404C3.71753 15.0106 3.13663 14.3802 2.89798 13.5982C2.44972 12.1295 3.32566 10.4764 4.96712 9.97539C5.82882 9.7124 6.72995 9.82993 7.44713 10.2507L8.38426 10.8006L8.85464 9.82116C9.21461 9.0716 9.89653 8.47092 10.7582 8.20792C11.6199 7.94492 12.5211 8.06245 13.2383 8.48327L14.1754 9.03314L14.6458 8.05369C15.0057 7.30412 15.6877 6.70344 16.5494 6.44044C17.4111 6.17745 18.3122 6.29498 19.0294 6.71579L19.9665 7.26566L20.4369 6.28621C20.7969 5.53665 21.4788 4.93597 22.3405 4.67297C23.2022 4.40997 24.1033 4.5275 24.8205 4.94832L25.7576 5.49819L26.228 4.51874C26.588 3.76917 27.2699 3.16849 28.1316 2.9055C29.7731 2.40452 31.4228 3.28679 31.8711 4.75554C32.1097 5.53746 31.9799 6.38484 31.5235 7.08952Z" stroke="black" stroke-opacity="0.3" stroke-width="2"/>
<defs>
<linearGradient id="paint0_linear_1293_430" x1="0.941675" y1="17.7983" x2="40.3768" y2="24.0562" gradientUnits="userSpaceOnUse">
<stop stop-color="white" stop-opacity="0.2"/>
<stop offset="1" stop-color="white" stop-opacity="0"/>
</linearGradient>
</defs>
</svg>
