<svg width="25" height="25" viewBox="0 0 25 25" fill="none" xmlns="http://www.w3.org/2000/svg">
<rect x="1.25" y="1.25" width="22.5" height="22.5" rx="4.15" stroke="white" stroke-width="2.5"/>
<circle cx="12.6716" cy="12.3298" r="5.59932" stroke="white" stroke-width="2.5"/>
<mask id="path-3-inside-1_1232_1260" fill="white">
<ellipse cx="19.5203" cy="5.13945" rx="2.39726" ry="2.39726"/>
</mask>
<path d="M19.4176 5.13945C19.4176 5.08271 19.4636 5.03671 19.5203 5.03671V10.0367C22.225 10.0367 24.4176 7.84413 24.4176 5.13945H19.4176ZM19.5203 5.03671C19.577 5.03671 19.623 5.08271 19.623 5.13945H14.623C14.623 7.84413 16.8156 10.0367 19.5203 10.0367V5.03671ZM19.623 5.13945C19.623 5.19619 19.577 5.24219 19.5203 5.24219V0.242188C16.8156 0.242188 14.623 2.43477 14.623 5.13945H19.623ZM19.5203 5.24219C19.4636 5.24219 19.4176 5.19619 19.4176 5.13945H24.4176C24.4176 2.43477 22.225 0.242188 19.5203 0.242188V5.24219Z" fill="white" mask="url(#path-3-inside-1_1232_1260)"/>
</svg>
