<svg width="36" height="35" viewBox="0 0 36 35" fill="none" xmlns="http://www.w3.org/2000/svg">
<g clip-path="url(#clip0_1232_1269)">
<path d="M35.5156 13.0785C33.7006 13.0873 27.0775 13.4981 22.1506 18.732C20.0806 20.7503 18.8156 23.0437 18 25.1934C17.1844 23.0437 15.9194 20.7503 13.8494 18.732C8.92252 13.4981 2.2994 13.0873 0.484397 13.0785C0.208772 13.0771 -0.00247804 13.3101 2.19598e-05 13.6111C0.014397 15.5129 0.446272 22.2032 5.54815 27.1865C10.7994 32.7597 16 32.6957 18 32.6957C20 32.6957 25.1994 32.7604 30.4519 27.1865C35.5544 22.2025 35.9856 15.5129 36 13.6111C36.0025 13.3101 35.7913 13.0771 35.5156 13.0785ZM17.9988 20.612C18.8 19.328 19.7238 18.1748 20.7544 17.1708C21.9475 15.9032 23.2281 14.9026 24.5206 14.0934C23.4931 9.29126 21.2881 5.03065 18.475 2.36258C18.2181 2.11872 17.7863 2.11872 17.5288 2.36258C14.7169 5.02861 12.5119 9.28513 11.4825 14.0832C12.7556 14.8801 14.0138 15.8637 15.1838 17.1068C16.2488 18.1468 17.194 19.3238 17.9988 20.612Z" fill="#CCC093"/>
</g>
<defs>
<clipPath id="clip0_1232_1269">
<rect width="36" height="34.875" fill="white"/>
</clipPath>
</defs>
</svg>
