<svg width="26" height="23" viewBox="0 0 26 23" fill="none" xmlns="http://www.w3.org/2000/svg">
<g clip-path="url(#clip0_1232_1264)">
<path d="M2.80832 15.1728C2.80832 16.4974 3.02622 17.5101 3.31103 18.1242C3.4628 18.4739 3.68136 18.7638 3.9445 18.9645C4.20764 19.1652 4.50599 19.2696 4.80922 19.267C5.54159 19.267 6.21157 19.0262 7.50271 16.6467C8.53707 14.7405 9.75588 12.0708 10.5769 10.3849L11.9656 7.54304C12.9304 5.56937 14.0452 3.37534 15.3273 1.88335C16.3716 0.674346 17.4991 0 18.6338 0C20.5389 0 22.3535 1.47031 23.7423 4.22791C25.2622 7.24801 26.0027 11.052 26.0027 14.9777C26.0027 17.3114 25.6573 19.0262 25.0696 20.3809C24.5027 21.691 23.3924 23 21.5307 23V19.267C23.1248 19.267 23.5199 17.3162 23.5199 15.0837C23.5199 11.9022 22.9629 8.37152 21.736 5.84874C20.8653 4.05932 19.7369 2.96592 18.4955 2.96592C17.1528 2.96592 16.0723 4.31461 14.858 6.71937C14.2125 7.99702 13.5497 9.55403 12.8056 11.3109L11.9864 13.2376C10.3409 17.1236 9.92405 18.0086 9.10127 19.4693C7.66184 22.0366 6.43038 23 4.80922 23C2.88608 23 1.66998 21.8909 0.921338 20.2195C0.301989 18.8576 0 17.0706 0 15.0343L2.80832 15.1728Z" fill="white"/>
<path d="M2.21484 4.49162C3.50237 1.84843 5.36041 0 7.49152 0C8.72569 0 9.95264 0.481675 11.2338 1.87974C12.6353 3.40304 14.1271 5.91136 15.9924 10.0453L16.6606 11.5289C18.2736 15.1077 19.1922 16.9478 19.7284 17.8172C20.4192 18.9323 20.9038 19.2622 21.5313 19.2622C23.1253 19.2622 23.5204 17.3114 23.5204 15.0788L25.9978 14.9753C25.9978 17.309 25.6525 19.0238 25.0648 20.3785C24.5033 21.691 23.393 23 21.5313 23C20.374 23 19.3487 22.6652 18.2148 21.2407C17.3432 20.1473 16.3242 18.2049 15.5403 16.4588L13.2085 11.2712C12.0385 8.66775 10.9653 6.7266 10.3441 5.85236C9.67506 4.90225 8.81701 3.76068 7.44631 3.76068C6.33691 3.76068 5.39477 4.79749 4.60634 6.3834L2.21484 4.49162Z" fill="white"/>
<path d="M7.44575 3.76068C6.33635 3.76068 5.39421 4.79749 4.60579 6.3834C3.49096 8.6244 2.80832 11.9624 2.80832 15.1728C2.80832 16.4974 3.02622 17.5101 3.31103 18.1242L0.916817 20.2195C0.301989 18.8576 0 17.0706 0 15.0343C0 11.3314 0.76311 7.47199 2.21429 4.49162C3.50181 1.84843 5.35986 0 7.49096 0L7.44575 3.76068Z" fill="white"/>
</g>
<defs>
<clipPath id="clip0_1232_1264">
<rect width="26" height="23" fill="white"/>
</clipPath>
</defs>
</svg>
