<svg width="479" height="481" viewBox="0 0 479 481" fill="none" xmlns="http://www.w3.org/2000/svg">
<path d="M391.637 357.406C385.58 353.3 377.065 352.313 368.796 354.274C367.69 356.214 365.957 358.153 365.05 359.027C364.284 359.772 363.476 360.43 362.659 361.055C362.075 361.087 361.519 361.118 361.057 361.132C359.34 361.19 357.326 361.197 355.301 361.397C357.499 360.204 359.603 358.735 361.525 356.878C362.429 356.009 364.158 354.068 365.268 352.13C366.122 350.636 366.6 349.147 366.044 348.152C364.654 345.704 359.715 349.313 357.979 350.569C354.354 353.215 351.425 357.018 348.924 360.912C348.828 361.015 348.733 361.133 348.686 361.246C333.649 356.652 318.118 351.565 301.725 351.586C312.843 347.128 323.878 342.177 334.835 337.013C348.828 330.409 363.018 323.639 375.856 313.779C377.747 315.819 380.448 317.025 383.163 317.723C385.155 318.238 389.469 317.722 391.799 315.473C392.464 314.834 392.973 314.055 393.215 313.114C394.255 308.973 389.61 307.578 384.765 307.229C390.103 303.948 395.114 299.046 393.572 294.528C392.933 292.636 391.031 292.918 388.7 294.241C393.072 290.415 397.799 287.323 398.896 290.565C400.441 295.078 395.427 299.975 390.092 303.26C394.93 303.613 399.578 305.01 398.537 309.144C398.297 310.082 397.784 310.862 397.118 311.507C402.048 311.135 407.431 308.798 413.027 304.518C423.54 296.485 435.898 282.759 437.939 269.054C440.199 253.877 419.786 255.827 411.002 258.553C400.603 261.782 392.039 270.453 386.848 280.74C392.723 279.245 390.589 287.705 387.577 294.937C385.797 296.111 383.851 297.739 382.041 299.406C385.164 292.069 387.533 283.186 381.519 284.707C381.505 284.712 381.487 284.715 381.465 284.715C373.663 286.761 371.926 303.104 373.649 309.824C373.741 310.177 373.887 310.496 374.011 310.838C353.004 326.743 328.034 337.521 304.433 346.686C317.804 333.831 321.263 311.79 333.752 295.296C338.659 296.192 345.158 295.115 349.723 291.08C351.193 289.782 355.336 285.328 352.464 284.03C352.422 284.018 352.402 283.991 352.363 283.982C350.088 283.078 346.143 285.594 343.878 286.728C341.895 287.739 339.786 288.818 337.787 290.068C339.885 286.228 341.6 282.128 342.66 278.01C343.165 276.066 343.55 269.263 340.712 269.561C341.424 267.365 342.425 265.208 344.011 264.264C348.096 261.842 347.677 270.121 347.113 272.305C346.048 276.424 344.341 280.518 342.24 284.364C344.239 283.114 346.348 282.035 348.332 281.031C350.6 279.888 354.543 277.375 356.815 278.27C356.854 278.287 356.882 278.311 356.913 278.323C359.886 274.951 362.441 270.773 364.525 266.092C368.956 256.157 374.087 240.32 368.348 232.007C361.735 222.435 344.432 236.72 338.591 244.285C332.957 251.555 330.479 260.606 330.619 269.101C332.774 269.35 335.016 272.497 335.751 273.862C335.964 274.248 336.146 274.657 336.331 275.068C335.757 276.789 335.37 278.549 335.051 279.784C334.556 281.703 333.924 283.944 333.46 286.193C333.064 283.824 332.393 281.576 331.298 279.566C330.567 278.204 328.328 275.062 326.171 274.808C325.683 274.751 325.197 274.846 324.737 275.137C322.04 276.857 323.774 282.112 324.389 283.948C325.661 287.84 328.253 290.871 331.051 293.402C316.93 312.242 315.15 339.21 295.1 350.284C293.743 350.795 292.388 351.303 291.04 351.819C271.645 359.169 252.549 364.313 233.458 367.011C250.358 356.749 262.096 339.78 273.174 322.279C277.497 323.718 283.03 323.675 287.523 320.888C289.16 319.875 293.99 316.141 291.281 314.224C291.173 314.151 291.045 314.114 290.924 314.053C288.834 313.025 285.005 314.547 282.799 315.179C280.739 315.776 278.562 316.409 276.447 317.256C277.573 315.802 278.625 314.267 279.615 312.701C281.575 311.949 283.575 311.346 285.472 310.797C287.684 310.165 291.509 308.641 293.601 309.674L293.607 309.664C296.948 306.276 299.039 301.972 300.762 297.594C303.688 290.135 306.588 276.329 300.148 271.937C292.36 266.627 281.04 275.156 275.769 283.717C273.667 287.13 272.203 291.059 271.425 295.036C273.163 296.139 274.484 299.338 274.891 300.743C275.401 302.473 275.651 304.289 275.727 306.151C275.724 306.156 275.724 306.156 275.718 306.166C274.912 308.007 273.905 310.157 273.065 312.347C273.118 309.85 272.888 307.414 272.22 305.126C271.809 303.719 270.482 300.53 268.747 299.422C268.15 299.041 267.5 298.904 266.82 299.182C263.973 300.35 264.681 306.076 264.914 308.089C265.486 312.868 267.81 316.888 270.337 320.359C270.441 320.496 270.576 320.561 270.709 320.608C258.497 339.231 246.942 356.88 227.826 367.708C227.816 367.716 227.809 367.726 227.802 367.728C218.169 368.843 208.535 369.332 198.857 369.158C197.469 369.127 196.822 371.392 198.201 371.596C208.709 373.185 219.671 373.008 230.795 371.64C256.677 377.74 271.375 402.839 296.297 410.461C294.152 414.888 292.891 419.999 293.741 424.181C294.098 425.953 295.841 431.157 298.529 428.081C298.635 427.963 298.709 427.815 298.809 427.679C300.472 425.317 300.404 421.124 300.592 418.696C300.76 416.449 300.936 414.054 300.898 411.736C303.132 414.561 305.796 417.013 308.811 418.793C310.408 419.719 317.321 421.457 317.427 416.842C318.44 417.782 319.201 418.896 319.186 420.245C319.147 424.946 312.166 423.197 310.565 422.259C307.545 420.483 304.886 418.033 302.652 415.202C302.684 417.517 302.51 419.923 302.347 422.169C302.162 424.593 302.225 428.793 300.56 431.15C300.56 431.15 300.56 431.15 300.564 431.153C302.501 434.706 305.713 436.867 309.123 438.592C314.926 441.528 326.54 444.181 332.785 436.854C340.323 428.006 336.45 415.776 330.45 410.288C328.051 408.093 324.974 406.627 321.6 405.933C319.993 407.901 316.614 409.505 315.198 410.018C314.116 410.408 313.039 410.676 311.978 410.874C311.728 410.734 311.482 410.604 311.273 410.483C309.87 409.648 308.255 408.635 306.547 407.79C308.812 407.737 311.112 407.387 313.439 406.55C314.862 406.034 318.241 404.436 319.849 402.462C320.402 401.782 320.753 401.061 320.729 400.324C320.656 397.207 315.18 398.211 313.252 398.565C308.692 399.395 304.214 402.14 300.167 405.093C299.966 405.226 299.841 405.411 299.737 405.6C299.388 405.628 299.019 405.84 298.699 406.307C298.58 406.482 298.464 406.68 298.351 406.864C277.051 397.849 261.309 377.151 239.09 370.419C255.668 367.564 272.44 362.387 288.478 356.653C290.267 356.004 292.054 355.287 293.848 354.62C312.589 355.233 329.416 360.252 346.891 364.764C345.766 370.491 346.313 377.315 349.669 381.088C350.36 381.865 352.138 383.441 353.709 383.563C354.644 383.643 355.499 383.197 355.999 381.763C356.981 378.944 354.955 375.349 354.064 373.194C353.278 371.301 352.442 369.294 351.426 367.464C354.81 368.586 358.453 369.175 362.152 369.052C364.059 368.997 371.291 366.919 369.852 363.307C371.35 363.519 372.686 364.015 373.276 365.176C375.225 368.959 367.638 371.145 365.678 371.209C361.976 371.329 358.335 370.734 354.956 369.615C355.969 371.441 356.807 373.452 357.59 375.34C358.479 377.5 360.51 381.095 359.53 383.911C359.027 385.351 358.171 385.789 357.233 385.714C360.406 388.988 364.705 391.352 369.585 392.999C377.019 395.514 392.301 398.409 399.188 388.376C407.298 376.547 399.564 362.756 391.637 357.406ZM281.734 297.153C281.03 297.416 280.389 297.92 279.798 298.57C280.929 296.119 282.439 293.494 284.407 292.775C288.707 291.183 286.815 299.539 285.893 301.641C284.638 304.488 283.066 307.242 281.294 309.851C281.988 308.598 282.648 307.32 283.217 306.024C284.142 303.925 286.031 295.566 281.734 297.153Z" fill="#F5E488" fill-opacity="0.5"/>
<path d="M376.477 6.48303C376.616 8.05094 375.912 9.75522 374.679 11.1052C374.199 11.1104 373.653 11.2338 373.394 11.313C373.174 11.3792 372.966 11.4623 372.763 11.5507C372.696 11.6572 372.632 11.7585 372.581 11.8438C372.391 12.1607 372.179 12.5388 371.93 12.8985C372.384 12.6099 372.88 12.3678 373.43 12.2004C373.688 12.1213 374.233 11.999 374.714 11.9927C375.084 11.9882 375.414 12.0539 375.543 12.2624C375.858 12.7796 374.663 13.3312 374.246 13.5265C373.369 13.9316 372.348 14.0849 371.355 14.1483C371.325 14.1557 371.293 14.1612 371.267 14.1583C370.559 17.4658 369.893 20.9179 368.176 23.9982C370.176 22.3734 372.26 20.8158 374.376 19.295C377.08 17.3537 379.836 15.3928 383.032 14.0089C382.846 13.4402 382.901 12.8063 383.054 12.2228C383.165 11.7946 383.712 11.0372 384.379 10.8341C384.569 10.7758 384.768 10.7614 384.97 10.8143C385.858 11.0514 385.635 12.0705 385.194 13.0181C386.369 12.3572 387.814 11.9272 388.503 12.6891C388.792 13.007 388.54 13.3352 388.048 13.6353C389.224 13.213 390.299 12.6472 389.804 12.1022C389.117 11.3402 387.672 11.7712 386.497 12.4311C386.936 11.4846 387.159 10.4645 386.273 10.2283C386.072 10.1754 385.871 10.1903 385.681 10.2482C386.266 9.36007 387.267 8.59194 388.657 7.98689C391.266 6.84951 395.138 5.95979 397.929 7.00818C401.019 8.16891 398.519 11.8038 397.089 13.1706C395.395 14.7887 392.87 15.4929 390.393 15.3943C391.288 14.4457 389.474 13.963 387.799 13.7737C387.393 13.9858 386.883 14.1815 386.381 14.3479C388.087 14.5272 390.004 15.0099 389.09 15.9817C389.088 15.9839 389.085 15.9871 389.083 15.9912C387.883 17.2444 384.628 15.8634 383.545 14.8372C383.488 14.7831 383.443 14.7223 383.392 14.6633C378.206 16.9515 373.57 20.5207 369.381 24.0011C373.195 22.8298 377.701 24.4825 382.108 23.8575C382.452 22.8412 383.334 21.7316 384.569 21.2949C384.967 21.1541 386.237 20.8404 386.181 21.5161C386.179 21.5254 386.182 21.5319 386.18 21.5401C386.112 22.0623 385.227 22.5412 384.777 22.8486C384.38 23.1159 383.956 23.3997 383.512 23.6451C384.454 23.6518 385.404 23.7576 386.289 23.9887C386.707 24.0968 388.027 24.7353 387.674 25.2378C388.162 25.3333 388.672 25.3706 389.015 25.1709C389.897 24.6559 388.297 23.8697 387.827 23.7474C386.941 23.5174 385.993 23.4105 385.05 23.4038C385.494 23.1584 385.918 22.8747 386.314 22.6064C386.766 22.2994 387.65 21.8205 387.719 21.2998C387.72 21.2906 387.718 21.283 387.719 21.2758C388.664 21.0692 389.717 21.0252 390.815 21.1225C393.146 21.3275 396.66 22.0172 397.624 23.9652C398.733 26.2088 394.238 27.9699 392.205 28.2777C390.25 28.5775 388.289 28.0977 386.706 27.1837C386.884 26.7525 386.527 26.0021 386.347 25.7213C386.297 25.6409 386.239 25.5638 386.181 25.4863C385.797 25.4143 385.426 25.3031 385.16 25.2341C384.748 25.1267 384.26 25.0114 383.789 24.8637C384.193 25.1857 384.546 25.5467 384.809 25.9625C384.989 26.2423 385.346 26.9918 385.168 27.4239C385.128 27.5216 385.059 27.6031 384.956 27.6591C384.351 27.9866 383.544 27.1115 383.263 26.804C382.664 26.158 382.365 25.3539 382.182 24.5633C377.163 25.2502 371.906 22.7669 367.729 25.3801C367.491 25.5818 367.254 25.7835 367.016 25.9831C363.607 28.8621 360.645 31.9154 358.143 35.2234C361.838 33.1179 366.255 32.6837 370.704 32.4293C370.885 31.466 371.471 30.43 372.465 29.8764C372.826 29.6744 374.033 29.1564 374.111 29.8661C374.113 29.894 374.107 29.9219 374.105 29.951C374.08 30.4514 373.394 31.0124 373.045 31.3613C372.717 31.6862 372.371 32.0294 371.991 32.3388C372.382 32.2788 372.78 32.2415 373.178 32.219C373.524 31.9289 373.847 31.6159 374.148 31.3165C374.498 30.9666 375.184 30.4067 375.209 29.9052L375.211 29.9051C376.197 29.6309 377.225 29.6874 378.229 29.821C379.937 30.0502 382.836 30.9474 382.989 32.6172C383.174 34.6366 380.387 35.874 378.226 35.9707C377.365 36.0094 376.473 35.874 375.644 35.6048C375.618 35.1627 375.155 34.5801 374.933 34.3567C374.661 34.08 374.346 33.8433 374.004 33.6344C374.002 33.6345 374.002 33.6345 374 33.6346C373.569 33.5937 373.06 33.5584 372.56 33.4875C373.035 33.7385 373.469 34.0362 373.83 34.401C374.051 34.6254 374.513 35.208 374.54 35.6501C374.549 35.8022 374.506 35.9387 374.383 36.0374C373.866 36.4508 372.863 35.7194 372.509 35.4651C371.67 34.8581 371.157 34.0013 370.769 33.1635C370.754 33.1294 370.756 33.0972 370.761 33.0674C365.983 33.4179 361.457 33.7466 357.423 36.2097C357.421 36.2109 357.418 36.211 357.417 36.2121C356.201 37.9071 355.102 39.6675 354.124 41.5056C353.984 41.7698 353.491 41.6547 353.597 41.3742C354.396 39.2322 355.574 37.1894 356.994 35.2406C358.551 29.7363 355.367 24.3499 356.538 18.8672C355.482 18.8078 354.389 18.5109 353.691 17.9141C353.395 17.6618 352.599 16.7903 353.458 16.6063C353.492 16.5988 353.527 16.6003 353.563 16.5956C354.181 16.5298 354.962 16.9807 355.439 17.199C355.879 17.4021 356.347 17.6193 356.779 17.8687C356.482 17.1534 356.299 16.3963 356.279 15.6433C356.272 15.2463 356.667 13.7646 357.546 14.227C357.475 13.9384 357.345 13.6789 357.09 13.5406C356.202 13.0567 355.801 14.5523 355.811 14.9513C355.829 15.7048 356.012 16.4609 356.311 17.1766C355.879 16.9288 355.408 16.7102 354.969 16.506C354.494 16.2876 353.711 15.8369 353.093 15.9037C353.093 15.9037 353.093 15.9037 353.093 15.9026C352.627 15.1672 352.557 14.3373 352.589 13.5158C352.643 12.1179 353.358 9.65679 355.388 9.24811C357.839 8.75518 359.734 10.7614 360.139 12.463C360.302 13.1434 360.256 13.8753 360.034 14.5823C359.496 14.6788 358.841 15.1466 358.596 15.3592C358.41 15.5219 358.247 15.6964 358.099 15.8753C358.099 15.937 358.098 15.9967 358.099 16.0487C358.109 16.3996 358.131 16.8093 358.112 17.2187C358.358 16.7983 358.664 16.4024 359.065 16.0523C359.311 15.8385 359.964 15.3703 360.503 15.2742C360.689 15.2411 360.861 15.2504 360.997 15.3322C361.576 15.6715 360.815 16.5964 360.547 16.9218C359.914 17.6926 358.93 18.2478 357.952 18.7002C357.906 18.7241 357.858 18.7283 357.812 18.7283C357.77 18.7908 357.692 18.8381 357.57 18.8495C357.525 18.8536 357.476 18.8547 357.429 18.8567C356.899 23.8039 359.146 28.9269 358.09 33.8083C360.359 30.9894 363.085 28.3765 365.839 25.9597C366.148 25.6911 366.47 25.4302 366.783 25.1625C368.626 21.5742 369.44 17.8856 370.418 14.1281C369.223 13.7413 367.997 12.9253 367.639 11.9C367.565 11.6891 367.454 11.19 367.595 10.8819C367.678 10.6977 367.851 10.5835 368.173 10.6393C368.806 10.7493 369.27 11.5058 369.582 11.8986C369.856 12.2442 370.146 12.6109 370.384 12.9932C370.527 12.2398 370.796 11.493 371.206 10.8105C371.416 10.4575 372.562 9.31482 373.091 9.96289C373.208 9.65889 373.254 9.35594 373.097 9.12359C372.59 8.36187 371.386 9.56014 371.169 9.92207C370.759 10.6056 370.491 11.3523 370.348 12.1048C370.111 11.7235 369.82 11.3557 369.547 11.0111C369.234 10.6183 368.77 9.86083 368.138 9.75078C367.815 9.69506 367.643 9.81021 367.559 9.99444C367.275 9.05564 367.279 8.00016 367.48 6.9106C367.784 5.24985 368.836 2.07363 371.442 1.82691C374.514 1.53789 376.299 4.4333 376.477 6.48303ZM376.323 33.4451C376.2 33.55 376.038 33.6177 375.854 33.661C376.433 33.7045 377.085 33.6948 377.426 33.3999C378.174 32.7576 376.405 32.2404 375.914 32.194C375.247 32.1324 374.565 32.1404 373.889 32.2011C374.198 32.2013 374.507 32.2108 374.81 32.2393C375.301 32.2846 377.071 32.8029 376.323 33.4451Z" fill="#F5E488" fill-opacity="0.5"/>
<path d="M135.09 376.997C135.866 377.028 136.649 377.121 137.399 377.296C141.197 378.169 141.321 378.051 140.741 373.812C140.436 371.527 139.975 369.265 140.305 366.877C140.397 366.21 140.501 365.462 141.314 365.328C142.041 365.205 142.533 365.703 142.695 366.325C143.127 368.061 143.406 369.853 143.832 371.592C144.376 373.827 144.325 376.382 146.113 378.156C146.539 377.592 146.779 377.337 146.942 377.041C149.231 372.813 151.426 368.541 153.824 364.378C154.929 362.454 155.531 359.476 158.434 359.86C160.035 360.068 159.769 362.453 157.607 366.537C155.675 370.177 153.646 373.753 151.64 377.347C151.228 378.09 150.615 378.862 151.045 379.651C151.675 380.808 152.732 380.007 153.572 379.714C154.794 379.287 155.959 378.594 157.184 378.16C158.694 377.619 160.56 376.736 161.246 378.837C161.809 380.553 160.281 381.392 158.96 382.289C157.254 383.435 155.012 383.879 153.96 386.051C155.123 387.66 157.005 387.89 158.195 389.127C158.461 389.408 158.625 390.078 158.484 390.454C158.35 390.827 157.777 391.276 157.388 391.318C155.432 391.54 153.757 390.686 152.001 390.078C150.126 389.426 149.294 390.169 149.436 392.245C149.505 393.225 149.811 394.172 150.027 395.124C150.352 396.561 150.776 397.966 150.993 399.426C151.149 400.439 150.91 401.504 149.76 401.907C148.657 402.294 147.867 401.689 147.513 400.742C147.013 399.387 146.754 397.92 146.342 396.515C145.77 394.589 145.673 392.396 144.319 390.745C139.89 394.77 139.267 401.563 133.853 404.529C132.54 402.626 133.149 401.061 133.987 399.518C135.06 397.565 136.232 395.668 137.255 393.688C138.139 391.984 137.621 391.179 135.785 391.4C134.849 391.521 133.906 391.847 133 392.19C131.933 392.599 130.904 393.184 129.76 393.023C129.104 392.929 128.604 392.604 128.425 391.905C128.246 391.203 128.43 390.516 129.046 390.132C129.885 389.604 130.788 389.192 131.679 388.797C134.646 387.47 137.616 386.166 140.88 384.735C139.156 380.929 135.144 380.624 133.301 377.352C134.187 377.161 134.651 376.979 135.09 376.997Z" fill="#F5E488" fill-opacity="0.4"/>
<path d="M102.092 175.573C103.133 179.252 104.007 183 105.075 187.21C110.167 179.965 111.228 171.218 117.265 165.191C118.777 169.643 115.124 172.731 113.839 176.388C112.415 180.433 110.547 184.331 108.876 188.293C113.438 186.022 117.383 183.248 121.383 180.556C122.899 179.54 124.47 178.499 126.124 177.919C126.923 177.639 127.968 178.403 128.904 178.693C128.504 179.712 128.292 180.9 127.648 181.721C127.058 182.472 125.991 182.797 125.16 183.351C120.192 186.669 115.238 189.996 109.89 193.573C115.126 197.471 122.262 196.619 126.596 201.801C123.549 203.31 123.529 203.359 122.177 202.866C119.422 201.851 116.699 200.76 113.94 199.752C111.441 198.836 108.913 197.989 105.846 196.923C106.161 198.811 106.314 199.767 106.471 200.725C107.418 206.573 108.471 212.402 109.268 218.285C109.609 220.782 109.887 223.572 106.677 225.25C104.187 222.172 105.088 218.18 104.349 214.767C103.599 211.312 103.25 207.728 102.728 204.198C99.6914 209.092 97.7164 214.119 95.2476 218.889C92.7413 223.73 91.7951 229.435 87.4792 233.39C86.5773 227.414 89.989 222.589 92.2754 217.519C94.6086 212.356 96.8629 207.173 98.6768 201.727C93.3639 204.729 88.6112 208.436 82.7678 209.975C82.073 206.59 84.1103 205.574 86.1596 204.324C90.7725 201.516 95.3155 198.535 100.539 195.206C96.2278 193.478 92.7979 192.125 89.3833 190.728C85.9796 189.337 82.4979 188.065 79.5854 185.793C79.7309 185.457 79.8811 185.117 80.0297 184.785C86.8501 187.011 93.6789 189.249 101.041 191.652C100.993 182.24 97.3442 174.36 97.9097 164.468C101.29 167.973 101.111 172.079 102.092 175.573Z" fill="#F5E488" fill-opacity="0.4"/>
<path d="M92.6494 284.975C92.0853 281.613 91.9927 278.044 92.1909 274.555C92.4132 270.752 94.6934 269.463 98.3918 271.285C98.9964 271.918 100.337 272.843 101.077 274.18C104.196 279.864 107.373 285.536 110.102 291.463C113.845 299.589 114.984 308.645 116.033 317.7C118.4 313.846 120.92 310.071 123.583 306.363C125.822 303.256 125.837 303.218 123.614 300.855C121.768 298.895 120.233 296.625 119.471 293.988C117.249 286.307 115.735 278.468 116.673 270.02C118.963 249.339 128.752 232.611 143.498 218.41C143.995 217.928 144.523 217.462 145.074 217.043C144.656 216.297 144.259 215.532 143.882 214.761C142.144 211.229 143.983 208.165 147.866 207.406C153.219 206.346 159.311 212.311 158.745 218.082C158.667 218.896 158.393 219.712 158.255 220.308C156.855 222.463 155.148 223.061 153.124 222.967C151.183 222.871 149.668 222.232 148.424 221.268C147.994 221.634 147.534 221.962 147.136 222.351C137.721 231.637 129.579 241.787 125.154 254.707C120.973 266.9 120.133 278.92 123.06 290.866C123.351 292.067 123.454 293.5 125.641 294.262C124.988 283.296 128.657 273.859 134.116 264.866C135.894 261.935 137.051 258.599 139.314 256.006C144.128 250.477 149.072 245.073 153.971 239.623C154.236 239.331 154.501 239.049 154.777 238.776C154.615 238.338 154.471 237.872 154.354 237.371C153.778 234.895 153.214 232.632 155.518 230.472C157.593 228.526 159.737 228.22 162.832 229.787C165.24 231.08 166.945 233.494 167.59 236.629C168.54 241.221 165.304 244.506 160.901 243.75C159.811 243.565 158.88 243.228 158.061 242.773C157.719 243.127 157.379 243.481 157.028 243.83C147.614 253.272 139.193 263.414 133.684 275.965C131.058 281.946 129.752 287.927 129.786 294.197C129.791 295.136 129.593 296.276 130.9 296.99C131.606 296.248 132.384 295.433 133.159 294.614C137.005 290.526 141.012 286.593 144.643 282.314C149.647 276.419 155.896 272.08 161.133 266.499C163.098 264.401 165.371 262.595 167.611 260.834C167.659 260.797 167.699 260.791 167.747 260.754C166.322 258.598 166.167 255.578 167.381 252.991C168.532 250.528 171.832 248.898 174.828 249.217C181.893 249.968 182.848 258.562 180.577 263.045C179.961 264.255 178.03 265.318 176.67 265.5C175.146 265.71 173.586 265.05 172.219 264.712C172.055 265.02 171.875 265.326 171.613 265.634C170.284 267.184 169.04 268.843 167.568 270.223C160.402 276.943 153.164 283.588 145.966 290.279C142.164 293.81 138.268 297.245 135.212 301.818C140.263 305.789 145.559 304.188 150.624 301.622C165.003 294.327 176.161 282.729 186.166 269.711C187.309 268.222 188.331 266.634 189.446 265.123C189.64 264.863 189.853 264.627 190.07 264.435C189.527 263.386 189.053 262.303 188.7 261.191C187.36 256.976 190.177 253.4 194.483 253.327C200.506 253.23 204.539 260.867 201.528 266.661C199.872 269.857 195.731 270.899 193.134 268.676C192.554 270.229 191.545 271.587 190.586 272.925C186.487 278.664 181.566 283.629 176.735 288.658C170.814 294.818 164.07 299.855 156.956 304.245C153.094 306.627 149.025 308.358 144.67 309.012C143.808 309.142 142.683 308.95 142.482 310.48C144.584 312.433 147.131 313.375 149.999 313.747C157.032 314.664 163.852 313.601 170.457 309.84C181.043 303.823 189.727 295.34 197.485 285.65C198.122 284.854 198.65 283.955 199.287 283.158C199.839 282.469 200.437 282.025 201.072 281.864C200.639 281.276 200.166 280.707 199.749 280.102C198.44 278.201 198.519 276.22 199.826 274.065C201.684 271.005 204.361 270.304 209.3 272.491C209.848 273.414 211.31 275.08 211.905 277.099C212.764 280.049 211.286 283.364 209.118 284.641C207.842 285.39 205.9 285.554 204.249 284.956C204.171 285.359 204.043 285.764 203.841 286.174C203.169 287.543 202.265 288.836 201.31 290.024C194.826 298.053 187.465 305.109 179.2 310.896C173.157 315.133 166.741 318.459 159.475 319.27C148.784 320.467 140.176 316.766 132.71 309.826C130.26 307.548 130.142 307.522 127.923 310.397C123.119 316.616 119.018 323.253 115.336 330.138C115.861 329.973 116.424 329.874 116.968 329.79C119.171 329.456 121.372 329.053 123.565 328.633C131.329 327.135 139.032 326.228 146.56 328.327C148.484 328.865 150.57 328.874 152.558 329.235C159.787 330.53 166.988 331.92 172.082 338.369C170.558 341.996 169.983 342.972 166.609 343.83C162.263 344.941 157.787 345.948 153.433 346.027C140.964 346.259 129.364 342.877 118.104 338.442C116.84 337.947 115.542 337.2 114.681 336.166C114.164 335.552 113.677 334.72 113.397 333.877C111.674 337.277 110.04 340.72 108.468 344.206C104.157 353.806 101.71 363.926 99.4525 374.08C99.0714 375.791 99.0723 377.706 97.5592 379.291C96.4813 377.715 96.5821 376.004 96.6021 374.387C96.6906 366.971 97.6362 359.619 99.9469 352.372C102.895 343.111 106.749 334.316 111.322 325.888C110.631 325.795 109.957 325.582 109.303 325.138C108.675 324.701 108.099 324.151 107.61 323.549C102.799 317.525 98.3763 311.199 96.4871 303.235C95.056 297.195 93.6852 291.131 92.6494 284.975ZM149.273 212.686C148.937 213.049 148.594 213.414 148.262 213.775C149.26 214.78 150.257 215.786 151.251 216.788C151.534 214.503 151.118 212.952 149.273 212.686ZM160.906 234.921C159.745 237.019 159.881 238.284 162.535 237.835C161.905 236.703 161.405 235.811 160.906 234.921ZM172.164 254.55C173.586 256.558 174.534 257.909 175.486 259.259C176.581 256.185 175.917 254.596 172.164 254.55ZM195.339 259.736C195.538 261.142 195.738 262.556 195.938 263.97C197.889 261.927 197.24 260.645 195.339 259.736ZM205.534 276.456C205.336 276.6 205.132 276.746 204.933 276.895C205.328 277.684 205.722 278.476 206.117 279.265C206.434 279.07 206.749 278.867 207.071 278.668C206.563 277.928 206.046 277.189 205.534 276.456Z" fill="#F5E488" fill-opacity="0.4"/>
<path d="M195.822 325.525C198.603 321.042 201.86 317.05 206.632 314.977C206.945 315.284 207.262 315.593 207.577 315.906C204.525 319.893 201.525 323.923 198.366 327.816C197.941 328.336 196.718 328.149 195.86 328.287C195.831 327.347 195.417 326.171 195.822 325.525Z" fill="#F5E488" fill-opacity="0.4"/>
<path d="M200.76 312.797C196.278 317.401 194.457 323.095 189.636 327.538C188.613 321.298 194.081 314.147 200.76 312.797Z" fill="#F5E488" fill-opacity="0.4"/>
<path d="M204.382 327.095C203.635 334.279 196.24 339.502 190.95 336.463C193.469 335.164 195.833 334.259 197.886 332.819C200.117 331.249 202.058 329.176 204.382 327.095Z" fill="#F5E488" fill-opacity="0.4"/>
<path d="M193.356 341.561C197.578 339.445 201.873 337.293 206.963 334.742C202.119 342.4 196.647 344.753 193.356 341.561Z" fill="#F5E488" fill-opacity="0.4"/>
<path d="M166.599 313.904C166.055 313.001 165.434 312.132 164.736 311.355C161.219 307.414 161.278 307.19 166.692 305.11C169.606 303.98 172.593 303.051 175.215 301.099C175.948 300.554 176.768 299.943 176.396 298.889C176.068 297.945 175.155 297.686 174.311 297.9C171.966 298.52 169.655 299.359 167.312 299.989C164.301 300.801 161.299 302.532 158.025 301.565C158.416 300.691 158.563 300.24 158.808 299.853C162.335 294.372 165.976 288.975 169.356 283.407C170.919 280.839 174.064 278.179 171.712 274.981C170.419 273.215 167.76 275.089 164.321 280.325C161.258 284.996 158.336 289.742 155.375 294.472C154.763 295.446 154.245 296.678 153.028 296.683C151.241 296.69 151.502 294.912 151.303 293.722C151.011 291.992 151.074 290.156 150.789 288.417C150.446 286.27 150.278 283.477 147.333 284.034C144.927 284.485 144.928 286.849 144.725 289.003C144.477 291.778 145.415 294.731 143.522 297.4C140.85 297.068 139.349 294.983 137.101 294.377C136.594 294.246 135.691 294.487 135.337 294.901C134.981 295.304 134.821 296.277 135.026 296.767C136.04 299.236 138.148 300.668 140.016 302.357C142.016 304.158 141.677 305.631 139.118 306.819C137.908 307.376 136.584 307.632 135.311 307.997C133.392 308.548 131.447 308.963 129.57 309.658C128.265 310.135 127.156 311.114 127.429 312.743C127.689 314.306 128.923 314.85 130.279 314.651C132.216 314.36 134.128 313.71 136.066 313.282C138.727 312.704 141.395 311.387 144.241 311.918C142.351 319.808 134.689 324.983 134.702 333.352C137.82 333.668 139.281 331.923 140.567 329.92C142.186 327.371 143.674 324.739 145.358 322.232C146.805 320.068 148.1 320.158 149.035 322.483C149.503 323.674 149.732 325.007 149.916 326.307C150.127 327.841 150.103 329.446 151.042 330.7C151.582 331.418 152.294 331.799 153.242 331.556C154.193 331.31 154.889 330.644 154.943 329.66C155.022 328.319 154.922 326.977 154.809 325.661C154.448 321.269 154.058 316.89 153.627 312.078C159.273 311.641 162.256 316.208 167.345 316.26C166.994 315.083 166.907 314.412 166.599 313.904Z" fill="#F5E488" fill-opacity="0.3"/>
<path d="M427.421 221.565C422.372 222.731 417.348 224.141 411.649 225.621C416.931 214.84 426.629 207.868 429.846 196.761C423.57 197.873 422.287 204.228 418.782 208.144C414.907 212.476 411.496 217.24 407.881 221.813C407.599 214.91 408.318 208.412 408.904 201.903C409.122 199.438 409.332 196.893 408.941 194.55C408.752 193.417 407.162 192.675 406.207 191.753C405.257 192.893 403.984 193.921 403.429 195.223C402.923 196.413 403.234 197.893 403.117 199.241C402.42 207.311 401.704 215.367 400.947 224.056C392.897 220.381 389.248 211.348 380.262 209.584C380.46 214.19 380.416 214.245 381.883 215.53C384.888 218.139 387.963 220.661 390.961 223.28C393.682 225.651 396.339 228.1 399.608 231.047C397.159 231.907 395.924 232.35 394.684 232.789C387.118 235.482 379.506 238.038 371.997 240.932C368.808 242.158 365.312 243.65 365.416 248.559C370.697 249.507 374.852 245.829 379.388 244.479C383.983 243.114 388.467 241.187 393.002 239.503C389.171 246.306 384.489 251.935 380.435 257.982C376.321 264.121 370.162 268.97 368.282 276.68C375.97 273.849 379.474 266.645 384.004 260.618C388.613 254.475 393.298 248.412 398.582 242.702C398.487 250.973 397.186 259.039 399.174 266.986C403.649 265.601 403.526 262.517 403.672 259.267C403.995 251.953 404.57 244.61 405.113 236.23C409.982 240.224 413.828 243.415 417.718 246.559C421.593 249.693 425.377 252.999 429.978 254.975C430.283 254.583 430.589 254.182 430.886 253.789C423.787 247.141 416.67 240.49 409.007 233.313C420.22 227.224 431.963 226.413 443.344 219.282C436.973 217.555 432.213 220.449 427.421 221.565Z" fill="#F5E488" fill-opacity="0.3"/>
<path d="M303.628 304.226C307.991 302.7 312.291 300.479 316.306 297.966C320.678 295.218 320.72 291.668 316.14 288.465C314.994 288.16 313.02 287.172 310.948 287.166C302.159 287.172 293.347 287.101 284.523 287.73C272.427 288.591 260.924 293.151 249.484 297.818C252.515 292.49 255.355 287.031 258.021 281.446C260.249 276.758 260.285 276.715 264.543 277.813C268.077 278.726 271.776 279.067 275.406 278.25C285.982 275.874 296.282 272.553 305.705 265.922C328.777 249.696 342.256 227.144 349.496 200.354C349.744 199.448 349.953 198.517 350.091 197.588C351.25 197.598 352.418 197.57 353.58 197.515C358.911 197.272 361.35 193.087 359.715 187.978C357.479 180.928 346.415 177.587 339.93 182.028C339.013 182.652 338.223 183.51 337.605 184.063C335.958 187.133 336.364 189.552 337.797 191.895C339.179 194.138 340.927 195.521 342.884 196.369C342.73 197.118 342.642 197.879 342.439 198.605C337.556 215.853 330.816 232.154 318.358 245.847C306.603 258.776 292.874 267.624 276.771 271.947C275.154 272.386 273.385 273.199 271.051 271.1C284.505 264.715 293.319 254.193 300.437 241.836C302.757 237.809 305.966 234.256 307.568 229.875C310.992 220.545 314.183 211.143 317.458 201.765C317.632 201.26 317.794 200.761 317.937 200.254C318.563 200.161 319.211 200.028 319.883 199.84C323.2 198.908 326.257 198.099 327.318 193.951C328.274 190.216 327.238 187.469 323.356 184.816C320.247 182.801 316.266 182.351 312.12 183.632C306.045 185.502 304.257 191.492 308.03 196.228C308.961 197.402 309.969 198.288 311.045 198.965C310.848 199.602 310.649 200.237 310.464 200.881C305.395 218.23 298.847 234.856 287.535 249.596C282.144 256.622 275.893 262.078 268.422 266.133C267.304 266.741 266.079 267.72 264.377 266.634C264.797 265.311 265.257 263.854 265.724 262.398C268.069 255.161 270.124 247.832 272.836 240.725C276.571 230.931 277.645 220.674 280.855 210.808C282.063 207.104 282.724 203.225 283.353 199.413C283.366 199.333 283.348 199.281 283.36 199.2C286.852 199.485 290.541 197.697 292.821 194.565C294.995 191.59 294.776 186.606 292.44 183.254C286.935 175.352 276.103 179.83 272.26 185.455C271.226 186.977 271.223 189.965 271.895 191.7C272.641 193.647 274.443 195.07 275.738 196.472C275.479 196.868 275.233 197.281 275.038 197.794C274.065 200.384 272.907 202.946 272.229 205.595C268.925 218.497 265.758 231.434 262.511 244.354C260.798 251.177 259.262 258.048 255.826 264.664C247.81 261.257 246.253 253.92 245.995 246.228C245.27 224.383 251.761 203.555 260.692 183.168C261.715 180.838 262.934 178.587 264 176.277C264.182 175.875 264.323 175.469 264.41 175.086C266.01 175.046 267.607 174.902 269.158 174.595C275.04 173.435 277.449 167.753 274.724 162.589C270.906 155.372 259.2 155.568 254.283 162.929C251.568 166.983 253.035 172.582 257.371 174.216C255.905 175.919 254.95 178.004 253.987 180.017C249.847 188.634 247.162 197.722 244.343 206.745C240.892 217.801 239.312 229.102 238.744 240.419C238.436 246.563 239.036 252.526 241.103 258.126C241.512 259.235 242.474 260.447 240.788 261.685C237.096 260.463 234.313 258.052 231.999 254.888C226.317 247.133 223.127 238.337 223.28 228.035C223.516 211.53 227.922 195.674 234.366 180.132C234.896 178.855 235.618 177.64 236.149 176.363C236.608 175.257 236.745 174.257 236.521 173.398C237.502 173.528 238.487 173.718 239.479 173.819C242.591 174.132 244.892 172.745 246.599 169.785C249.02 165.58 248.105 161.942 242.282 157.503C240.828 157.455 237.895 156.806 235.108 157.417C231.042 158.323 228.07 162.244 227.968 165.653C227.911 167.658 228.984 170.073 230.774 171.643C230.345 171.999 229.948 172.416 229.593 172.922C228.406 174.615 227.46 176.533 226.672 178.443C221.369 191.39 217.795 204.742 216.316 218.338C215.23 228.284 215.468 238.078 219.25 247.238C224.81 260.719 234.827 268.528 247.947 272.866C252.253 274.289 252.36 274.412 250.395 278.925C246.144 288.693 240.938 297.899 235.163 306.769C235.017 306.037 234.767 305.304 234.512 304.603C233.469 301.768 232.511 298.89 231.577 296.01C228.287 285.81 224.334 276.066 216.926 268.495C215.029 266.561 213.657 264.088 211.93 261.963C205.67 254.221 199.317 246.574 188.329 244.734C185.016 248.913 184.233 250.234 185.416 254.803C186.935 260.69 188.661 266.665 191.411 271.889C199.278 286.852 210.87 298.423 223.491 308.904C224.905 310.082 226.639 311.136 228.431 311.484C229.498 311.696 230.804 311.732 231.988 311.514C229.075 315.78 226.051 319.97 222.937 324.114C214.348 335.504 203.925 345.019 193.336 354.332C191.553 355.902 189.278 357.151 188.383 359.984C190.959 360.235 192.926 358.998 194.834 357.918C203.585 352.971 211.701 347.047 218.801 339.569C227.878 330.019 235.808 319.698 242.833 308.762C243.395 309.521 244.088 310.183 245.043 310.67C245.972 311.131 247.001 311.456 248.036 311.644C258.334 313.424 268.736 314.548 279.431 311.591C287.54 309.347 295.638 307.016 303.628 304.226ZM352.524 189.755C352.313 190.391 352.103 191.037 351.891 191.668C350.046 191.138 348.199 190.611 346.359 190.085C348.89 188.255 351.003 187.737 352.524 189.755ZM318.515 190.456C316.781 193.206 315.189 193.87 313.988 190.424C315.745 190.434 317.131 190.446 318.515 190.456ZM287.846 189.901C284.532 189.523 282.308 189.279 280.083 189.03C283.019 185.722 285.341 185.473 287.846 189.901ZM266.551 165.758C264.75 166.44 262.94 167.126 261.13 167.811C262.283 164.16 264.23 164.093 266.551 165.758ZM240.032 164.566C239.99 164.894 239.949 165.232 239.903 165.567C238.707 165.613 237.509 165.662 236.313 165.708C236.339 165.203 236.373 164.697 236.4 164.184C237.611 164.305 238.827 164.437 240.032 164.566Z" fill="#F5E488" fill-opacity="0.3"/>
<path d="M188.084 208.144C191.593 201.914 194.209 195.437 193.556 188.416C192.987 188.244 192.413 188.069 191.834 187.9C189.091 194.129 186.263 200.324 183.702 206.618C183.361 207.464 184.382 208.794 184.779 209.903C185.914 209.324 187.581 209.048 188.084 208.144Z" fill="#F5E488" fill-opacity="0.3"/>
<path d="M199.98 193.969C197.438 202.3 191.862 208.181 189.734 216.809C197.813 213.949 202.738 202.784 199.98 193.969Z" fill="#F5E488" fill-opacity="0.3"/>
<path d="M180.629 199.003C172.583 204.582 171.208 216.777 178.272 221.076C178.171 217.236 177.701 213.837 178.072 210.457C178.48 206.782 179.675 203.122 180.629 199.003Z" fill="#F5E488" fill-opacity="0.3"/>
<path d="M170.645 221.546C170.402 215.149 170.153 208.641 169.859 200.93C163.925 211.684 164.704 219.722 170.645 221.546Z" fill="#F5E488" fill-opacity="0.3"/>
<path d="M289.654 216.359C289.265 215.845 288.831 215.356 288.356 214.928C285.963 212.757 285.984 212.617 289.144 211.002C290.844 210.128 292.602 209.369 294.072 208.013C294.483 207.634 294.943 207.209 294.648 206.592C294.387 206.039 293.815 205.94 293.315 206.124C291.929 206.653 290.577 207.312 289.191 207.847C287.412 208.535 285.697 209.781 283.642 209.404C283.824 208.847 283.884 208.563 284.008 208.312C285.801 204.75 287.669 201.231 289.367 197.626C290.152 195.962 291.895 194.141 290.258 192.347C289.357 191.356 287.86 192.667 286.104 196.074C284.542 199.114 283.07 202.19 281.573 205.259C281.263 205.891 281.028 206.674 280.287 206.756C279.201 206.875 279.245 205.776 279.047 205.065C278.758 204.031 278.678 202.91 278.393 201.87C278.045 200.586 277.763 198.897 276.007 199.426C274.572 199.856 274.725 201.294 274.74 202.618C274.769 204.322 275.529 206.058 274.549 207.804C272.902 207.775 271.855 206.603 270.448 206.379C270.131 206.331 269.597 206.537 269.408 206.811C269.217 207.079 269.183 207.681 269.339 207.966C270.115 209.403 271.49 210.139 272.736 211.046C274.068 212.013 273.957 212.932 272.477 213.819C271.777 214.236 270.987 214.477 270.236 214.781C269.104 215.24 267.947 215.618 266.85 216.162C266.087 216.536 265.475 217.203 265.746 218.177C266.005 219.111 266.791 219.363 267.603 219.154C268.763 218.852 269.884 218.334 271.036 217.948C272.618 217.425 274.157 216.452 275.923 216.591C275.281 221.514 270.952 225.156 271.499 230.248C273.417 230.24 274.194 229.083 274.847 227.782C275.668 226.126 276.404 224.429 277.266 222.795C278.007 221.385 278.801 221.357 279.52 222.711C279.881 223.405 280.107 224.202 280.303 224.981C280.53 225.901 280.619 226.879 281.271 227.582C281.646 227.984 282.104 228.17 282.665 227.961C283.227 227.749 283.608 227.299 283.577 226.697C283.539 225.876 283.392 225.066 283.238 224.273C282.735 221.624 282.216 218.984 281.644 216.084C285.051 215.454 287.16 218.041 290.26 217.745C289.971 217.051 289.875 216.649 289.654 216.359Z" fill="#F5E488" fill-opacity="0.3"/>
<path d="M372.407 201.642C374.963 200.432 377.436 198.804 379.718 197.016C382.201 195.062 381.998 192.899 379.005 191.245C378.287 191.134 377.022 190.66 375.762 190.789C370.414 191.36 365.048 191.885 359.719 192.836C352.415 194.139 345.71 197.655 339.05 201.231C340.551 197.794 341.927 194.29 343.189 190.72C344.243 187.724 344.262 187.695 346.923 188.089C349.132 188.417 351.405 188.386 353.561 187.655C359.843 185.528 365.896 182.843 371.203 178.201C384.195 166.842 390.944 152.252 393.623 135.484C393.715 134.917 393.782 134.337 393.807 133.763C394.512 133.695 395.221 133.602 395.925 133.494C399.153 133.002 400.367 130.299 399.043 127.296C397.228 123.15 390.281 121.83 386.621 124.95C386.104 125.389 385.678 125.962 385.338 126.338C384.534 128.312 384.936 129.758 385.959 131.091C386.945 132.367 388.097 133.095 389.343 133.485C389.298 133.951 389.293 134.42 389.216 134.875C387.356 145.684 384.306 156.037 377.608 165.171C371.289 173.795 363.505 180.064 353.986 183.732C353.03 184.103 352.006 184.712 350.451 183.585C358.225 178.833 362.91 171.863 366.445 163.885C367.597 161.286 369.321 158.917 370.013 156.148C371.496 150.251 372.831 144.324 374.22 138.407C374.293 138.089 374.36 137.775 374.414 137.457C374.789 137.36 375.174 137.237 375.571 137.079C377.53 136.299 379.338 135.609 379.716 133.018C380.057 130.683 379.249 129.079 376.717 127.714C374.695 126.688 372.244 126.672 369.803 127.718C366.228 129.247 365.525 133.007 368.127 135.646C368.769 136.3 369.439 136.774 370.137 137.116C370.059 137.517 369.979 137.916 369.908 138.32C367.941 149.203 365.028 159.741 359.095 169.439C356.267 174.061 352.815 177.784 348.531 180.732C347.89 181.174 347.207 181.848 346.102 181.297C346.272 180.466 346.458 179.549 346.649 178.633C347.609 174.079 348.387 169.487 349.579 164.988C351.221 158.788 351.214 152.478 352.531 146.268C353.027 143.936 353.18 141.533 353.317 139.174C353.319 139.124 353.305 139.093 353.308 139.044C355.45 138.992 357.58 137.666 358.765 135.613C359.896 133.663 359.442 130.645 357.805 128.756C353.946 124.303 347.644 127.725 345.668 131.396C345.136 132.388 345.327 134.206 345.848 135.218C346.428 136.355 347.616 137.105 348.494 137.875C348.362 138.132 348.239 138.4 348.153 138.724C347.728 140.363 347.188 141.996 346.946 143.652C345.768 151.715 344.674 159.791 343.531 167.861C342.928 172.123 342.436 176.403 340.772 180.65C335.675 179.093 334.255 174.73 333.602 170.066C331.754 156.821 334.361 143.729 338.482 130.75C338.954 129.266 339.551 127.818 340.05 126.343C340.135 126.087 340.195 125.831 340.223 125.592C341.194 125.465 342.156 125.274 343.08 124.987C346.585 123.902 347.684 120.29 345.693 117.324C342.905 113.178 335.795 114.052 333.278 118.848C331.887 121.489 333.14 124.802 335.884 125.516C335.102 126.647 334.655 127.977 334.199 129.264C332.235 134.774 331.187 140.477 330.053 146.148C328.666 153.098 328.433 160.076 328.816 166.998C329.025 170.756 329.774 174.346 331.393 177.621C331.713 178.269 332.376 178.944 331.43 179.806C329.105 179.301 327.256 178.013 325.644 176.237C321.688 171.884 319.179 166.738 318.609 160.46C317.689 150.402 319.348 140.47 322.268 130.598C322.508 129.787 322.869 129.001 323.11 128.19C323.318 127.488 323.337 126.87 323.145 126.362C323.75 126.378 324.362 126.43 324.972 126.428C326.886 126.418 328.197 125.425 329.044 123.514C330.247 120.799 329.456 118.645 325.627 116.319C324.738 116.384 322.912 116.178 321.255 116.729C318.84 117.543 317.284 120.12 317.442 122.201C317.537 123.424 318.345 124.824 319.535 125.665C319.297 125.909 319.083 126.188 318.899 126.519C318.286 127.626 317.834 128.854 317.478 130.066C315.085 138.285 313.77 146.64 313.747 155.008C313.727 161.13 314.503 167.074 317.394 172.403C321.646 180.248 328.244 184.354 336.507 186.148C339.218 186.736 339.292 186.805 338.387 189.677C336.429 195.895 333.855 201.831 330.913 207.6C330.776 207.164 330.577 206.734 330.377 206.325C329.56 204.667 328.791 202.977 328.037 201.285C325.378 195.291 322.345 189.617 317.349 185.487C316.071 184.433 315.077 183.017 313.889 181.835C309.581 177.528 305.223 173.284 298.419 172.872C296.672 175.629 296.281 176.483 297.295 179.187C298.598 182.671 300.034 186.195 302.044 189.196C307.795 197.794 315.594 204.087 323.948 209.652C324.884 210.277 326.007 210.807 327.12 210.903C327.783 210.964 328.58 210.901 329.287 210.692C327.789 213.476 326.219 216.22 324.591 218.942C320.099 226.426 314.37 232.887 308.527 239.236C307.543 240.306 306.239 241.213 305.878 242.994C307.461 242.981 308.578 242.101 309.669 241.322C314.675 237.747 319.232 233.62 323.07 228.612C327.978 222.217 332.138 215.425 335.708 208.319C336.099 208.745 336.563 209.103 337.176 209.338C337.77 209.558 338.417 209.69 339.059 209.737C345.44 210.157 351.842 210.17 358.158 207.682C362.948 205.794 367.725 203.854 372.407 201.642ZM394.782 128.84C394.695 129.241 394.609 129.647 394.52 130.045C393.363 129.841 392.206 129.64 391.053 129.438C392.474 128.162 393.727 127.71 394.782 128.84ZM374.134 131.458C373.256 133.243 372.33 133.749 371.378 131.73C372.447 131.623 373.292 131.541 374.134 131.458ZM355.438 133.096C353.397 133.08 352.028 133.075 350.658 133.067C352.231 130.865 353.628 130.564 355.438 133.096ZM340.925 119.778C339.873 120.31 338.816 120.843 337.759 121.377C338.225 119.081 339.405 118.915 340.925 119.778ZM324.712 120.762C324.708 120.964 324.705 121.173 324.698 121.379C323.973 121.484 323.248 121.591 322.523 121.696C322.506 121.388 322.495 121.077 322.478 120.764C323.222 120.759 323.971 120.761 324.712 120.762Z" fill="#F5E488" fill-opacity="0.3"/>
<path d="M295.917 150.625C297.651 146.607 298.826 142.498 297.976 138.268C297.618 138.2 297.258 138.131 296.895 138.065C295.627 142.032 294.305 145.984 293.153 149.979C293 150.515 293.707 151.259 294.02 151.908C294.673 151.482 295.67 151.207 295.917 150.625Z" fill="#F5E488" fill-opacity="0.3"/>
<path d="M302.238 141.234C301.228 146.467 298.214 150.405 297.475 155.792C302.207 153.531 304.484 146.42 302.238 141.234Z" fill="#F5E488" fill-opacity="0.3"/>
<path d="M290.789 145.543C286.253 149.456 286.202 156.965 290.777 159.125C290.468 156.795 289.963 154.757 289.971 152.677C289.983 150.415 290.474 148.111 290.789 145.543Z" fill="#F5E488" fill-opacity="0.3"/>
<path d="M286.168 159.904C285.607 156.027 285.037 152.084 284.361 147.41C281.444 154.336 282.435 159.176 286.168 159.904Z" fill="#F5E488" fill-opacity="0.3"/>
<g clip-path="url(#clip0_1442_22)">
<path d="M255.177 163.002C255.583 163.212 255.976 163.457 256.332 163.738C258.136 165.152 258.231 165.121 258.982 162.719C259.391 161.426 259.711 160.107 260.484 158.917C260.699 158.585 260.942 158.213 261.408 158.345C261.826 158.461 261.963 158.849 261.894 159.221C261.69 160.253 261.391 161.277 261.183 162.309C260.914 163.635 260.248 164.983 260.756 166.374C261.124 166.18 261.315 166.104 261.476 165.988C263.752 164.309 265.988 162.584 268.306 160.967C269.375 160.219 270.44 158.783 271.89 159.714C272.69 160.225 271.952 161.428 269.78 163.062C267.841 164.517 265.867 165.913 263.901 167.325C263.496 167.618 262.977 167.876 263.008 168.403C263.055 169.177 263.817 169.015 264.338 169.068C265.095 169.147 265.888 169.069 266.649 169.144C267.588 169.233 268.802 169.229 268.642 170.52C268.513 171.574 267.49 171.639 266.563 171.786C265.368 171.97 264.063 171.646 262.96 172.539C263.177 173.687 264.122 174.279 264.446 175.236C264.517 175.451 264.437 175.849 264.268 176.014C264.103 176.179 263.686 176.275 263.469 176.2C262.371 175.829 261.693 174.956 260.91 174.193C260.075 173.377 259.447 173.565 259.003 174.706C258.795 175.245 258.721 175.825 258.598 176.386C258.412 177.233 258.286 178.086 258.037 178.918C257.867 179.497 257.473 180.004 256.76 179.93C256.077 179.861 255.807 179.341 255.856 178.749C255.928 177.902 256.157 177.057 256.289 176.205C256.466 175.037 256.962 173.846 256.654 172.628C253.29 173.664 251.26 177.124 247.636 177.35C247.413 176.008 248.128 175.327 248.96 174.716C250.019 173.944 251.118 173.227 252.157 172.429C253.054 171.743 252.979 171.184 251.947 170.843C251.418 170.674 250.835 170.611 250.267 170.568C249.596 170.519 248.902 170.573 248.333 170.201C248.008 169.987 247.823 169.689 247.902 169.272C247.982 168.854 248.252 168.534 248.676 168.484C249.255 168.412 249.838 168.418 250.411 168.431C252.323 168.466 254.23 168.514 256.325 168.568C256.359 166.111 254.299 164.946 254.136 162.743C254.656 162.863 254.948 162.882 255.177 163.002Z" fill="#F5E488" fill-opacity="0.4"/>
<path d="M287.963 47.5177C287.597 49.7361 287.126 51.9503 286.642 54.4587C291.164 51.8742 293.915 47.4825 298.636 45.7834C298.328 48.5314 295.611 49.2623 294.013 50.8882C292.244 52.6853 290.275 54.2938 288.395 55.9853C291.391 55.9169 294.185 55.4263 296.987 54.9929C298.049 54.8307 299.145 54.6695 300.17 54.7742C300.666 54.8246 301.031 55.4927 301.457 55.8808C300.989 56.3237 300.58 56.9032 300.031 57.1793C299.53 57.4313 298.88 57.3377 298.3 57.4252C294.825 57.9497 291.356 58.4822 287.615 59.0499C289.428 62.4339 293.44 63.7646 294.452 67.6069C292.452 67.6484 292.429 67.6691 291.833 67.069C290.62 65.8399 289.443 64.5783 288.226 63.3521C287.125 62.2394 285.991 61.1565 284.624 59.8223C284.32 60.9063 284.162 61.4533 284.006 62.0026C283.049 65.3529 282.152 68.7195 281.106 72.0509C280.663 73.4655 280.114 75.0202 277.985 75.1108C277.429 72.8501 278.907 70.9496 279.366 68.9481C279.831 66.921 280.541 64.926 281.146 62.916C278.305 64.7626 275.997 66.9451 273.49 68.8675C270.946 70.8181 269.016 73.6189 265.73 74.6456C266.743 71.2386 269.766 69.5225 272.251 67.395C274.783 65.2296 277.279 63.0337 279.606 60.588C276.028 60.8577 272.571 61.6432 269.075 61.002C269.551 59.026 270.89 58.9942 272.293 58.8412C275.451 58.4997 278.615 58.048 282.228 57.5817C280.365 55.5837 278.877 54.0062 277.408 52.4088C275.944 50.8171 274.408 49.27 273.426 47.3323C273.587 47.1895 273.752 47.0459 273.914 46.9064C276.989 49.7968 280.065 52.695 283.384 55.8149C285.711 50.792 285.739 45.6846 288.512 40.56C289.436 43.2707 288.314 45.4119 287.963 47.5177Z" fill="#F5E488" fill-opacity="0.4"/>
<path d="M255.588 103.402C256.128 101.471 256.971 99.5479 257.949 97.74C259.018 95.7709 260.554 95.6549 262.068 97.5496C262.231 98.0377 262.714 98.8652 262.773 99.7619C263.013 103.568 263.287 107.381 263.258 111.22C263.219 116.481 261.562 121.588 259.857 126.67C262.08 125.21 264.365 123.83 266.71 122.522C268.679 121.428 268.696 121.411 268.103 119.597C267.611 118.093 267.361 116.5 267.614 114.906C268.351 110.261 269.505 105.709 272.117 101.446C278.506 91.0082 287.899 84.5497 299.299 80.6753C299.685 80.5431 300.082 80.4271 300.481 80.3416C300.444 79.84 300.424 79.3334 300.416 78.8289C300.374 76.5139 302.119 75.3421 304.376 75.9091C307.491 76.683 309.243 81.3816 307.499 84.3121C307.254 84.7263 306.904 85.092 306.682 85.3747C305.398 86.1725 304.339 86.0636 303.285 85.5079C302.276 84.9713 301.629 84.2527 301.208 83.4286C300.887 83.5157 300.56 83.5751 300.251 83.6829C292.918 86.2733 286.045 89.6415 280.46 95.4136C275.186 100.86 271.734 107.049 270.306 114.141C270.161 114.853 269.857 115.642 270.831 116.594C273.224 110.593 277.537 106.486 282.691 103.063C284.371 101.947 285.821 100.46 287.673 99.645C291.619 97.905 295.602 96.2639 299.572 94.5869C299.786 94.4977 299.998 94.4138 300.213 94.3378C300.237 94.0641 300.276 93.78 300.339 93.4839C300.651 92.0217 300.917 90.6758 302.684 90.1019C304.275 89.5849 305.493 89.9579 306.749 91.5654C307.707 92.8561 308.011 94.5674 307.572 96.3981C306.929 99.0799 304.385 100.02 302.23 98.5164C301.696 98.1457 301.285 97.7339 300.962 97.2867C300.692 97.3892 300.422 97.4929 300.148 97.5908C292.776 100.265 285.757 103.559 279.687 108.864C276.794 111.391 274.603 114.249 273.054 117.596C272.822 118.097 272.431 118.654 272.949 119.361C273.51 119.143 274.128 118.903 274.746 118.661C277.815 117.446 280.931 116.354 283.934 114.983C288.072 113.096 292.483 112.348 296.667 110.686C298.237 110.061 299.899 109.667 301.532 109.29C301.566 109.282 301.589 109.288 301.624 109.281C301.404 107.777 302.077 106.13 303.37 105.056C304.598 104.033 306.762 103.99 308.278 104.909C311.852 107.075 310.212 111.889 307.882 113.708C307.251 114.198 305.958 114.281 305.188 114.038C304.324 113.769 303.658 113.028 303.015 112.506C302.851 112.629 302.679 112.747 302.462 112.846C301.368 113.338 300.29 113.91 299.162 114.277C293.667 116.063 288.152 117.792 282.647 119.554C279.74 120.484 276.807 121.339 274.037 123.009C275.734 126.386 278.954 126.858 282.292 126.758C291.77 126.469 300.61 123.083 309.191 118.654C310.172 118.147 311.113 117.557 312.084 117.031C312.253 116.941 312.425 116.869 312.588 116.821C312.561 116.127 312.58 115.432 312.67 114.751C313.01 112.172 315.404 110.973 317.715 112.01C320.945 113.464 321.183 118.538 318.132 120.871C316.451 122.158 313.986 121.677 313.159 119.845C312.462 120.526 311.586 120.997 310.741 121.47C307.124 123.501 303.263 124.914 299.433 126.383C294.741 128.183 289.892 129.179 285.007 129.737C282.355 130.04 279.757 129.944 277.274 129.204C276.783 129.057 276.232 128.674 275.742 129.439C276.373 131.004 277.494 132.142 278.928 133.057C282.443 135.303 286.339 136.442 290.796 136.091C297.936 135.534 304.68 133.188 311.232 129.969C311.771 129.704 312.277 129.358 312.815 129.093C313.281 128.864 313.711 128.777 314.088 128.85C314.005 128.429 313.896 128.008 313.825 127.581C313.603 126.242 314.14 125.207 315.375 124.387C317.129 123.222 318.729 123.518 320.812 125.917C320.873 126.546 321.235 127.798 321.047 129.021C320.767 130.807 319.151 132.202 317.678 132.34C316.812 132.42 315.736 132.022 315.007 131.29C314.865 131.486 314.695 131.669 314.486 131.837C313.785 132.398 312.981 132.86 312.176 133.254C306.716 135.908 301.033 137.824 295.187 138.839C290.91 139.584 286.663 139.751 282.592 138.366C276.601 136.331 272.944 132.208 270.703 126.647C269.968 124.822 269.912 124.779 268.012 125.754C263.9 127.865 260.057 130.373 256.376 133.118C256.697 133.161 257.021 133.249 257.332 133.34C258.588 133.714 259.861 134.049 261.134 134.374C265.641 135.517 269.969 136.96 273.452 139.959C274.342 140.727 275.45 141.253 276.418 141.942C279.943 144.439 283.429 146.979 284.529 151.686C282.811 153.236 282.261 153.611 280.25 153.225C277.659 152.73 275.024 152.147 272.686 151.101C265.99 148.107 260.66 143.407 255.774 138.231C255.225 137.651 254.72 136.929 254.52 136.163C254.399 135.707 254.347 135.142 254.409 134.624C252.642 136.003 250.911 137.428 249.203 138.891C244.508 142.924 240.675 147.7 236.935 152.541C236.304 153.357 235.826 154.377 234.624 154.842C234.444 153.734 234.926 152.848 235.341 151.992C237.242 148.066 239.583 144.389 242.625 141.108C246.51 136.914 250.76 133.196 255.301 129.852C254.957 129.63 254.651 129.348 254.414 128.948C254.189 128.558 254.02 128.121 253.91 127.678C252.855 123.269 252.081 118.795 253.066 114.083C253.814 110.51 254.601 106.939 255.588 103.402ZM303.805 79.0718C303.536 79.1809 303.262 79.2897 302.995 79.399C303.275 80.1832 303.554 80.9684 303.833 81.7503C304.555 80.6042 304.721 79.6747 303.805 79.0718ZM304.44 93.8174C303.297 94.6442 303.054 95.3516 304.579 95.7764C304.526 95.016 304.483 94.4161 304.44 93.8174ZM305.527 107.082C305.782 108.506 305.949 109.463 306.118 110.419C307.469 109.057 307.513 108.044 305.527 107.082ZM316.568 115.636C316.322 116.435 316.076 117.238 315.829 118.04C317.378 117.44 317.353 116.596 316.568 115.636ZM317.816 127.086C317.675 127.114 317.53 127.141 317.386 127.17C317.399 127.689 317.411 128.209 317.424 128.728C317.642 128.703 317.86 128.674 318.081 128.649C317.996 128.127 317.905 127.605 317.816 127.086Z" fill="#F5E488" fill-opacity="0.4"/>
<path d="M300.379 150.782C302.98 149.09 305.712 147.779 308.771 147.868C308.861 148.11 308.952 148.354 309.042 148.599C306.42 149.959 303.816 151.355 301.161 152.637C300.804 152.808 300.2 152.403 299.709 152.262C299.928 151.754 300.001 151.024 300.379 150.782Z" fill="#F5E488" fill-opacity="0.4"/>
<path d="M306.189 145.24C302.652 146.571 300.26 149.148 296.582 150.307C297.598 146.73 302.296 144.289 306.189 145.24Z" fill="#F5E488" fill-opacity="0.4"/>
<path d="M304.543 153.758C302.35 157.396 297.107 158.328 295.051 155.388C296.716 155.326 298.201 155.435 299.654 155.182C301.235 154.904 302.786 154.285 304.543 153.758Z" fill="#F5E488" fill-opacity="0.4"/>
<path d="M295.057 158.703C297.834 158.632 300.659 158.56 304.006 158.475C299.513 161.341 296.011 161.226 295.057 158.703Z" fill="#F5E488" fill-opacity="0.4"/>
</g>
<path d="M353.31 132.9C353.114 132.534 352.886 132.181 352.627 131.862C351.32 130.247 351.347 130.16 353.515 129.446C354.681 129.058 355.873 128.749 356.941 128.032C357.239 127.832 357.573 127.608 357.447 127.187C357.336 126.809 356.982 126.69 356.646 126.758C355.713 126.957 354.789 127.242 353.856 127.445C352.657 127.707 351.445 128.329 350.176 127.887C350.347 127.551 350.413 127.377 350.517 127.229C352.008 125.143 353.542 123.092 354.976 120.968C355.64 119.989 356.926 119.003 356.063 117.702C355.589 116.983 354.508 117.669 353.056 119.66C351.764 121.438 350.525 123.247 349.271 125.049C349.011 125.42 348.785 125.894 348.306 125.873C347.604 125.842 347.74 125.148 347.685 124.677C347.603 123.991 347.663 123.271 347.584 122.582C347.491 121.732 347.478 120.631 346.31 120.794C345.356 120.925 345.311 121.854 345.19 122.696C345.04 123.782 345.352 124.961 344.557 125.973C343.513 125.792 342.963 124.944 342.091 124.663C341.895 124.601 341.535 124.679 341.388 124.835C341.24 124.986 341.159 125.366 341.23 125.562C341.581 126.552 342.383 127.155 343.085 127.854C343.836 128.6 343.675 129.173 342.646 129.59C342.16 129.786 341.635 129.861 341.128 129.98C340.363 130.161 339.591 130.286 338.84 130.524C338.318 130.686 337.863 131.05 337.94 131.695C338.012 132.314 338.487 132.552 339.023 132.499C339.79 132.422 340.553 132.203 341.323 132.072C342.38 131.896 343.454 131.429 344.562 131.692C343.669 134.756 340.559 136.644 340.404 139.933C341.623 140.117 342.231 139.459 342.774 138.696C343.459 137.725 344.094 136.72 344.804 135.766C345.414 134.944 345.921 135.004 346.244 135.935C346.405 136.412 346.47 136.941 346.517 137.455C346.571 138.062 346.531 138.692 346.876 139.203C347.074 139.495 347.347 139.659 347.724 139.581C348.102 139.503 348.388 139.254 348.429 138.869C348.485 138.343 348.472 137.814 348.452 137.295C348.394 135.562 348.325 133.834 348.247 131.934C350.474 131.87 351.559 133.722 353.558 133.84C353.443 133.37 353.422 133.105 353.31 132.9Z" fill="#F5E488" fill-opacity="0.4"/>
<path d="M407.343 131.715C409.087 131.199 410.819 130.409 412.445 129.498C414.215 128.501 414.3 127.107 412.561 125.761C412.116 125.619 411.36 125.193 410.546 125.151C407.092 124.986 403.63 124.79 400.151 124.868C395.381 124.975 390.773 126.547 386.188 128.163C387.481 126.127 388.702 124.036 389.856 121.892C390.821 120.092 390.836 120.076 392.489 120.589C393.86 121.015 395.307 121.22 396.749 120.968C400.95 120.237 405.061 119.128 408.891 116.703C418.268 110.767 423.995 102.163 427.353 91.7732C427.467 91.4219 427.567 91.0598 427.639 90.6976C428.094 90.7238 428.554 90.735 429.012 90.7357C431.111 90.742 432.15 89.1441 431.605 87.1051C430.861 84.2916 426.577 82.7674 423.943 84.3886C423.571 84.6164 423.244 84.9387 422.991 85.1441C422.285 86.3191 422.398 87.2774 422.917 88.2254C423.417 89.1332 424.077 89.71 424.83 90.0807C424.756 90.3723 424.706 90.6696 424.613 90.9511C422.364 97.6358 419.404 103.913 414.247 109.056C409.381 113.912 403.816 117.126 397.406 118.518C396.762 118.659 396.051 118.945 395.174 118.075C400.583 115.823 404.248 111.857 407.281 107.137C408.27 105.599 409.599 104.264 410.312 102.573C411.836 98.9721 413.269 95.3383 414.736 91.7155C414.814 91.5205 414.887 91.3274 414.953 91.1309C415.201 91.1061 415.458 91.0663 415.725 91.0052C417.047 90.7023 418.263 90.4428 418.76 88.8333C419.207 87.3837 418.852 86.2845 417.377 85.1676C416.194 84.3163 414.638 84.0637 412.984 84.4876C410.562 85.1066 409.744 87.4261 411.137 89.3596C411.48 89.8386 411.859 90.2059 412.269 90.4924C412.18 90.739 412.089 90.9848 412.004 91.2345C409.681 97.9552 406.79 104.364 402.063 109.94C399.81 112.598 397.249 114.623 394.236 116.073C393.785 116.291 393.285 116.652 392.637 116.193C392.827 115.681 393.036 115.117 393.247 114.554C394.307 111.755 395.254 108.914 396.456 106.173C398.111 102.396 398.729 98.3854 400.179 94.5696C400.724 93.1371 401.058 91.6254 401.378 90.1397C401.385 90.1082 401.379 90.0875 401.385 90.056C402.752 90.2347 404.236 89.6024 405.192 88.4152C406.103 87.2876 406.112 85.3249 405.258 83.9632C403.245 80.7526 398.903 82.3053 397.286 84.4426C396.85 85.0207 396.792 86.1949 397.023 86.8894C397.279 87.6689 397.96 88.2624 398.442 88.8383C398.333 88.9889 398.228 89.1466 398.141 89.3444C397.71 90.3437 397.206 91.3283 396.889 92.3563C395.344 97.3631 393.852 102.387 392.329 107.402C391.526 110.05 390.791 112.721 389.314 115.255C386.229 113.763 385.757 110.85 385.803 107.822C385.936 99.2244 388.885 91.1634 392.783 83.3229C393.23 82.4267 393.752 81.5655 394.215 80.6778C394.294 80.5236 394.358 80.3667 394.399 80.2176C395.029 80.2327 395.659 80.2065 396.274 80.1154C398.608 79.772 399.663 77.5852 398.691 75.504C397.328 72.5949 392.725 72.448 390.652 75.2469C389.507 76.788 389.977 79.0166 391.649 79.7414C391.041 80.3825 390.626 81.1837 390.209 81.9563C388.417 85.2635 387.189 88.7835 385.909 92.2753C384.341 96.5542 383.504 100.965 383.064 105.401C382.826 107.81 382.948 110.165 383.653 112.405C383.793 112.848 384.148 113.343 383.461 113.797C382.034 113.247 380.987 112.246 380.138 110.958C378.053 107.802 376.967 104.285 377.225 100.239C377.632 93.7578 379.667 87.611 382.496 81.6265C382.729 81.1348 383.036 80.6714 383.269 80.1796C383.47 79.7537 383.543 79.3632 383.472 79.0217C383.855 79.0913 384.238 79.185 384.626 79.2436C385.843 79.4261 386.774 78.9248 387.501 77.7943C388.533 76.1879 388.243 74.7411 386.04 72.8854C385.469 72.8388 384.329 72.5276 383.222 72.7146C381.607 72.9928 380.364 74.4769 380.259 75.8145C380.198 76.6013 380.574 77.5707 381.247 78.2221C381.071 78.3537 380.908 78.51 380.758 78.7022C380.259 79.3449 379.851 80.0805 379.505 80.816C377.173 85.8021 375.514 90.9808 374.673 96.2956C374.056 100.183 373.963 104.036 375.274 107.708C377.201 113.113 380.988 116.373 386.061 118.328C387.726 118.969 387.766 119.02 386.908 120.756C385.05 124.513 382.829 128.031 380.39 131.406C380.346 131.116 380.262 130.823 380.175 130.543C379.82 129.409 379.498 128.26 379.186 127.11C378.088 123.039 376.721 119.134 373.954 116.017C373.246 115.221 372.754 114.223 372.116 113.355C369.804 110.193 367.453 107.067 363.171 106.134C361.789 107.713 361.456 108.217 361.833 110.035C362.318 112.377 362.882 114.758 363.863 116.863C366.668 122.894 371.003 127.663 375.762 132.022C376.295 132.512 376.957 132.96 377.654 133.131C378.069 133.235 378.582 133.274 379.051 133.21C377.825 134.831 376.557 136.42 375.254 137.989C371.661 142.301 367.383 145.841 363.044 149.298C362.313 149.881 361.395 150.329 360.99 151.425C361.997 151.573 362.794 151.124 363.564 150.736C367.098 148.959 370.4 146.786 373.333 143.983C377.082 140.404 380.396 136.499 383.366 132.336C383.572 132.645 383.832 132.919 384.198 133.128C384.554 133.327 384.952 133.475 385.355 133.568C389.368 134.465 393.434 135.105 397.693 134.147C400.923 133.42 404.15 132.659 407.343 131.715ZM428.745 87.666C428.65 87.9118 428.555 88.1616 428.46 88.4055C427.745 88.162 427.029 87.9197 426.316 87.6778C427.345 87.0071 428.186 86.8439 428.745 87.666ZM415.367 87.2915C414.633 88.3392 413.995 88.5695 413.589 87.1925C414.279 87.2298 414.823 87.261 415.367 87.2915ZM403.326 86.4875C402.03 86.2756 401.161 86.1372 400.291 85.9969C401.509 84.7529 402.426 84.6996 403.326 86.4875ZM395.419 76.5929C394.698 76.8267 393.974 77.0614 393.249 77.2961C393.772 75.8835 394.538 75.8945 395.419 76.5929ZM385.02 75.6179C384.997 75.7461 384.975 75.8782 384.95 76.0088C384.479 76.0039 384.008 76.0003 383.537 75.9954C383.557 75.7978 383.58 75.5993 383.6 75.3985C384.074 75.4689 384.549 75.544 385.02 75.6179Z" fill="#F5E488" fill-opacity="0.4"/>
<path d="M363.777 91.7515C365.275 89.37 366.427 86.8749 366.305 84.1033C366.084 84.0249 365.862 83.9451 365.638 83.8676C364.441 86.263 363.211 88.6435 362.084 91.0681C361.935 91.3938 362.31 91.9361 362.445 92.3795C362.902 92.1737 363.563 92.0971 363.777 91.7515Z" fill="#F5E488" fill-opacity="0.4"/>
<path d="M368.721 86.4082C367.562 89.6335 365.259 91.8379 364.258 95.1881C367.487 94.2186 369.636 89.925 368.721 86.4082Z" fill="#F5E488" fill-opacity="0.4"/>
<path d="M361.021 88.0166C357.752 90.055 356.979 94.8211 359.673 96.6454C359.706 95.1346 359.587 93.7898 359.797 92.4688C360.027 91.0323 360.567 89.6171 361.021 88.0166Z" fill="#F5E488" fill-opacity="0.4"/>
<path d="M356.667 96.6851C356.693 94.1664 356.72 91.6045 356.752 88.5684C354.215 92.6812 354.367 95.8545 356.667 96.6851Z" fill="#F5E488" fill-opacity="0.4"/>
<defs>
<clipPath id="clip0_1442_22">
<rect width="132.389" height="147.039" fill="white" transform="matrix(-0.599354 -0.800484 -0.800484 0.599354 378.051 126.977)"/>
</clipPath>
</defs>
</svg>
