<svg width="459" height="450" viewBox="0 0 459 450" fill="none" xmlns="http://www.w3.org/2000/svg">
<g clip-path="url(#clip0_1442_21)">
<path d="M325.141 236.981C321.836 236.185 317.971 237.147 314.695 239.35C314.531 240.375 314.094 241.501 313.842 242.029C313.63 242.479 313.387 242.897 313.133 243.302C312.884 243.412 312.648 243.516 312.449 243.598C311.712 243.903 310.837 244.235 309.989 244.653C310.75 243.775 311.425 242.793 311.958 241.671C312.209 241.145 312.644 240.018 312.81 238.994C312.937 238.205 312.902 237.479 312.497 237.137C311.493 236.3 309.934 238.676 309.384 239.506C308.24 241.249 307.588 243.382 307.136 245.484C307.111 245.544 307.089 245.611 307.087 245.668C299.796 246.127 292.21 246.452 285.083 249.139C289.191 245.384 293.181 241.427 297.103 237.391C302.111 232.233 307.176 226.97 311.15 220.584C312.305 221.162 313.677 221.246 314.972 221.105C315.922 221.004 317.715 220.075 318.361 218.716C318.545 218.33 318.64 217.907 318.591 217.459C318.367 215.488 316.119 215.64 313.955 216.279C315.74 213.98 317.119 211.03 315.71 209.317C315.123 208.598 314.342 209.032 313.544 209.988C314.82 207.609 316.371 205.492 317.378 206.723C318.787 208.433 317.407 211.382 315.623 213.683C317.785 213.046 320.035 212.894 320.257 214.862C320.306 215.309 320.211 215.733 320.026 216.122C322.11 215.155 324.069 213.259 325.804 210.483C329.064 205.272 332.197 197.283 330.845 190.988C329.349 184.018 320.789 188.201 317.414 190.822C313.418 193.925 311.11 199.096 310.533 204.418C312.844 202.808 313.298 206.836 313.169 210.474C312.587 211.275 312.007 212.301 311.491 213.322C311.651 209.62 311.23 205.37 308.863 207.014C308.858 207.019 308.85 207.023 308.841 207.026C305.782 209.191 307.696 216.583 309.544 219.224C309.641 219.363 309.757 219.478 309.866 219.606C303.328 229.956 294.228 238.723 285.461 246.565C289.176 238.79 287.08 228.638 289.817 219.424C292.098 219.012 294.749 217.481 296.075 214.98C296.502 214.176 297.577 211.562 296.115 211.466C296.095 211.468 296.082 211.46 296.063 211.462C294.926 211.441 293.622 213.179 292.822 214.043C292.124 214.806 291.384 215.62 290.718 216.49C291.003 214.477 291.08 212.414 290.868 210.45C290.77 209.522 289.826 206.5 288.64 207.093C288.591 206.022 288.674 204.92 289.209 204.25C290.59 202.529 291.761 206.199 291.872 207.241C292.082 209.206 292.009 211.266 291.723 213.282C292.388 212.412 293.129 211.598 293.828 210.837C294.628 209.969 295.932 208.232 297.067 208.25C297.087 208.251 297.102 208.257 297.118 208.257C297.86 206.305 298.289 204.07 298.431 201.694C298.735 196.649 298.379 188.923 294.525 186.244C290.085 183.161 284.893 192.202 283.588 196.446C282.325 200.529 282.726 204.87 284.175 208.542C285.153 208.298 286.642 209.301 287.185 209.774C287.341 209.907 287.487 210.056 287.634 210.204C287.666 211.047 287.785 211.875 287.848 212.464C287.946 213.38 288.037 214.458 288.203 215.512C287.644 214.546 286.985 213.678 286.18 212.983C285.64 212.51 284.152 211.509 283.173 211.751C282.951 211.806 282.755 211.927 282.603 212.128C281.711 213.317 283.323 215.319 283.891 216.017C285.08 217.503 286.702 218.397 288.333 219.041C285.269 229.542 288.901 241.563 281.989 249.655C281.482 250.099 280.976 250.541 280.474 250.986C273.239 257.351 265.774 262.708 257.911 267C263.585 259.776 265.918 250.478 267.877 241.056C269.993 240.976 272.392 240.053 273.891 238.107C274.438 237.399 275.928 234.986 274.437 234.595C274.378 234.581 274.316 234.585 274.254 234.579C273.177 234.473 271.76 235.761 270.904 236.396C270.105 236.992 269.262 237.623 268.48 238.337C268.733 237.52 268.939 236.681 269.114 235.838C269.844 235.191 270.615 234.602 271.35 234.053C272.209 233.417 273.624 232.129 274.703 232.237L274.704 232.231C275.603 230.212 275.81 227.998 275.844 225.812C275.898 222.09 274.904 215.612 271.385 214.754C267.13 213.716 263.6 219.275 262.706 223.86C262.349 225.688 262.355 227.636 262.666 229.493C263.602 229.688 264.699 230.864 265.106 231.409C265.61 232.078 266.015 232.827 266.353 233.624C266.352 233.627 266.352 233.627 266.351 233.632C266.302 234.565 266.215 235.664 266.208 236.754C265.822 235.659 265.325 234.637 264.66 233.752C264.251 233.207 263.153 232.036 262.218 231.838C261.896 231.77 261.591 231.817 261.34 232.048C260.293 233.021 261.536 235.396 261.967 236.234C262.996 238.219 264.663 239.588 266.33 240.685C266.398 240.727 266.467 240.734 266.532 240.732C264.263 250.828 262.121 260.391 255.575 268.224C255.572 268.229 255.571 268.234 255.568 268.237C251.56 270.295 247.45 272.082 243.212 273.587C242.603 273.801 242.692 274.891 243.325 274.755C248.155 273.729 252.894 271.861 257.509 269.449C269.763 267.874 280.256 276.389 292.341 275.633C292.131 277.909 292.418 280.338 293.471 282.018C293.916 282.73 295.524 284.709 296.19 282.932C296.217 282.863 296.225 282.787 296.247 282.711C296.584 281.412 295.869 279.6 295.554 278.513C295.261 277.508 294.946 276.438 294.551 275.436C295.984 276.299 297.543 276.931 299.145 277.212C299.991 277.354 303.282 276.981 302.574 274.956C303.168 275.2 303.681 275.56 303.895 276.149C304.646 278.2 301.324 278.58 300.474 278.433C298.871 278.154 297.314 277.523 295.88 276.657C296.272 277.658 296.589 278.733 296.885 279.737C297.201 280.821 297.914 282.638 297.575 283.935C297.575 283.935 297.575 283.935 297.577 283.935C299 285.165 300.75 285.58 302.516 285.773C305.519 286.102 311.004 285.358 312.523 281.151C314.356 276.071 310.674 271.385 307.167 269.978C305.765 269.415 304.187 269.28 302.607 269.53C302.229 270.648 301.021 271.898 300.489 272.352C300.083 272.699 299.658 272.991 299.229 273.251C299.097 273.231 298.969 273.214 298.858 273.196C298.112 273.062 297.244 272.885 296.363 272.796C297.339 272.403 298.283 271.875 299.158 271.131C299.693 270.674 300.901 269.427 301.278 268.306C301.408 267.92 301.443 267.549 301.311 267.232C300.77 265.888 298.553 267.22 297.772 267.689C295.924 268.795 294.425 270.72 293.147 272.666C293.082 272.756 293.057 272.858 293.043 272.956C292.896 273.026 292.77 273.178 292.707 273.434C292.684 273.529 292.666 273.635 292.647 273.733C281.91 273.291 271.681 266.861 260.918 267.563C267.661 263.613 274.111 258.621 280.15 253.507C280.822 252.932 281.481 252.328 282.153 251.745C290.405 248.95 298.543 248.384 306.881 247.492C307.327 250.166 308.68 253.045 310.756 254.138C311.183 254.363 312.214 254.758 312.918 254.554C313.337 254.436 313.636 254.103 313.62 253.397C313.586 252.011 312.118 250.778 311.378 249.986C310.727 249.291 310.036 248.555 309.295 247.925C310.95 247.86 312.631 247.521 314.219 246.864C315.04 246.528 317.846 244.442 316.629 243.107C317.316 242.954 317.978 242.952 318.424 243.36C319.89 244.687 316.947 246.877 316.105 247.225C314.515 247.883 312.834 248.219 311.181 248.284C311.92 248.912 312.613 249.65 313.262 250.344C314.002 251.138 315.472 252.37 315.506 253.755C315.523 254.463 315.222 254.794 314.802 254.914C316.717 255.819 318.973 256.146 321.364 256.065C325.009 255.944 332.129 254.706 333.485 249.217C335.08 242.748 329.463 238.013 325.141 236.981ZM267.495 228.729C267.232 228.959 267.036 229.283 266.885 229.662C266.976 228.411 267.204 227.023 267.943 226.388C269.553 224.993 270.095 228.937 270.038 230.002C269.957 231.445 269.723 232.9 269.379 234.324C269.476 233.666 269.554 233.002 269.59 232.346C269.649 231.281 269.105 227.337 267.495 228.729Z" fill="#F5E488" fill-opacity="0.3"/>
</g>
<g clip-path="url(#clip1_1442_21)">
<path d="M375.094 99.7403C372.948 98.9948 370.315 99.3816 367.992 100.633C367.816 101.303 367.452 102.024 367.25 102.359C367.08 102.644 366.89 102.906 366.695 103.159C366.523 103.215 366.359 103.269 366.221 103.31C365.711 103.465 365.107 103.629 364.516 103.851C365.08 103.317 365.593 102.708 366.02 101.997C366.222 101.664 366.585 100.943 366.762 100.273C366.898 99.7561 366.923 99.271 366.676 99.0172C366.063 98.3945 364.871 99.873 364.451 100.389C363.576 101.473 363.002 102.849 362.565 104.217C362.544 104.256 362.525 104.299 362.52 104.336C357.641 104.165 352.575 103.884 347.66 105.205C350.637 102.977 353.55 100.607 356.422 98.179C360.089 95.0762 363.802 91.9079 366.862 87.921C367.593 88.3811 368.5 88.5264 369.37 88.5177C370.009 88.5125 371.261 88.0119 371.78 87.1504C371.928 86.9055 372.018 86.6309 372.015 86.3295C371.995 85.0041 370.49 84.9581 369.009 85.2417C370.347 83.8297 371.457 81.9576 370.632 80.7263C370.289 80.2099 369.741 80.4472 369.148 81.0309C370.152 79.5328 371.322 78.2263 371.911 79.1107C372.736 80.3402 371.625 82.2111 370.289 83.6244C371.768 83.3421 373.274 83.3885 373.293 84.7117C373.297 85.0123 373.205 85.2875 373.057 85.5344C374.506 85.0274 375.933 83.8948 377.268 82.1624C379.777 78.9099 382.383 73.8021 381.896 69.5278C381.357 64.7945 375.391 67.0164 372.975 68.5384C370.115 70.341 368.242 73.6284 367.51 77.13C369.152 76.2104 369.19 78.9189 368.867 81.3297C368.427 81.8245 367.974 82.4689 367.565 83.1139C367.913 80.6629 367.911 77.8088 366.23 78.7472C366.226 78.7498 366.22 78.7521 366.214 78.7539C364.038 79.9934 364.828 85.0343 365.883 86.9117C365.939 87.0103 366.008 87.094 366.073 87.1867C361.048 93.6418 354.423 98.8768 348.079 103.518C351.059 98.5906 350.329 91.7024 352.752 85.7539C354.295 85.6292 356.158 84.7849 357.204 83.2085C357.541 82.7012 358.426 81.0331 357.461 80.8742C357.447 80.8739 357.439 80.8676 357.427 80.8678C356.672 80.7792 355.69 81.85 355.102 82.3721C354.588 82.8343 354.042 83.327 353.543 83.8622C353.864 82.5422 354.05 81.175 354.037 79.8548C354.033 79.2314 353.603 77.1598 352.776 77.4771C352.813 76.7613 352.94 76.034 353.34 75.6238C354.371 74.5696 354.909 77.0865 354.916 77.7867C354.926 79.1074 354.743 80.4724 354.421 81.7941C354.92 81.259 355.466 80.7662 355.981 80.3062C356.569 79.7813 357.551 78.7114 358.304 78.7976C358.317 78.7996 358.327 78.8045 358.337 78.8057C358.959 77.5559 359.39 76.098 359.64 74.5267C360.172 71.1916 360.441 66.0303 358.053 63.9971C355.302 61.6564 351.258 67.3287 350.112 70.0661C349.006 72.6985 348.988 75.6117 349.712 78.1485C350.378 78.0503 351.303 78.8145 351.633 79.1647C351.727 79.2635 351.815 79.3717 351.903 79.48C351.869 80.0423 351.894 80.6012 351.897 80.9972C351.903 81.6122 351.893 82.3353 351.934 83.0469C351.625 82.3681 351.244 81.7478 350.755 81.2327C350.426 80.8829 349.502 80.1201 348.835 80.217C348.684 80.2388 348.546 80.3063 348.431 80.4306C347.76 81.1627 348.702 82.5996 349.034 83.101C349.727 84.1665 350.748 84.8675 351.79 85.4024C349.065 92.1854 350.694 100.417 345.569 105.346C345.203 105.608 344.837 105.869 344.474 106.132C339.246 109.892 333.932 112.966 328.422 115.306C332.668 110.873 334.827 104.842 336.747 98.7047C338.159 98.7897 339.815 98.3331 340.939 97.1369C341.348 96.7019 342.498 95.1945 341.531 94.8369C341.493 94.8236 341.452 94.8227 341.411 94.8143C340.701 94.6735 339.675 95.437 339.064 95.8034C338.494 96.1478 337.892 96.5121 337.325 96.9357C337.547 96.4092 337.739 95.8645 337.91 95.3155C338.438 94.9328 338.989 94.5915 339.514 94.2748C340.127 93.9079 341.152 93.1439 341.862 93.286L341.863 93.2825C342.594 91.9985 342.876 90.5399 343.041 89.0885C343.321 86.6169 343.083 82.2434 340.8 81.4426C338.038 80.4744 335.327 83.9404 334.432 86.9309C334.076 88.1229 333.952 89.4188 334.037 90.6741C334.647 90.8654 335.3 91.7191 335.534 92.1078C335.826 92.5859 336.047 93.1105 336.219 93.6627C336.218 93.6645 336.218 93.6645 336.217 93.668C336.123 94.2849 335.994 95.0104 335.918 95.7347C335.733 94.9814 335.469 94.2692 335.085 93.6367C334.849 93.2476 334.195 92.3974 333.586 92.2043C333.376 92.138 333.17 92.1491 332.989 92.2868C332.228 92.8654 332.9 94.5262 333.131 95.1113C333.686 96.4988 334.705 97.5181 335.742 98.3565C335.784 98.3891 335.83 98.398 335.873 98.4014C333.704 104.966 331.654 111.186 326.788 115.967C326.786 115.97 326.785 115.974 326.783 115.975C323.983 117.082 321.133 118.001 318.216 118.725C317.797 118.827 317.785 119.558 318.215 119.509C321.494 119.143 324.768 118.211 327.994 116.908C336.246 116.662 342.667 123.011 350.753 123.299C350.465 124.799 350.497 126.433 351.087 127.619C351.336 128.122 352.276 129.543 352.836 128.405C352.858 128.361 352.869 128.31 352.888 128.262C353.197 127.42 352.84 126.168 352.702 125.424C352.572 124.737 352.433 124.005 352.236 123.312C353.133 123.98 354.128 124.502 355.175 124.794C355.728 124.944 357.941 124.911 357.603 123.518C357.982 123.719 358.3 123.992 358.403 124.398C358.769 125.811 356.534 125.846 355.979 125.693C354.931 125.403 353.937 124.881 353.04 124.211C353.235 124.903 353.376 125.638 353.507 126.325C353.646 127.067 354.002 128.322 353.691 129.162C353.691 129.162 353.691 129.162 353.693 129.163C354.559 130.073 355.695 130.464 356.856 130.708C358.832 131.123 362.528 130.987 363.814 128.289C365.365 125.03 363.223 121.673 360.983 120.508C360.088 120.042 359.047 119.849 357.979 119.912C357.655 120.631 356.77 121.383 356.387 121.65C356.094 121.854 355.792 122.021 355.49 122.165C355.404 122.143 355.32 122.124 355.247 122.104C354.759 121.967 354.194 121.792 353.614 121.676C354.289 121.478 354.951 121.189 355.581 120.751C355.967 120.482 356.852 119.732 357.176 119.011C357.287 118.763 357.335 118.518 357.268 118.299C356.997 117.37 355.435 118.11 354.885 118.371C353.584 118.986 352.461 120.168 351.484 121.379C351.434 121.434 351.412 121.5 351.395 121.565C351.293 121.601 351.199 121.695 351.141 121.86C351.119 121.922 351.1 121.991 351.081 122.055C343.97 121.059 337.588 116.114 330.384 115.877C335.128 113.691 339.743 110.793 344.093 107.787C344.578 107.449 345.056 107.091 345.541 106.747C351.211 105.428 356.661 105.584 362.264 105.536C362.385 107.344 363.097 109.346 364.406 110.209C364.675 110.386 365.335 110.717 365.816 110.627C366.103 110.576 366.324 110.374 366.359 109.904C366.427 108.979 365.531 108.064 365.091 107.489C364.703 106.984 364.292 106.449 363.84 105.982C364.945 106.047 366.085 105.932 367.185 105.598C367.752 105.429 369.755 104.225 369.033 103.257C369.5 103.201 369.94 103.242 370.21 103.543C371.098 104.522 368.998 105.786 368.415 105.962C367.314 106.295 366.175 106.409 365.071 106.344C365.522 106.81 365.934 107.346 366.321 107.85C366.761 108.426 367.658 109.342 367.59 110.265C367.554 110.737 367.333 110.937 367.045 110.99C368.26 111.717 369.739 112.082 371.334 112.184C373.766 112.342 378.582 111.985 379.843 108.424C381.326 104.225 377.901 100.709 375.094 99.7403ZM337.299 90.4823C337.109 90.6175 336.957 90.8203 336.832 91.0625C336.975 90.2368 337.217 89.3283 337.75 88.9547C338.912 88.1324 339.014 90.7904 338.906 91.4948C338.758 92.4495 338.508 93.4014 338.185 94.3261C338.293 93.8946 338.389 93.4584 338.455 93.0241C338.564 92.3202 338.461 89.6618 337.299 90.4823Z" fill="#F5E488" fill-opacity="0.3"/>
</g>
<g clip-path="url(#clip2_1442_21)">
<path d="M216.634 116.416C218.26 118.818 218.649 122.194 217.87 125.471C217.1 125.909 216.331 126.595 215.984 126.954C215.689 127.258 215.427 127.578 215.18 127.902C215.167 128.134 215.154 128.354 215.149 128.537C215.125 129.218 215.122 130.016 215.042 130.819C215.515 129.948 216.098 129.114 216.835 128.353C217.18 127.995 217.95 127.31 218.718 126.87C219.311 126.532 219.901 126.343 220.296 126.564C221.266 127.115 219.834 129.072 219.335 129.76C218.285 131.196 216.777 132.356 215.233 133.347C215.192 133.385 215.145 133.423 215.1 133.441C216.917 139.403 218.929 145.562 218.917 152.06C220.687 147.654 222.653 143.281 224.703 138.939C227.325 133.393 230.012 127.77 233.924 122.683C233.116 121.933 232.639 120.862 232.363 119.785C232.16 118.996 232.365 117.286 233.257 116.363C233.511 116.099 233.82 115.898 234.193 115.802C235.835 115.391 236.386 117.232 236.524 119.153C237.826 117.038 239.77 115.053 241.561 115.665C242.311 115.919 242.198 116.673 241.673 117.597C243.191 115.865 244.418 113.992 243.133 113.556C241.345 112.942 239.402 114.928 238.098 117.043C237.96 115.125 237.407 113.282 235.768 113.693C235.396 113.788 235.087 113.991 234.831 114.255C234.98 112.301 235.908 110.167 237.606 107.95C240.793 103.785 246.238 98.8895 251.672 98.0844C257.689 97.1923 256.91 105.284 255.827 108.765C254.544 112.887 251.104 116.28 247.025 118.335C247.619 116.006 244.265 116.85 241.397 118.042C240.931 118.747 240.285 119.518 239.624 120.235C242.534 118.999 246.056 118.063 245.451 120.446C245.449 120.452 245.448 120.459 245.448 120.468C244.634 123.56 238.155 124.244 235.492 123.559C235.352 123.523 235.226 123.465 235.09 123.416C228.779 131.739 224.5 141.635 220.86 150.988C225.959 145.691 234.698 144.326 241.24 139.379C240.886 137.434 241.315 134.858 242.916 133.049C243.431 132.467 245.198 130.826 245.711 131.965C245.716 131.981 245.727 131.989 245.731 132.005C246.088 132.907 245.09 134.47 244.639 135.367C244.238 136.153 243.81 136.989 243.314 137.781C244.837 136.951 246.462 136.272 248.095 135.853C248.866 135.653 251.563 135.502 251.444 136.627C252.315 136.345 253.17 135.95 253.545 135.321C254.506 133.702 251.224 133.866 250.358 134.089C248.725 134.51 247.101 135.186 245.576 136.018C246.072 135.225 246.501 134.39 246.899 133.603C247.353 132.705 248.35 131.142 247.996 130.241C247.989 130.226 247.98 130.215 247.975 130.202C249.313 129.025 250.969 128.013 252.826 127.188C256.766 125.434 263.045 123.404 266.339 125.682C270.132 128.306 264.464 135.162 261.463 137.475C258.58 139.707 254.991 140.686 251.623 140.628C251.525 139.774 250.278 138.885 249.738 138.593C249.585 138.508 249.422 138.436 249.26 138.363C248.577 138.59 247.879 138.742 247.39 138.869C246.629 139.064 245.74 139.314 244.849 139.498C245.788 139.655 246.679 139.922 247.475 140.356C248.015 140.647 249.26 141.535 249.36 142.39C249.383 142.584 249.345 142.777 249.229 142.959C248.547 144.027 246.464 143.339 245.736 143.094C244.194 142.589 242.993 141.56 241.99 140.451C234.518 146.044 223.826 146.742 219.431 154.687C219.228 155.225 219.026 155.762 218.821 156.296C215.902 163.983 213.858 171.551 212.783 179.119C216.856 172.422 223.586 167.774 230.527 163.387C229.958 161.673 229.976 159.479 231.082 157.699C231.484 157.05 232.966 155.136 233.725 156.211C233.754 156.254 233.768 156.304 233.793 156.352C234.2 157.181 233.595 158.699 233.344 159.573C233.107 160.39 232.855 161.252 232.519 162.091C233.096 161.644 233.705 161.228 234.326 160.836C234.624 160.059 234.864 159.266 235.082 158.515C235.333 157.638 235.938 156.122 235.529 155.292L235.533 155.29C236.877 153.966 238.584 153.139 240.32 152.457C243.278 151.299 248.752 150.153 250.491 152.707C252.594 155.796 249.21 160.281 245.814 162.369C244.461 163.201 242.903 163.78 241.326 164.088C240.89 163.398 239.622 162.874 239.065 162.712C238.379 162.509 237.659 162.41 236.921 162.379C236.919 162.38 236.919 162.38 236.915 162.383C236.185 162.702 235.332 163.1 234.464 163.432C235.454 163.412 236.42 163.504 237.326 163.77C237.884 163.933 239.148 164.46 239.587 165.148C239.738 165.385 239.792 165.643 239.681 165.912C239.218 167.04 236.948 166.758 236.15 166.665C234.255 166.437 232.662 165.515 231.287 164.512C231.233 164.47 231.207 164.417 231.188 164.364C223.802 169.201 216.803 173.776 212.505 181.351C212.502 181.355 212.498 181.358 212.497 181.361C212.053 185.179 211.856 188.998 211.923 192.835C211.934 193.385 211.036 193.641 210.956 193.094C210.329 188.928 210.402 184.583 210.947 180.173C208.536 169.911 198.59 164.078 195.576 154.196C193.82 155.045 191.794 155.544 190.136 155.206C189.434 155.063 187.371 154.371 188.591 153.306C188.638 153.264 188.697 153.235 188.751 153.196C189.688 152.537 191.35 152.565 192.312 152.491C193.203 152.425 194.152 152.356 195.071 152.372C193.952 151.485 192.981 150.429 192.276 149.233C191.91 148.6 191.222 145.858 193.052 145.818C192.679 145.416 192.238 145.114 191.703 145.119C189.839 145.134 190.531 147.902 190.903 148.536C191.606 149.734 192.576 150.789 193.698 151.675C192.78 151.662 191.827 151.731 190.936 151.794C189.975 151.867 188.31 151.841 187.375 152.5C187.375 152.5 187.375 152.5 187.374 152.499C185.966 151.73 185.11 150.456 184.427 149.104C183.265 146.803 182.216 142.198 185.123 139.724C188.632 136.738 193.48 138.277 195.653 140.657C196.523 141.608 197.103 142.829 197.378 144.167C196.597 144.803 195.96 146.142 195.756 146.703C195.602 147.132 195.495 147.559 195.416 147.98C195.472 148.079 195.523 148.176 195.571 148.259C195.902 148.815 196.303 149.456 196.637 150.133C196.659 149.235 196.798 148.324 197.131 147.401C197.336 146.837 197.97 145.499 198.753 144.862C199.023 144.642 199.309 144.503 199.601 144.514C200.837 144.543 200.437 146.714 200.296 147.478C199.966 149.285 198.877 151.06 197.705 152.663C197.652 152.743 197.578 152.792 197.504 152.834C197.493 152.972 197.408 153.118 197.223 153.245C197.154 153.292 197.075 153.338 197.002 153.383C200.57 161.829 208.771 168.075 211.434 176.885C212.57 170.314 214.627 163.667 216.904 157.31C217.162 156.601 217.447 155.893 217.712 155.182C217.474 147.752 215.489 141.08 213.705 134.152C211.434 134.596 208.729 134.377 207.234 133.046C206.927 132.772 206.302 132.067 206.254 131.444C206.223 131.073 206.4 130.734 206.969 130.536C208.086 130.148 209.511 130.952 210.365 131.306C211.115 131.618 211.91 131.95 212.636 132.353C212.192 131.011 211.959 129.567 212.009 128.101C212.031 127.345 212.857 124.478 214.289 125.05C214.205 124.456 214.009 123.926 213.549 123.692C212.05 122.918 211.181 125.925 211.155 126.702C211.106 128.17 211.341 129.613 211.784 130.953C211.061 130.551 210.263 130.218 209.515 129.907C208.659 129.554 207.235 128.748 206.118 129.136C205.547 129.335 205.373 129.674 205.403 130.046C204.106 128.787 203.169 127.083 202.518 125.148C201.523 122.2 200.38 116.141 204.359 113.413C209.05 110.202 214.515 113.272 216.634 116.416ZM240.49 160C240.386 160.279 240.185 160.533 239.928 160.767C240.899 160.32 241.94 159.722 242.226 158.942C242.858 157.237 239.545 157.985 238.712 158.35C237.583 158.847 236.491 159.469 235.456 160.171C235.953 159.896 236.46 159.635 236.973 159.41C237.806 159.044 241.12 158.297 240.49 160Z" fill="#F5E488" fill-opacity="0.3"/>
</g>
<path d="M116.711 368.011C117.488 368.042 118.27 368.135 119.02 368.31C122.818 369.182 122.942 369.065 122.363 364.826C122.057 362.541 121.597 360.279 121.927 357.89C122.018 357.223 122.122 356.476 122.935 356.342C123.662 356.219 124.154 356.717 124.316 357.338C124.748 359.075 125.027 360.867 125.453 362.605C125.997 364.84 125.946 367.396 127.734 369.169C128.16 368.606 128.4 368.35 128.563 368.054C130.852 363.827 133.047 359.555 135.445 355.391C136.55 353.468 137.152 350.489 140.055 350.874C141.657 351.082 141.39 353.467 139.228 357.551C137.296 361.191 135.267 364.766 133.261 368.361C132.849 369.103 132.236 369.876 132.666 370.664C133.297 371.822 134.353 371.021 135.193 370.727C136.415 370.301 137.58 369.608 138.805 369.174C140.315 368.633 142.181 367.749 142.867 369.851C143.43 371.567 141.902 372.406 140.581 373.303C138.876 374.449 136.633 374.892 135.581 377.065C136.745 378.674 138.626 378.903 139.817 380.141C140.082 380.422 140.246 381.092 140.105 381.468C139.971 381.841 139.399 382.29 139.009 382.331C137.053 382.554 135.378 381.7 133.622 381.092C131.747 380.439 130.915 381.182 131.057 383.259C131.126 384.239 131.432 385.186 131.648 386.138C131.974 387.575 132.397 388.98 132.615 390.44C132.77 391.453 132.531 392.518 131.381 392.92C130.278 393.308 129.488 392.703 129.135 391.756C128.634 390.4 128.375 388.934 127.963 387.528C127.391 385.602 127.294 383.41 125.94 381.759C121.511 385.784 120.888 392.577 115.474 395.542C114.161 393.639 114.77 392.074 115.608 390.532C116.681 388.579 117.853 386.682 118.876 384.702C119.76 382.998 119.242 382.193 117.406 382.414C116.47 382.535 115.527 382.861 114.621 383.203C113.554 383.613 112.526 384.198 111.381 384.037C110.725 383.943 110.226 383.618 110.046 382.919C109.867 382.217 110.051 381.53 110.667 381.146C111.506 380.618 112.409 380.205 113.3 379.811C116.267 378.484 119.237 377.179 122.501 375.748C120.777 371.943 116.765 371.637 114.922 368.366C115.808 368.175 116.272 367.992 116.711 368.011Z" fill="#F5E488" fill-opacity="0.3"/>
<path d="M83.7132 166.587C84.7537 170.265 85.6279 174.014 86.6964 178.224C91.7885 170.978 92.849 162.231 98.8866 156.205C100.398 160.657 96.7452 163.745 95.4599 167.402C94.036 171.446 92.1685 175.345 90.4969 179.307C95.0596 177.036 99.0046 174.262 103.004 171.57C104.52 170.553 106.091 169.513 107.745 168.933C108.544 168.652 109.589 169.417 110.525 169.706C110.125 170.726 109.913 171.914 109.269 172.735C108.679 173.485 107.612 173.811 106.782 174.365C101.813 177.683 96.8592 181.009 91.5115 184.587C96.7475 188.484 103.884 187.633 108.217 192.815C105.17 194.324 105.15 194.372 103.798 193.88C101.043 192.865 98.3201 191.774 95.5612 190.766C93.0619 189.85 90.5343 189.002 87.4674 187.936C87.782 189.825 87.9346 190.781 88.0916 191.739C89.0393 197.587 90.0922 203.416 90.8895 209.299C91.2305 211.796 91.5081 214.586 88.298 216.263C85.8084 213.186 86.709 209.193 85.9697 205.781C85.2197 202.326 84.8714 198.742 84.349 195.212C81.3125 200.106 79.3375 205.133 76.8687 209.903C74.3624 214.744 73.4162 220.449 69.1003 224.404C68.1984 218.428 71.6101 213.602 73.8965 208.533C76.2297 203.37 78.484 198.187 80.2979 192.741C74.985 195.742 70.2323 199.45 64.3889 200.989C63.6941 197.604 65.7313 196.587 67.7807 195.338C72.3936 192.53 76.9366 189.549 82.1605 186.22C77.8489 184.491 74.419 183.139 71.0044 181.742C67.6007 180.35 64.119 179.079 61.2065 176.807C61.352 176.47 61.5022 176.13 61.6508 175.799C68.4712 178.025 75.2999 180.262 82.6625 182.665C82.6142 173.253 78.9653 165.373 79.5308 155.482C82.911 158.987 82.7318 163.093 83.7132 166.587Z" fill="#F5E488" fill-opacity="0.3"/>
<path d="M74.2705 275.989C73.7064 272.626 73.6138 269.057 73.812 265.568C74.0343 261.765 76.3145 260.477 80.0129 262.299C80.6175 262.932 81.9578 263.857 82.6977 265.194C85.8172 270.878 88.9941 276.549 91.7234 282.477C95.4656 290.603 96.6056 299.659 97.6541 308.713C100.022 304.86 102.541 301.085 105.204 297.376C107.443 294.27 107.458 294.231 105.235 291.869C103.389 289.909 101.854 287.639 101.092 285.002C98.8697 277.321 97.3565 269.482 98.2944 261.034C100.584 240.353 110.373 223.625 125.119 209.424C125.616 208.942 126.144 208.476 126.695 208.056C126.277 207.311 125.88 206.545 125.503 205.775C123.765 202.243 125.604 199.178 129.488 198.42C134.84 197.36 140.932 203.325 140.366 209.095C140.288 209.91 140.014 210.725 139.876 211.321C138.476 213.477 136.769 214.074 134.745 213.981C132.804 213.884 131.289 213.246 130.045 212.282C129.615 212.648 129.155 212.975 128.757 213.364C119.343 222.651 111.2 232.801 106.775 245.72C102.595 257.914 101.754 269.933 104.681 281.88C104.973 283.08 105.075 284.514 107.262 285.276C106.609 274.31 110.278 264.873 115.737 255.88C117.515 252.949 118.672 249.612 120.935 247.02C125.749 241.491 130.693 236.086 135.592 230.636C135.857 230.345 136.122 230.062 136.399 229.79C136.237 229.352 136.092 228.886 135.975 228.385C135.399 225.909 134.835 223.645 137.139 221.485C139.214 219.54 141.358 219.234 144.453 220.8C146.861 222.094 148.566 224.508 149.212 227.643C150.161 232.235 146.925 235.52 142.522 234.763C141.432 234.579 140.502 234.242 139.682 233.787C139.34 234.14 139 234.495 138.649 234.843C129.235 244.286 120.814 254.428 115.305 266.978C112.679 272.96 111.374 278.94 111.407 285.211C111.412 286.15 111.214 287.289 112.521 288.004C113.227 287.262 114.005 286.447 114.78 285.627C118.626 281.54 122.633 277.607 126.264 273.328C131.268 267.433 137.517 263.093 142.754 257.512C144.719 255.415 146.992 253.609 149.232 251.848C149.28 251.811 149.32 251.804 149.368 251.767C147.943 249.612 147.788 246.591 149.002 244.004C150.153 241.542 153.453 239.912 156.449 240.231C163.514 240.982 164.469 249.575 162.198 254.059C161.582 255.268 159.651 256.332 158.291 256.514C156.767 256.723 155.207 256.064 153.84 255.726C153.676 256.034 153.497 256.34 153.234 256.648C151.905 258.197 150.661 259.856 149.19 261.236C142.023 267.957 134.785 274.602 127.587 281.292C123.785 284.824 119.889 288.259 116.833 292.832C121.884 296.803 127.18 295.202 132.245 292.635C146.624 285.341 157.782 273.742 167.787 260.725C168.93 259.235 169.952 257.647 171.067 256.137C171.262 255.876 171.474 255.641 171.691 255.448C171.148 254.4 170.674 253.317 170.321 252.205C168.981 247.99 171.798 244.413 176.104 244.34C182.127 244.244 186.16 251.88 183.149 257.675C181.493 260.871 177.352 261.913 174.755 259.69C174.175 261.243 173.166 262.601 172.207 263.939C168.108 269.678 163.187 274.643 158.356 279.671C152.435 285.832 145.691 290.869 138.577 295.258C134.715 297.641 130.647 299.372 126.291 300.026C125.43 300.155 124.304 299.964 124.103 301.494C126.205 303.447 128.752 304.389 131.62 304.76C138.653 305.678 145.473 304.614 152.078 300.854C162.664 294.836 171.349 286.353 179.106 276.664C179.743 275.867 180.271 274.969 180.908 274.172C181.46 273.482 182.058 273.038 182.693 272.878C182.26 272.29 181.787 271.721 181.37 271.116C180.061 269.215 180.14 267.234 181.447 265.079C183.305 262.019 185.982 261.318 190.921 263.505C191.469 264.428 192.931 266.093 193.526 268.112C194.385 271.063 192.907 274.377 190.739 275.654C189.463 276.404 187.521 276.568 185.87 275.969C185.792 276.373 185.664 276.778 185.463 277.187C184.79 278.556 183.886 279.849 182.931 281.037C176.447 289.067 169.086 296.122 160.822 301.91C154.778 306.147 148.362 309.473 141.096 310.283C130.406 311.48 121.797 307.78 114.331 300.84C111.881 298.562 111.763 298.536 109.544 301.41C104.74 307.63 100.639 314.267 96.9573 321.152C97.4825 320.986 98.0451 320.888 98.5886 320.803C100.792 320.47 102.993 320.067 105.187 319.647C112.95 318.149 120.654 317.242 128.181 319.34C130.105 319.879 132.191 319.887 134.179 320.248C141.408 321.544 148.609 322.934 153.703 329.383C152.179 333.009 151.604 333.985 148.23 334.844C143.884 335.955 139.408 336.962 135.054 337.04C122.585 337.272 110.986 333.89 99.7248 329.456C98.4612 328.961 97.1634 328.214 96.3017 327.18C95.7851 326.566 95.2977 325.734 95.0179 324.891C93.2953 328.29 91.6613 331.734 90.089 335.22C85.778 344.82 83.3315 354.939 81.0736 365.094C80.6924 366.805 80.6934 368.72 79.1803 370.304C78.1024 368.729 78.2032 367.018 78.2232 365.401C78.3117 357.985 79.2573 350.633 81.568 343.385C84.5161 334.124 88.3702 325.33 92.9426 316.902C92.2526 316.809 91.5784 316.596 90.924 316.151C90.2963 315.715 89.7201 315.165 89.231 314.562C84.4206 308.538 79.9974 302.213 78.1082 294.249C76.6771 288.209 75.3063 282.145 74.2705 275.989ZM130.894 203.7C130.558 204.062 130.216 204.428 129.883 204.789C130.881 205.793 131.878 206.8 132.872 207.802C133.156 205.516 132.739 203.966 130.894 203.7ZM142.528 225.934C141.366 228.033 141.502 229.298 144.156 228.849C143.526 227.717 143.026 226.825 142.528 225.934ZM153.785 245.563C155.207 247.571 156.155 248.922 157.107 250.272C158.202 247.198 157.538 245.609 153.785 245.563ZM176.96 250.75C177.159 252.156 177.359 253.57 177.559 254.983C179.51 252.94 178.861 251.659 176.96 250.75ZM187.155 267.469C186.958 267.613 186.753 267.76 186.554 267.909C186.949 268.698 187.343 269.49 187.738 270.279C188.055 270.084 188.371 269.881 188.692 269.682C188.184 268.941 187.667 268.202 187.155 267.469Z" fill="#F5E488" fill-opacity="0.3"/>
<path d="M177.443 316.539C180.224 312.056 183.482 308.063 188.253 305.991C188.566 306.297 188.883 306.606 189.198 306.92C186.146 310.907 183.146 314.937 179.987 318.83C179.562 319.35 178.339 319.163 177.481 319.301C177.452 318.361 177.038 317.185 177.443 316.539Z" fill="#F5E488" fill-opacity="0.3"/>
<path d="M182.381 303.811C177.899 308.415 176.079 314.109 171.257 318.551C170.234 312.312 175.702 305.161 182.381 303.811Z" fill="#F5E488" fill-opacity="0.3"/>
<path d="M186.003 318.109C185.256 325.292 177.861 330.516 172.572 327.476C175.09 326.178 177.454 325.273 179.507 323.832C181.738 322.262 183.679 320.19 186.003 318.109Z" fill="#F5E488" fill-opacity="0.3"/>
<path d="M174.977 332.574C179.199 330.458 183.494 328.306 188.584 325.756C183.74 333.414 178.268 335.767 174.977 332.574Z" fill="#F5E488" fill-opacity="0.3"/>
<path d="M167.692 327.083C168.618 327.615 169.511 328.228 170.313 328.92C174.379 332.404 174.606 332.34 176.604 326.81C177.69 323.833 178.571 320.786 180.497 318.088C181.034 317.334 181.637 316.49 182.712 316.847C183.676 317.16 183.957 318.08 183.758 318.94C183.177 321.33 182.374 323.689 181.782 326.077C181.02 329.146 179.327 332.224 180.373 335.524C181.251 335.109 181.706 334.951 182.093 334.695C187.577 331.008 192.974 327.208 198.549 323.668C201.122 322.031 203.754 318.789 207.043 321.108C208.86 322.383 207.014 325.117 201.777 328.71C197.103 331.909 192.352 334.968 187.618 338.065C186.643 338.706 185.404 339.256 185.424 340.49C185.454 342.301 187.251 342 188.461 342.178C190.22 342.438 192.08 342.337 193.849 342.591C196.032 342.895 198.867 343.009 198.362 346.005C197.953 348.454 195.558 348.501 193.378 348.75C190.57 349.058 187.557 348.168 184.89 350.141C185.281 352.842 187.425 354.322 188.085 356.588C188.229 357.099 188.002 358.019 187.59 358.387C187.189 358.756 186.206 358.937 185.705 358.74C183.182 357.763 181.687 355.654 179.937 353.795C178.071 351.805 176.584 352.178 175.432 354.796C174.891 356.034 174.66 357.382 174.316 358.679C173.795 360.636 173.415 362.616 172.748 364.533C172.291 365.866 171.321 367.01 169.665 366.766C168.075 366.534 167.498 365.294 167.672 363.915C167.928 361.946 168.548 359.995 168.942 358.022C169.474 355.312 170.755 352.581 170.159 349.706C162.199 351.783 157.109 359.655 148.625 359.812C148.241 356.658 149.98 355.141 151.985 353.797C154.536 352.104 157.173 350.542 159.681 348.784C161.846 347.274 161.728 345.963 159.352 345.061C158.135 344.612 156.779 344.406 155.458 344.246C153.898 344.064 152.272 344.12 150.981 343.194C150.242 342.662 149.841 341.947 150.069 340.981C150.299 340.013 150.96 339.294 151.956 339.219C153.314 339.111 154.676 339.185 156.012 339.273C160.472 339.55 164.919 339.856 169.806 340.196C170.134 334.463 165.444 331.532 165.287 326.374C166.488 326.707 167.17 326.781 167.692 327.083Z" fill="#F5E488" fill-opacity="0.3"/>
<path d="M255.99 60.8099C254.911 65.9518 253.584 71.0731 252.2 76.88C263.021 71.3067 269.891 61.3338 281.085 57.8477C280.086 64.2317 273.669 65.6617 269.772 69.2946C265.459 73.31 260.698 76.8649 256.136 80.6224C263.14 80.7679 269.712 79.9069 276.298 79.1805C278.792 78.9097 281.369 78.6449 283.751 78.9939C284.904 79.162 285.688 80.7589 286.643 81.7084C285.506 82.6948 284.49 84.006 283.182 84.5946C281.985 85.1318 280.478 84.8473 279.114 84.9924C270.949 85.863 262.796 86.7533 254.004 87.6976C257.892 95.7827 267.123 99.2976 269.094 108.371C264.422 108.264 264.366 108.31 263.034 106.849C260.328 103.856 257.709 100.79 254.993 97.8037C252.535 95.0941 249.998 92.4503 246.944 89.1964C246.122 91.6963 245.698 92.9572 245.279 94.2237C242.702 101.948 240.266 109.716 237.485 117.387C236.307 120.645 234.866 124.218 229.888 124.213C228.819 118.879 232.462 114.592 233.739 109.966C235.029 105.281 236.891 100.696 238.507 96.0648C231.688 100.087 226.078 104.947 220.029 109.18C213.891 113.475 209.1 119.817 201.323 121.879C204.036 114.029 211.268 110.33 217.285 105.616C223.418 100.818 229.469 95.946 235.151 90.4732C226.768 90.7385 218.617 92.2204 210.521 90.3676C211.835 85.8028 214.963 85.8648 218.255 85.6505C225.662 85.1747 233.095 84.4424 241.578 83.7216C237.431 78.8674 234.118 75.0331 230.852 71.1541C227.595 67.2892 224.167 63.5209 222.071 58.897C222.462 58.5801 222.862 58.2618 223.255 57.9527C230.138 65.0136 237.025 72.0928 244.456 79.7144C250.4 68.2249 250.984 56.3039 257.981 44.6223C259.861 51.0449 257.024 55.9296 255.99 60.8099Z" fill="#F5E488" fill-opacity="0.3"/>
<path d="M174.715 187.98C176.173 183.526 178.337 179.122 180.804 175.001C183.5 170.512 187.098 170.398 190.438 174.975C190.771 176.132 191.812 178.113 191.861 180.212C192.033 189.122 192.283 198.053 191.825 207.011C191.198 219.291 186.81 231.043 182.312 242.735C187.652 239.554 193.127 236.564 198.734 233.748C203.441 231.395 203.484 231.357 202.285 227.063C201.288 223.5 200.867 219.757 201.621 216.06C203.814 205.291 206.972 194.783 213.502 185.095C229.481 161.378 252.068 147.256 279.078 139.371C279.991 139.102 280.931 138.871 281.87 138.712C281.836 137.538 281.84 136.353 281.872 135.174C282.011 129.765 286.203 127.207 291.415 128.761C298.608 130.885 302.22 142.032 297.85 148.696C297.236 149.639 296.382 150.457 295.834 151.094C292.755 152.826 290.295 152.464 287.891 151.059C285.589 149.704 284.152 147.96 283.252 145.993C282.496 146.164 281.726 146.27 280.994 146.49C263.609 151.791 247.222 158.954 233.595 171.861C220.728 184.04 212.037 198.137 207.982 214.548C207.571 216.196 206.782 218.007 208.957 220.329C215.157 206.562 225.644 197.413 238.025 189.946C242.06 187.512 245.596 184.188 250.004 182.474C259.393 178.814 268.859 175.388 278.299 171.877C278.807 171.691 279.31 171.516 279.821 171.361C279.903 170.724 280.024 170.065 280.201 169.38C281.079 165.998 281.837 162.883 286.019 161.723C289.786 160.678 292.592 161.673 295.361 165.554C297.466 168.665 298.003 172.691 296.789 176.92C295.017 183.115 288.981 185.051 284.103 181.322C282.894 180.402 281.976 179.398 281.268 178.322C280.626 178.533 279.987 178.748 279.337 178.949C261.854 184.44 245.132 191.416 230.42 203.183C223.409 208.79 218.004 215.238 214.046 222.893C213.453 224.04 212.485 225.301 213.621 227.004C214.953 226.552 216.42 226.056 217.887 225.552C225.176 223.029 232.563 220.797 239.713 217.903C249.565 213.917 259.94 212.62 269.876 209.166C273.607 207.866 277.525 207.117 281.376 206.401C281.458 206.387 281.511 206.404 281.592 206.39C281.232 202.856 282.97 199.08 286.099 196.705C289.07 194.442 294.127 194.562 297.572 196.861C305.694 202.282 301.376 213.353 295.751 217.362C294.23 218.442 291.201 218.506 289.429 217.859C287.44 217.143 285.961 215.345 284.513 214.061C284.117 214.332 283.703 214.59 283.187 214.798C280.581 215.836 278.007 217.063 275.336 217.804C262.325 221.415 249.274 224.888 236.243 228.443C229.362 230.318 222.428 232.015 215.791 235.633C219.408 243.689 226.876 245.118 234.68 245.224C256.838 245.514 277.82 238.51 298.304 229.043C300.646 227.959 302.903 226.677 305.223 225.55C305.626 225.357 306.035 225.205 306.422 225.11C306.43 223.487 306.544 221.865 306.824 220.287C307.88 214.3 313.59 211.743 318.88 214.401C326.274 218.124 326.314 229.994 318.951 235.128C314.897 237.963 309.191 236.59 307.447 232.228C305.751 233.748 303.656 234.758 301.635 235.776C292.984 240.148 283.826 243.054 274.737 246.095C263.6 249.818 252.176 251.649 240.716 252.456C234.494 252.893 228.437 252.405 222.717 250.424C221.586 250.032 220.337 249.081 219.117 250.816C220.43 254.534 222.931 257.305 226.185 259.587C234.162 265.189 243.143 268.245 253.584 267.879C270.31 267.305 286.294 262.517 301.918 255.668C303.202 255.104 304.418 254.348 305.702 253.784C306.814 253.297 307.825 253.137 308.7 253.347C308.548 252.355 308.335 251.36 308.213 250.357C307.832 247.208 309.192 244.847 312.158 243.057C316.372 240.517 320.077 241.37 324.695 247.183C324.774 248.657 325.492 251.616 324.928 254.454C324.093 258.594 320.178 261.687 316.725 261.859C314.694 261.958 312.224 260.919 310.596 259.137C310.244 259.579 309.829 259.989 309.323 260.36C307.631 261.598 305.706 262.595 303.786 263.433C290.77 269.072 277.308 272.967 263.555 274.742C253.495 276.045 243.562 276.003 234.2 272.355C220.42 266.994 212.301 256.998 207.637 243.786C206.107 239.45 205.98 239.344 201.445 241.427C191.63 245.935 182.403 251.4 173.53 257.434C174.275 257.568 175.023 257.806 175.738 258.05C178.633 259.05 181.57 259.963 184.508 260.851C194.915 263.979 204.873 267.788 212.699 275.144C214.698 277.027 217.232 278.367 219.422 280.075C227.397 286.263 235.277 292.548 237.366 303.649C233.197 307.092 231.874 307.913 227.219 306.807C221.22 305.387 215.129 303.758 209.777 301.077C194.448 293.406 182.484 281.89 171.602 269.309C170.38 267.901 169.276 266.164 168.887 264.355C168.65 263.278 168.587 261.954 168.784 260.749C164.518 263.789 160.332 266.94 156.195 270.181C144.823 279.119 135.39 289.879 126.165 300.801C124.609 302.641 123.389 304.973 120.536 305.937C120.229 303.331 121.443 301.312 122.499 299.356C127.337 290.384 133.177 282.037 140.613 274.687C150.109 265.292 160.41 257.044 171.353 249.7C170.572 249.146 169.887 248.457 169.374 247.498C168.888 246.566 168.537 245.53 168.326 244.484C166.312 234.082 164.961 223.56 167.741 212.658C169.851 204.392 172.05 196.136 174.715 187.98ZM289.761 136.086C289.12 136.314 288.47 136.54 287.834 136.768C288.409 138.627 288.981 140.489 289.552 142.342C291.355 139.74 291.837 137.587 289.761 136.086ZM289.742 170.576C286.989 172.39 286.348 174.017 289.866 175.164C289.82 173.383 289.78 171.978 289.742 170.576ZM290.927 201.654C291.378 205.006 291.671 207.255 291.968 209.506C295.262 206.462 295.467 204.103 290.927 201.654ZM315.835 222.75C315.179 224.589 314.521 226.438 313.863 228.286C317.541 227.043 317.569 225.069 315.835 222.75ZM317.582 249.608C317.25 249.657 316.908 249.705 316.57 249.759C316.548 250.972 316.522 252.188 316.5 253.401C317.011 253.365 317.524 253.319 318.042 253.282C317.896 252.056 317.737 250.827 317.582 249.608Z" fill="#F5E488" fill-opacity="0.3"/>
<path d="M274.461 303.153C280.706 299.469 287.218 296.686 294.349 297.205C294.534 297.778 294.724 298.357 294.907 298.94C288.648 301.847 282.426 304.84 276.097 307.565C275.247 307.927 273.877 306.919 272.745 306.54C273.309 305.376 273.555 303.681 274.461 303.153Z" fill="#F5E488" fill-opacity="0.3"/>
<path d="M288.59 290.807C280.196 293.553 274.348 299.325 265.645 301.658C268.38 293.41 279.598 288.191 288.59 290.807Z" fill="#F5E488" fill-opacity="0.3"/>
<path d="M283.88 310.525C278.389 318.794 266.055 320.437 261.553 313.363C265.448 313.388 268.903 313.794 272.321 313.35C276.039 312.861 279.724 311.576 283.88 310.525Z" fill="#F5E488" fill-opacity="0.3"/>
<path d="M261.229 321.103C267.72 321.22 274.321 321.339 282.145 321.48C271.363 327.714 263.2 327.089 261.229 321.103Z" fill="#F5E488" fill-opacity="0.3"/>
<defs>
<clipPath id="clip0_1442_21">
<rect width="100.148" height="124.51" fill="white" transform="translate(255.715 162.998) rotate(10.9797)"/>
</clipPath>
<clipPath id="clip1_1442_21">
<rect width="66.9209" height="83.2005" fill="white" transform="translate(333.766 45.998) rotate(16.5973)"/>
</clipPath>
<clipPath id="clip2_1442_21">
<rect width="85.4495" height="106.236" fill="white" transform="matrix(-0.522903 -0.852392 -0.852392 0.522903 296.535 149.729)"/>
</clipPath>
</defs>
</svg>
