<?xml version="1.0" standalone="no"?>
<!DOCTYPE svg PUBLIC "-//W3C//DTD SVG 20010904//EN"
 "http://www.w3.org/TR/2001/REC-SVG-20010904/DTD/svg10.dtd">
<svg version="1.0" xmlns="http://www.w3.org/2000/svg"
 width="2000.000000pt" height="2000.000000pt" viewBox="0 0 2000.000000 2000.000000"
 preserveAspectRatio="xMidYMid meet">
<metadata>
Created by potrace 1.14, written by Peter Selinger 2001-2017
</metadata>
<g transform="translate(0.000000,2000.000000) scale(0.100000,-0.100000)"
fill="#000000" stroke="none">
<path d="M8486 19968 c-3 -18 -7 -136 -10 -261 -2 -126 -7 -231 -10 -234 -7
-8 -180 -49 -526 -127 -591 -132 -695 -156 -717 -166 -20 -8 -23 -17 -23 -60
l0 -50 43 0 c46 0 253 42 592 119 541 123 619 140 622 137 3 -3 -5 -294 -27
-946 -5 -151 -13 -288 -19 -305 -5 -16 -24 -73 -42 -125 -100 -301 -278 -639
-398 -755 -68 -66 -95 -79 -165 -79 -57 -1 -59 0 -104 49 -90 99 -135 249
-136 453 -1 88 3 135 10 140 15 9 166 310 193 382 31 86 61 214 61 264 0 57
-21 111 -50 126 -31 16 -92 15 -127 -4 -110 -56 -194 -291 -223 -621 -15 -168
-48 -302 -103 -417 -46 -96 -62 -118 -120 -162 -43 -33 -63 -33 -118 2 -57 37
-122 115 -188 224 -59 98 -90 128 -132 128 -33 0 -60 -23 -85 -72 -16 -30 -17
-65 -11 -385 3 -194 2 -353 -2 -353 -22 0 -146 190 -216 330 -52 104 -100 177
-125 190 -30 16 -75 3 -88 -25 -30 -65 -61 -377 -63 -625 0 -117 -9 -113 -36
20 -20 98 -80 326 -92 348 -5 9 -19 76 -30 147 -12 72 -24 145 -27 164 l-5 33
-51 -4 c-27 -3 -54 -12 -59 -19 -22 -33 27 -378 96 -684 70 -313 79 -387 61
-502 -10 -61 -30 -83 -83 -90 -64 -8 -117 13 -224 93 -95 71 -153 121 -301
260 -61 58 -64 59 -101 45 -37 -14 -48 -58 -37 -154 16 -134 32 -576 22 -593
-23 -40 -169 222 -216 387 -49 172 -52 295 -10 385 24 50 47 61 139 69 108 9
113 11 124 52 20 71 -20 91 -157 79 -152 -13 -236 -102 -264 -280 -14 -91 8
-236 57 -382 58 -173 165 -366 242 -433 38 -34 53 -41 87 -41 35 0 48 6 78 38
20 20 39 48 43 62 4 13 7 145 7 292 l-2 268 73 -61 c99 -84 236 -173 302 -198
66 -25 155 -27 215 -6 45 16 100 65 100 89 0 29 26 37 53 16 41 -32 79 -25
102 21 12 22 15 71 15 216 0 103 5 260 10 348 5 88 10 203 11 255 1 52 5 106
9 120 l6 25 16 -25 c8 -14 36 -61 61 -105 102 -177 201 -275 279 -275 25 0 83
42 99 71 24 46 30 154 18 354 -6 110 -9 222 -7 250 l3 50 56 -72 c79 -102 165
-177 223 -193 119 -33 235 29 323 173 19 32 39 55 43 50 4 -4 15 -39 25 -78
46 -177 143 -298 272 -340 48 -16 56 -16 123 1 129 31 200 93 317 278 63 99
191 348 216 419 4 9 10 17 14 17 4 0 7 -426 6 -946 l-1 -947 -28 -22 c-18 -14
-24 -26 -19 -35 6 -10 1 -12 -24 -7 -25 5 -37 1 -63 -22 -26 -23 -30 -32 -24
-55 4 -16 16 -30 26 -33 11 -3 20 -9 20 -14 0 -5 7 -9 16 -9 11 0 15 -8 13
-27 -4 -59 -2 -61 49 -60 l47 2 0 -45 0 -45 -110 -28 c-60 -15 -145 -30 -190
-33 -44 -3 -85 -7 -92 -9 -7 -2 -25 0 -40 5 -15 5 -41 11 -56 13 -41 5 -50 26
-22 49 27 21 42 23 47 7 3 -9 15 -9 43 -3 32 8 41 15 43 35 6 54 -98 71 -212
34 -43 -14 -92 -25 -107 -25 -31 0 -39 17 -13 27 13 5 13 8 2 15 -9 7 -7 8 8
3 16 -4 27 3 48 33 14 21 26 41 26 45 0 17 -179 -40 -187 -59 -3 -9 -13 -12
-25 -8 -12 4 -18 2 -15 -3 4 -6 -4 -8 -18 -5 -14 2 -32 -1 -40 -8 -8 -6 -19
-9 -26 -5 -6 4 -21 3 -32 -3 -12 -5 -76 -25 -142 -43 -66 -17 -124 -36 -129
-41 -6 -4 -19 -8 -29 -8 -10 0 -33 -6 -50 -14 -50 -22 -71 -29 -79 -28 -5 1
-34 -6 -65 -17 -32 -10 -77 -24 -99 -30 -23 -6 -47 -18 -54 -26 -7 -9 -29 -15
-51 -15 -21 0 -40 -4 -43 -9 -3 -4 -20 -11 -37 -15 -17 -3 -45 -12 -62 -20
-18 -7 -48 -20 -67 -27 -19 -7 -41 -19 -48 -26 -7 -7 -20 -13 -28 -13 -20 0
-251 -114 -332 -163 -94 -58 -125 -84 -116 -98 5 -9 1 -10 -14 -7 -15 4 -22 2
-22 -9 0 -8 -4 -11 -10 -8 -5 3 -10 1 -10 -4 0 -6 -6 -11 -14 -11 -8 0 -35
-19 -60 -42 -35 -32 -48 -53 -53 -80 -4 -25 -2 -38 6 -38 6 0 11 5 11 10 0 6
11 8 25 4 15 -4 32 -1 41 7 13 11 17 10 25 -4 6 -9 17 -17 24 -17 27 0 17 -50
-16 -77 l-30 -26 21 -21 21 -21 25 28 c13 15 24 33 24 40 0 7 14 21 30 32 16
11 30 26 30 33 0 15 -12 16 -28 0 -9 -9 -12 -9 -12 0 0 7 -8 12 -17 12 -9 0
-13 3 -9 7 10 11 60 10 68 -1 6 -10 53 7 153 54 60 28 221 83 283 95 32 7 32
6 22 -21 -6 -15 -14 -32 -17 -38 -4 -6 -6 -21 -5 -32 2 -14 -7 -29 -24 -43
-19 -15 -22 -21 -10 -21 9 0 16 -4 16 -10 0 -5 -7 -10 -15 -10 -8 0 -15 -4
-15 -10 0 -17 -39 -50 -45 -39 -9 14 -47 -62 -41 -84 2 -9 0 -15 -4 -12 -5 3
-14 -3 -19 -14 -12 -21 -15 -61 -5 -61 9 0 34 28 34 39 0 6 10 10 22 8 15 -1
23 4 26 16 3 16 1 17 -17 7 -17 -9 -21 -8 -21 4 0 22 19 29 37 14 13 -10 17
-10 20 0 3 6 9 9 15 6 7 -5 9 2 4 20 -6 25 -5 26 34 26 22 0 40 4 40 9 0 5 7
12 16 15 8 3 12 2 9 -4 -15 -24 10 -6 53 38 96 97 131 181 123 292 -3 46 24
110 47 110 9 0 34 11 54 25 53 36 122 39 189 8 l51 -24 -48 -57 c-27 -31 -70
-81 -97 -111 -72 -80 -95 -113 -102 -146 l-7 -30 17 25 c36 51 191 196 230
214 22 11 58 31 80 45 39 25 81 48 140 79 17 8 49 28 73 45 76 51 273 148 294
145 27 -4 32 -25 30 -126 -1 -56 -8 -97 -20 -125 -17 -38 -26 -45 -101 -76
-45 -18 -84 -38 -88 -44 -3 -5 -35 -23 -72 -39 -36 -17 -71 -37 -77 -46 -7 -9
-27 -21 -45 -28 -22 -7 -33 -17 -31 -27 2 -11 -3 -14 -17 -10 -23 6 -89 -26
-73 -36 7 -4 -3 -7 -21 -8 -42 0 -100 -24 -74 -30 22 -6 12 -23 -14 -23 -11 0
-17 5 -14 10 3 6 -1 10 -9 10 -8 0 -18 -5 -22 -11 -3 -6 -17 -8 -30 -5 -16 4
-26 1 -33 -11 -7 -13 -10 -14 -11 -4 0 11 -13 12 -65 7 -83 -8 -95 -13 -95
-40 0 -34 23 -77 38 -71 26 10 45 -23 39 -68 -4 -31 -15 -50 -44 -77 -47 -43
-133 -90 -164 -90 -20 0 -135 -38 -322 -107 -104 -37 -307 -166 -307 -194 0
-10 -7 -19 -15 -19 -8 0 -15 -4 -15 -10 0 -5 -5 -10 -10 -10 -28 0 25 210 96
375 7 17 23 64 35 106 20 67 21 79 8 107 -12 27 -14 28 -26 14 -16 -21 -18 0
-3 29 9 15 7 19 -5 19 -18 0 -54 -75 -62 -130 -3 -19 -12 -47 -19 -62 -17 -32
-18 -48 -4 -48 6 0 11 10 11 23 1 16 2 18 6 5 7 -27 23 -21 23 8 0 16 4 23 12
18 8 -5 9 0 6 14 -4 12 -2 25 3 28 5 3 9 14 9 24 0 13 5 17 15 14 11 -5 13
-16 9 -46 -7 -42 -33 -121 -34 -102 0 16 -50 14 -50 -2 0 -7 5 -16 10 -19 14
-8 1 -113 -17 -145 -14 -24 -13 -15 3 25 7 18 6 19 -11 5 -17 -14 -18 -13 -12
3 4 10 1 30 -6 45 -8 15 -12 35 -10 44 3 12 -4 21 -21 28 -14 5 -26 14 -26 20
0 11 -71 13 -108 4 -13 -4 -21 -12 -18 -19 2 -7 2 -16 -2 -19 -5 -6 -54 69
-103 159 -58 107 -240 347 -311 410 -116 104 -194 155 -290 190 -40 15 -48 22
-53 49 -10 64 -35 266 -50 406 -39 377 -47 454 -65 580 -25 175 -36 230 -48
242 -13 13 -80 -16 -89 -39 -10 -24 13 -300 53 -653 49 -429 58 -525 51 -542
-3 -10 -26 -18 -62 -23 -237 -29 -550 -197 -996 -533 -173 -131 -393 -299
-479 -367 -205 -164 -280 -200 -410 -200 -118 0 -167 24 -263 125 -41 42 -90
104 -109 137 -204 347 -322 915 -322 1553 -1 663 95 1107 281 1299 l52 54 58
-5 c38 -3 86 -17 139 -41 45 -21 89 -34 98 -31 9 3 16 7 16 8 0 0 4 16 10 35
9 31 7 36 -28 70 -75 74 -199 113 -284 90 -127 -34 -191 -97 -278 -273 -130
-266 -188 -588 -197 -1099 -7 -391 14 -672 73 -962 113 -558 303 -924 538
-1041 70 -34 85 -38 179 -42 127 -5 185 6 293 59 96 47 124 67 459 329 99 78
399 299 507 375 121 84 333 213 406 247 87 42 251 88 308 88 45 0 49 -10 74
-205 12 -88 41 -277 65 -420 24 -143 49 -296 54 -340 6 -44 15 -96 20 -115 5
-19 19 -77 31 -129 12 -51 24 -101 27 -110 2 -9 -3 -5 -11 9 l-15 25 -1 -25
c-1 -15 -4 -19 -7 -10 -3 8 -12 22 -20 32 -11 12 -11 18 -3 23 9 6 9 9 1 14
-8 5 -8 16 0 39 8 25 8 35 -3 45 -11 12 -16 12 -28 -2 -13 -14 -15 -8 -18 57
l-3 72 -27 -6 c-38 -9 -44 -14 -38 -31 3 -8 1 -11 -4 -8 -12 8 -38 -19 -79
-83 -18 -28 -40 -52 -48 -52 -10 0 -13 -6 -9 -16 4 -12 2 -15 -9 -10 -13 4
-35 -20 -35 -38 0 -9 121 -3 126 6 3 4 10 8 16 8 7 0 6 -5 -1 -14 -7 -8 -8
-17 -3 -20 5 -3 9 -19 10 -36 0 -17 -3 -28 -7 -26 -4 3 -6 -11 -4 -31 2 -28 0
-34 -9 -25 -20 20 -31 13 -25 -17 5 -22 2 -31 -11 -36 -16 -7 -16 -8 0 -14 16
-5 15 -9 -7 -36 -14 -17 -24 -24 -23 -16 2 7 -3 16 -11 19 -10 3 -12 0 -8 -12
7 -18 -8 -22 -19 -5 -4 8 -9 7 -15 -2 -4 -8 -1 -17 9 -25 14 -10 12 -11 -10
-11 -14 0 -32 -6 -40 -12 -7 -6 -22 -19 -33 -29 -11 -9 -35 -39 -54 -65 l-34
-49 29 15 c16 8 57 43 91 76 35 34 69 61 76 61 8 0 18 -16 24 -35 7 -22 8 -35
1 -35 -5 0 -7 -10 -4 -22 3 -13 3 -18 0 -11 -3 6 -23 -8 -49 -35 -104 -111
-134 -148 -135 -159 0 -7 -4 -13 -9 -13 -5 0 -16 -16 -25 -35 -9 -19 -22 -32
-29 -29 -14 5 -137 -82 -137 -97 0 -5 -6 -9 -14 -9 -18 0 -130 -121 -183 -199
-22 -32 -24 -43 -19 -101 15 -157 27 -178 46 -82 34 166 73 299 93 320 19 21
133 82 152 82 20 0 -22 -222 -87 -455 -64 -231 -98 -368 -113 -453 -16 -94
-25 -316 -12 -328 13 -13 7 -45 -12 -66 l-20 -20 -38 62 c-21 34 -42 68 -48
74 -16 18 -44 66 -76 131 -17 33 -28 48 -25 33 3 -14 2 -28 -2 -30 -4 -2 -32
-37 -61 -78 -30 -41 -58 -76 -63 -78 -4 -2 -8 -10 -8 -17 0 -7 -6 -15 -14 -18
-18 -7 -155 -214 -196 -297 -50 -101 -7 -51 75 85 38 63 75 115 82 115 7 0 10
6 7 14 -3 8 0 17 7 22 7 4 10 3 5 -4 -3 -6 -2 -22 4 -37 8 -20 7 -24 -3 -18
-6 4 -3 -6 8 -22 18 -28 20 -47 20 -250 0 -193 -3 -231 -22 -310 -12 -49 -32
-155 -43 -235 -11 -80 -25 -169 -30 -199 -13 -70 -13 -262 0 -281 8 -13 10
-12 10 3 0 9 4 17 9 17 10 0 37 61 33 75 -2 5 0 7 4 3 4 -5 22 3 40 17 18 14
37 25 43 25 27 0 36 -48 35 -180 0 -114 -5 -152 -28 -245 -32 -124 -65 -200
-85 -200 -22 0 -41 86 -30 132 5 21 9 56 9 78 1 22 7 57 15 78 12 35 12 38 -3
32 -34 -13 -127 -35 -148 -35 -13 0 -25 8 -28 18 -5 18 -21 212 -31 377 -7
119 -33 344 -41 357 -3 5 -16 8 -27 6 -12 -1 -27 1 -34 5 -6 4 -19 4 -28 1
-15 -6 -16 -24 -12 -178 3 -137 9 -192 29 -276 34 -139 65 -240 101 -325 49
-116 108 -307 114 -365 5 -51 -10 -166 -22 -179 -9 -8 -83 80 -106 126 -11 23
-26 47 -34 53 -11 9 -13 5 -11 -26 3 -29 13 -45 54 -83 82 -75 86 -94 50 -267
-17 -86 -19 -114 -10 -152 11 -48 2 -92 -19 -92 -6 0 -23 8 -37 18 -35 24 -63
36 -81 33 -7 -1 -10 2 -6 8 3 7 -2 11 -14 11 -12 0 -21 6 -22 13 0 6 -4 3 -9
-8 -9 -21 -8 -35 10 -175 17 -128 17 -130 44 -130 20 0 25 -8 39 -62 9 -35 33
-124 53 -198 54 -202 144 -618 199 -920 13 -69 24 -120 25 -115 1 6 2 28 3 49
1 22 7 41 13 43 7 2 10 -6 6 -23 -4 -23 -3 -25 14 -16 15 8 20 5 31 -15 17
-32 7 -45 -14 -18 -15 19 -15 18 -9 -13 3 -19 14 -46 24 -60 23 -34 68 -171
77 -237 7 -45 8 -48 18 -27 8 17 7 54 -3 135 -24 188 -15 286 25 274 9 -3 22
-64 40 -176 3 -19 9 -39 12 -45 4 -6 9 -29 11 -51 2 -22 8 -44 13 -49 5 -6 9
-23 9 -39 0 -16 4 -26 10 -22 6 3 10 1 10 -4 0 -6 -4 -11 -8 -11 -4 0 -5 -26
-1 -57 4 -32 8 -98 8 -148 2 -98 9 -156 41 -340 11 -66 25 -122 30 -123 6 -2
10 -12 10 -22 0 -10 4 -21 10 -25 16 -10 49 18 52 45 2 16 10 26 24 28 16 2
23 -5 32 -36 7 -22 19 -45 27 -52 8 -7 15 -23 15 -35 0 -13 12 -38 26 -55 19
-22 28 -45 29 -75 1 -23 6 -48 9 -54 4 -7 -1 -11 -13 -11 -20 0 -28 -23 -29
-80 -1 -19 1 -21 8 -10 5 8 10 23 10 33 0 9 7 17 15 17 18 0 20 -21 3 -38 -7
-7 -8 -12 -2 -12 16 0 34 22 34 41 0 9 7 20 16 23 8 3 13 10 10 15 -6 9 8 20
69 59 36 23 49 26 53 13 3 -9 7 -9 18 0 17 14 19 2 1 -15 -7 -7 -18 -11 -25
-8 -18 6 -14 -15 5 -22 15 -6 14 -8 -2 -20 -10 -7 -28 -11 -39 -9 -15 3 -17 2
-8 -4 9 -7 -4 -20 -45 -48 -32 -21 -76 -50 -98 -65 -22 -15 -71 -44 -110 -65
-228 -124 -543 -342 -719 -498 -85 -76 -98 -90 -194 -199 -42 -49 -80 -88 -85
-88 -5 0 -21 -9 -37 -20 -15 -11 -92 -47 -171 -81 -457 -196 -542 -236 -644
-304 -179 -120 -316 -275 -419 -474 -90 -175 -129 -282 -232 -636 -30 -104
-77 -262 -103 -350 -27 -88 -81 -290 -120 -450 -39 -159 -87 -339 -106 -400
-229 -709 -384 -1090 -730 -1800 -216 -444 -385 -803 -385 -821 0 -2 27 -4 59
-4 53 0 60 2 67 23 7 23 58 131 194 412 154 319 222 460 285 595 35 74 82 176
105 225 23 50 58 126 77 170 19 44 40 94 48 110 204 465 385 1003 524 1565 60
240 93 360 161 580 21 69 50 166 65 215 104 346 178 519 291 676 142 197 282
291 749 499 223 100 232 101 175 22 -16 -23 -30 -44 -30 -47 0 -7 -207 -313
-236 -349 -53 -65 -171 -178 -223 -214 -53 -36 -55 -37 -149 -37 -89 0 -96 -1
-105 -23 -17 -37 18 -74 86 -91 51 -14 61 -13 114 3 92 29 152 69 245 163 141
143 181 197 360 486 155 251 222 341 347 467 155 156 408 344 676 502 159 94
198 113 203 98 8 -22 74 -90 88 -90 21 0 18 8 -21 53 -38 44 -39 46 -27 64 8
13 120 78 152 88 19 6 21 4 15 -17 -20 -70 -23 -74 -65 -70 -31 3 -40 1 -40
-11 0 -18 30 -30 54 -21 20 8 20 9 -3 -57 -115 -335 -316 -748 -497 -1021
-149 -225 -313 -428 -492 -610 -58 -59 -109 -114 -114 -121 -11 -20 44 -71 69
-63 25 8 243 222 338 331 86 100 267 349 337 465 131 217 225 405 353 704 44
104 86 191 92 193 6 2 14 -6 18 -17 4 -12 22 -47 40 -78 18 -32 36 -73 40 -92
42 -216 98 -353 175 -426 65 -62 236 -192 306 -234 l31 -18 -8 -63 c-7 -60
-41 -261 -89 -529 -11 -63 -29 -176 -40 -250 -11 -74 -26 -178 -34 -230 -16
-110 -33 -287 -41 -445 -3 -60 -11 -147 -16 -192 -13 -102 -4 -151 62 -327 97
-257 205 -455 308 -568 l52 -57 112 -25 c307 -71 531 -73 787 -6 255 67 541
227 900 506 271 209 462 340 481 328 5 -3 17 0 25 7 13 11 15 10 12 -7 -1 -10
2 -18 9 -17 6 1 13 -4 16 -11 4 -10 -1 -12 -16 -9 -21 5 -21 4 3 -13 13 -10
40 -18 59 -18 18 0 29 -2 22 -4 -6 -2 -11 -7 -11 -12 0 -12 58 -30 78 -24 13
4 14 3 4 -4 -10 -7 -4 -13 23 -26 20 -10 39 -15 42 -12 4 3 1 6 -5 6 -7 0 -12
4 -12 10 0 6 10 5 25 -2 16 -7 21 -14 14 -19 -19 -11 177 -101 349 -158 85
-28 178 -39 166 -19 -6 9 5 14 54 22 18 3 32 1 32 -4 0 -6 -5 -10 -11 -10 -6
0 -41 -20 -77 -43 -37 -24 -113 -74 -169 -111 -125 -82 -288 -204 -549 -411
-109 -87 -228 -182 -264 -210 -67 -53 -280 -212 -500 -373 -179 -131 -270
-202 -395 -310 -60 -52 -134 -115 -163 -140 -262 -225 -537 -355 -1067 -506
-90 -26 -275 -64 -510 -105 -772 -136 -918 -196 -1220 -500 l-110 -111 75 0
76 0 64 66 c161 162 343 266 569 324 105 26 182 41 516 100 504 89 641 124
995 255 72 26 277 119 350 157 106 56 255 158 320 219 156 145 441 374 691
554 146 105 310 231 628 482 36 29 125 97 196 151 409 310 534 388 690 431 82
23 332 122 390 155 22 12 56 32 75 43 32 18 61 20 309 27 151 4 331 11 400 16
69 6 178 12 241 15 152 8 207 15 190 25 -7 4 -9 13 -6 19 5 7 2 10 -6 9 -16
-4 -22 36 -9 59 8 14 9 10 5 -17 -4 -26 -3 -31 5 -20 6 9 11 10 11 3 0 -6 28
-40 63 -76 l62 -64 -125 -7 c-106 -5 -262 -16 -425 -30 -184 -16 -406 -27
-535 -25 -258 2 -272 -2 -84 -26 138 -17 223 -31 314 -50 128 -27 306 -57 395
-66 161 -17 372 -21 418 -8 23 7 46 12 50 10 5 -1 7 4 5 10 -2 7 -21 18 -41
25 -21 7 -51 22 -66 34 -36 25 -41 25 -41 1 0 -11 -4 -23 -10 -26 -5 -3 -10 0
-10 8 0 8 -11 18 -25 21 -14 4 -23 11 -20 16 4 6 16 3 31 -6 21 -14 24 -14 24
-1 0 18 24 29 37 16 5 -5 14 4 21 25 9 25 20 36 40 40 60 13 101 8 177 -22 44
-17 152 -56 240 -87 201 -71 246 -92 370 -173 106 -70 556 -404 715 -532 52
-42 154 -120 225 -174 72 -54 144 -109 160 -121 157 -120 244 -185 283 -213
165 -118 361 -278 507 -414 144 -133 253 -205 478 -314 209 -100 449 -181 799
-269 119 -30 229 -55 245 -55 15 0 64 -7 108 -15 44 -8 168 -31 275 -50 486
-88 656 -163 891 -392 l66 -64 69 3 69 3 -86 95 c-151 168 -354 302 -554 364
-182 57 -273 77 -728 156 -259 46 -340 64 -552 121 -362 99 -773 288 -915 421
-189 176 -401 352 -610 505 -290 212 -731 547 -821 623 -42 36 -116 94 -164
130 -47 36 -108 82 -136 103 -216 165 -402 275 -565 336 -44 16 -100 38 -125
49 -24 11 -71 28 -104 37 -88 24 -192 64 -205 80 -14 17 52 42 160 60 99 18
248 53 270 65 10 5 20 7 23 4 3 -3 65 11 138 31 107 30 133 35 140 24 6 -10 9
-10 9 -2 0 10 85 43 109 43 6 0 -57 -57 -88 -80 -18 -13 -19 -21 -11 -67 5
-29 5 -66 0 -82 -4 -16 -7 -31 -5 -33 2 -2 6 -26 9 -53 7 -56 28 -81 79 -90
18 -4 43 -2 57 4 24 9 24 10 3 10 -12 1 -25 6 -28 11 -4 6 -11 8 -16 5 -5 -4
-20 2 -34 12 -19 14 -24 27 -25 58 0 22 -4 46 -9 54 -5 7 -4 29 1 50 5 20 12
47 15 61 3 14 21 45 39 69 19 24 34 47 34 51 0 6 12 13 78 42 15 7 34 20 42
28 8 9 30 22 49 30 l34 14 -59 14 c-33 8 -68 22 -79 32 -11 10 -33 20 -50 23
-63 12 -91 20 -110 33 -19 14 -19 14 1 14 11 0 25 -5 32 -12 7 -7 12 -9 12 -5
0 4 17 1 38 -7 20 -8 58 -20 84 -26 26 -7 45 -16 42 -21 -3 -5 2 -6 10 -3 8 3
25 0 38 -7 13 -7 32 -14 42 -16 22 -4 207 -96 245 -123 15 -9 40 -26 57 -36
17 -11 47 -32 65 -47 19 -15 57 -42 86 -60 50 -31 269 -192 463 -340 380 -291
648 -425 945 -475 152 -25 424 -22 536 6 47 11 110 24 140 28 30 4 66 13 80
20 34 17 103 94 162 181 82 122 222 437 263 594 25 97 27 39 -16 560 -13 155
-98 747 -160 1106 -12 73 -19 140 -15 150 5 12 9 14 12 6 6 -16 33 -17 33 -2
0 6 9 8 20 4 11 -4 20 -2 20 4 0 6 -4 11 -8 11 -5 0 -14 11 -21 24 -14 26 -57
41 -64 22 -3 -6 -8 -3 -12 8 -5 11 -3 27 4 37 14 23 4 69 -14 69 -20 0 -23 9
-34 91 -5 41 -21 128 -36 194 -37 167 -38 178 -26 170 6 -3 11 -13 11 -21 0
-23 25 -16 42 14 9 15 25 37 35 49 18 21 47 57 111 137 18 23 43 52 55 65 12
13 21 28 20 31 -4 12 104 119 113 112 4 -4 4 1 1 10 -4 11 -2 17 5 15 6 -1 17
8 23 20 7 13 15 20 18 17 3 -4 9 5 13 20 3 14 10 23 16 20 12 -8 37 27 31 43
-3 7 2 13 10 13 8 0 20 13 26 30 5 16 15 30 20 30 6 0 12 15 12 33 1 17 3 24
6 15 2 -10 11 -18 19 -18 8 0 14 -5 14 -10 0 -13 123 -343 154 -413 12 -29 36
-86 51 -127 36 -91 246 -508 305 -605 47 -76 134 -208 195 -295 129 -184 503
-590 544 -590 12 0 51 58 51 75 0 9 -51 69 -114 133 -165 170 -233 247 -320
363 -227 302 -427 652 -571 999 -26 63 -53 129 -60 145 -21 48 -103 277 -111
310 -7 29 -7 29 17 14 13 -9 48 -31 78 -49 l53 -33 -6 -46 c-6 -41 -5 -43 9
-26 8 11 15 26 15 33 0 22 36 12 99 -28 33 -22 80 -49 104 -61 64 -33 262
-155 352 -217 131 -91 252 -193 386 -324 132 -129 162 -168 298 -388 205 -330
283 -439 397 -554 159 -160 293 -216 400 -165 38 19 63 63 48 86 -10 15 -23
17 -86 15 -66 -4 -81 -1 -129 23 -103 53 -284 259 -429 490 -34 55 -75 120
-91 144 -16 24 -27 46 -25 49 3 2 80 -28 173 -68 367 -158 538 -255 666 -378
153 -147 278 -397 395 -787 108 -358 162 -553 246 -885 116 -461 202 -726 391
-1205 140 -355 243 -586 455 -1020 67 -137 153 -315 190 -395 37 -80 92 -197
123 -260 30 -63 57 -123 60 -133 5 -14 18 -17 72 -17 37 0 64 3 62 8 -8 13
-167 345 -167 348 0 2 -45 96 -226 472 -126 261 -289 613 -343 742 -18 41 -38
89 -45 105 -8 17 -25 60 -39 95 -14 36 -42 108 -62 160 -61 155 -160 436 -203
575 -82 259 -93 299 -171 617 -44 178 -90 350 -101 383 -11 33 -37 116 -56
185 -149 533 -215 701 -358 920 -112 171 -255 291 -482 407 -54 28 -229 108
-389 179 -311 137 -292 125 -426 269 -170 184 -420 381 -702 551 -26 16 -70
43 -97 59 -119 73 -260 156 -277 163 -17 6 -138 76 -191 109 -19 11 -21 17
-11 34 6 11 13 18 16 15 3 -3 0 -13 -8 -22 -13 -16 -12 -16 9 -3 21 13 92 101
92 114 0 3 17 29 39 58 37 50 163 255 212 347 13 25 26 47 29 50 11 10 39 58
80 136 23 43 55 102 70 129 15 28 51 95 80 150 64 120 83 143 127 151 44 8 50
25 52 148 1 103 5 132 23 179 10 25 15 28 37 22 14 -4 43 -8 64 -9 22 0 37 -6
37 -13 0 -15 59 -47 68 -38 4 4 7 66 6 138 -1 98 -7 155 -23 220 -25 104 -27
210 -6 292 18 66 27 80 67 89 20 5 31 1 45 -17 24 -30 48 -39 78 -27 30 11 31
24 6 51 -10 11 -26 37 -36 57 -10 20 -24 48 -31 62 -7 14 -12 43 -11 64 1 21
3 34 5 27 4 -12 56 54 83 107 10 19 15 41 12 49 -4 10 -2 14 4 10 12 -7 76 74
87 110 8 26 -30 205 -90 422 -62 222 -63 229 -64 282 0 41 4 50 34 72 37 29
75 41 92 30 12 -8 54 -125 54 -148 0 -17 -53 -26 -62 -12 -4 7 -8 -5 -8 -25 0
-23 5 -38 13 -39 62 -6 117 -6 117 -1 -2 59 -77 312 -92 312 -5 0 -6 12 -2 28
4 18 3 23 -4 14 -7 -10 -9 -6 -9 15 0 15 -8 82 -16 148 -9 65 -14 122 -11 126
8 13 -17 22 -29 10 -18 -18 -67 -14 -68 7 -1 50 -8 102 -16 118 -5 11 -8 156
-6 324 3 402 -4 440 -92 497 -27 18 -52 38 -56 45 -4 7 -39 108 -77 223 -70
209 -141 405 -182 500 -33 78 -37 87 -53 130 -8 22 -29 69 -45 105 -16 36 -41
90 -55 120 -13 30 -64 123 -112 205 -48 83 -97 167 -108 188 -15 26 -23 34
-30 25 -5 -9 -6 -6 -3 8 4 12 -1 28 -14 41 -30 33 -55 102 -42 115 8 8 3 17
-18 33 -26 20 -80 82 -150 175 -75 100 -112 148 -135 172 -13 15 -32 40 -42
55 -10 16 -25 33 -33 40 -10 8 -12 15 -5 22 9 9 388 91 950 205 465 95 496 99
679 80 174 -18 766 -21 1016 -5 698 45 880 87 880 204 0 44 -45 82 -116 98
-78 18 -609 18 -824 1 -258 -22 -694 -77 -1005 -128 -89 -14 -153 -20 -158
-15 -6 6 9 27 37 53 l46 45 0 72 c0 84 -18 127 -77 185 -108 105 -312 170
-618 197 -327 28 -718 146 -820 248 -46 45 -55 68 -55 137 0 48 4 58 37 95 50
55 77 67 180 79 194 22 420 75 444 103 13 17 20 18 50 9 97 -32 283 -63 409
-68 121 -5 139 -4 170 14 50 27 80 76 80 128 0 37 -5 47 -41 78 -100 85 -334
118 -588 81 -224 -33 -416 -91 -625 -190 -62 -30 -91 -37 -134 -37 -73 1 -171
12 -202 24 -40 15 -80 59 -80 88 0 24 30 93 63 145 36 57 173 220 264 313 85
88 103 112 103 137 0 59 10 58 -317 50 -295 -8 -453 -2 -453 16 0 15 249 135
338 163 180 57 343 70 434 36 69 -25 87 -56 98 -163 5 -45 11 -90 15 -99 15
-39 81 -29 111 17 39 59 -6 245 -74 311 -44 43 -79 59 -177 79 -127 26 -229
20 -421 -24 -211 -49 -345 -65 -549 -65 -167 0 -294 13 -418 43 -135 33 -182
73 -182 152 0 62 10 69 100 69 97 0 261 25 337 50 162 55 278 164 278 263 0
50 -12 70 -57 98 -92 55 -354 10 -621 -106 -60 -27 -81 -28 -67 -6 3 6 51 42
105 81 54 38 143 105 197 147 101 79 181 140 433 327 80 60 156 119 170 131
14 13 79 61 145 109 99 70 147 96 270 147 757 312 1198 557 1275 710 26 51 25
71 -6 108 -22 27 -33 31 -72 31 -108 0 -248 -48 -460 -157 -225 -115 -462
-264 -672 -423 -41 -31 -154 -116 -250 -188 -96 -71 -249 -187 -340 -256 -91
-70 -208 -158 -260 -196 -52 -38 -180 -135 -285 -215 -257 -196 -308 -235
-390 -296 -38 -29 -128 -99 -200 -155 -71 -57 -191 -150 -265 -208 -155 -121
-285 -234 -294 -255 -4 -9 6 -28 27 -49 l34 -34 44 21 c24 11 91 50 149 86
315 195 590 351 590 334 0 -5 -9 -27 -20 -49 -27 -54 -28 -175 -1 -228 59
-114 205 -176 501 -213 94 -11 329 -7 380 7 22 7 21 3 -17 -38 -45 -50 -73
-97 -73 -125 0 -36 40 -84 88 -106 45 -21 61 -22 314 -22 296 0 276 7 206 -70
-148 -162 -225 -288 -250 -408 -10 -49 -9 -58 14 -109 40 -87 127 -141 247
-152 36 -4 66 -8 68 -10 2 -1 -7 -25 -19 -52 -27 -62 -30 -180 -5 -237 27 -62
122 -153 196 -188 90 -43 244 -94 344 -114 99 -21 121 -30 92 -41 -11 -4 -22
-10 -25 -13 -3 -3 -26 -23 -52 -43 -77 -63 -109 -159 -73 -227 31 -61 138
-124 270 -160 132 -35 353 -81 395 -81 21 0 41 -4 44 -9 7 -10 -30 -20 -239
-65 -624 -135 -767 -166 -820 -176 -33 -6 -70 -13 -82 -16 -18 -3 -23 0 -23
17 0 15 5 19 15 15 8 -3 15 -2 15 3 0 12 -368 371 -380 371 -6 0 -15 11 -20
25 -5 14 -15 25 -23 25 -7 0 -20 8 -28 18 -18 20 -119 112 -180 164 -24 20
-59 51 -78 68 -84 78 -495 369 -646 459 -102 61 -147 82 -161 77 -9 -3 -12 -1
-9 4 4 6 -7 13 -24 16 -17 4 -28 11 -25 16 4 5 -2 8 -12 7 -18 -3 -64 28 -64
42 0 4 27 27 59 51 33 23 62 53 66 66 3 12 10 22 16 22 13 0 39 25 39 38 0 5
9 21 20 35 30 37 37 107 15 141 -12 17 -21 23 -25 16 -4 -7 -13 -2 -24 15 -23
35 -32 25 -12 -14 36 -68 15 -140 -60 -210 -56 -53 -113 -68 -201 -55 -45 7
-78 7 -88 1 -12 -7 -25 -3 -46 12 -15 12 -35 21 -43 21 -8 0 -17 4 -21 10 -3
5 -12 7 -21 3 -9 -3 -14 0 -12 8 2 10 -9 15 -37 17 -48 4 -70 22 -80 65 l-7
32 -13 -45 c-7 -25 -13 -39 -14 -32 -1 6 -12 12 -25 12 -14 0 -28 5 -31 11 -9
14 42 89 60 89 31 0 13 28 -36 55 -34 18 -55 38 -63 56 -7 21 -15 27 -28 23
-24 -7 -45 6 -27 17 10 6 11 9 2 9 -7 0 -13 4 -13 10 0 5 10 9 23 7 13 -1 21
3 20 10 -2 10 3 10 22 1 14 -6 25 -15 25 -20 0 -4 7 -8 15 -8 9 0 15 -9 15
-25 0 -18 5 -25 18 -25 11 0 27 -9 37 -20 10 -11 21 -17 26 -15 29 18 -113
158 -276 270 -47 33 -93 66 -100 73 -8 7 -18 13 -22 14 -4 0 -36 21 -71 45
-34 25 -84 56 -110 69 -26 14 -39 23 -29 20 10 -4 15 -2 12 4 -14 23 -165 2
-165 -22 0 -4 -5 -8 -11 -8 -17 0 -60 -53 -54 -67 2 -7 1 -12 -3 -11 -4 1 -16
-3 -28 -9 -24 -14 -36 -7 -67 35 -13 17 -61 70 -105 118 -45 47 -88 98 -95
112 -7 15 -20 25 -28 23 -8 -2 -23 -5 -34 -6 -13 -1 -19 -8 -17 -20 2 -9 -1
-14 -7 -11 -26 16 10 107 124 316 54 98 315 555 352 615 13 22 83 137 155 255
112 186 197 324 283 460 167 266 166 264 435 530 225 222 307 308 480 507 67
77 316 386 406 505 102 135 184 287 184 343 0 41 -39 85 -75 85 -47 0 -180
-91 -265 -181 -256 -271 -392 -439 -698 -859 -186 -255 -307 -430 -357 -515
-28 -48 -29 -49 -36 -25 -4 14 -7 36 -8 50 -1 14 -12 49 -26 78 -21 46 -31 56
-80 78 -50 23 -66 26 -155 22 -96 -3 -101 -4 -202 -56 -119 -60 -175 -100
-324 -234 -304 -271 -628 -459 -790 -458 -103 1 -174 80 -174 193 0 115 69
315 152 439 33 49 53 66 157 127 227 135 398 281 446 384 24 50 26 64 19 100
-8 36 -15 45 -54 64 -56 28 -71 28 -140 0 -126 -52 -301 -223 -454 -445 -75
-107 -140 -185 -274 -325 -98 -101 -231 -241 -297 -312 -189 -204 -258 -275
-266 -275 -4 0 -10 12 -14 28 -3 15 -40 90 -81 167 -163 305 -263 544 -265
634 -2 50 17 125 43 179 32 62 118 146 186 179 63 30 181 44 206 24 7 -6 33
-14 57 -17 51 -7 75 11 81 61 3 28 -2 32 -62 63 -63 32 -69 33 -160 30 -82 -3
-104 -8 -161 -36 -148 -71 -204 -132 -310 -339 -83 -161 -153 -272 -252 -398
-208 -264 -344 -374 -415 -336 -11 6 -31 37 -43 68 -20 52 -22 75 -21 208 1
83 9 203 18 268 16 112 16 119 -1 137 -21 24 -82 37 -98 21 -20 -20 -47 -205
-53 -371 -7 -178 4 -259 45 -351 45 -99 100 -129 217 -114 61 7 172 73 257
153 71 67 258 304 311 395 17 29 32 45 38 39 5 -5 24 -51 43 -102 19 -51 81
-181 136 -289 136 -262 162 -317 184 -378 l19 -52 -50 -57 c-169 -195 -351
-479 -410 -640 -27 -74 -41 -175 -30 -218 4 -15 24 -37 47 -53 38 -25 43 -26
101 -15 73 14 124 39 190 95 192 161 348 568 298 776 -12 49 -11 54 13 90 14
21 58 73 98 117 161 176 188 204 311 333 70 74 130 132 133 129 3 -2 -2 -38
-11 -79 -61 -288 126 -488 393 -421 90 23 232 90 370 176 50 31 93 56 96 56 3
0 3 -35 0 -77 -9 -139 28 -204 123 -219 111 -16 241 42 488 217 91 66 168 119
171 119 10 0 -14 -44 -123 -225 -302 -499 -351 -580 -432 -725 -48 -85 -120
-213 -160 -285 -40 -71 -102 -189 -138 -260 l-64 -130 -66 1 c-70 1 -176 29
-167 45 3 4 -7 11 -22 14 -15 4 -37 11 -48 16 -36 16 -117 30 -139 24 -15 -5
-17 -4 -7 3 16 11 -92 33 -155 31 -34 -1 -36 -2 -14 -9 14 -4 18 -9 10 -10
-21 -3 -51 -6 -76 -8 -14 -1 -21 -8 -20 -19 1 -14 -7 -18 -36 -18 -25 0 -38
-4 -38 -13 0 -9 -15 -13 -52 -11 -29 1 -75 -3 -102 -10 -26 -6 -58 -9 -70 -6
-15 5 -17 4 -7 -3 11 -8 4 -15 -30 -32 -24 -11 -33 -19 -20 -16 13 3 36 -1 50
-8 24 -12 147 -13 178 -1 7 2 15 0 18 -5 9 -15 -27 -28 -66 -23 -23 4 -54 -1
-79 -11 -25 -10 -40 -12 -40 -5 0 6 -9 8 -21 4 -18 -6 -19 -4 -10 13 10 18 8
19 -32 10 -23 -5 -91 -13 -152 -19 -60 -5 -132 -16 -159 -24 -69 -21 -114 -18
-161 8 -34 19 -52 22 -120 19 -189 -7 -255 3 -255 39 0 21 -23 41 -41 35 -8
-2 -26 -7 -41 -10 -31 -7 -38 -26 -11 -26 16 0 16 -1 1 -16 -13 -13 -54 -20
-170 -30 -196 -18 -404 -40 -543 -59 -60 -9 -134 -17 -162 -20 -53 -4 -53 -4
-53 25 0 19 5 30 15 31 34 3 77 19 96 35 13 12 14 20 5 49 -9 28 -14 33 -32
29 -12 -3 -25 -1 -28 5 -7 11 -40 -16 -48 -40 -16 -46 -22 272 -20 1159 2
1271 25 2295 53 2312 12 8 144 38 544 125 165 36 338 74 385 85 409 94 1032
208 1270 232 123 13 125 13 134 41 8 21 7 35 -5 55 -14 26 -18 27 -114 30
-107 3 -188 -8 -575 -80 -212 -40 -835 -171 -1368 -289 -151 -34 -276 -59
-278 -56 -3 3 -1 90 5 193 6 104 11 215 11 247 l0 57 -65 0 -64 0 -5 -32z
m5364 -754 c0 -21 -108 -160 -375 -483 -123 -149 -264 -301 -265 -286 0 10
112 162 257 346 93 119 212 259 297 351 66 71 86 88 86 72z m-2330 -669 c0 -8
-3 -15 -7 -15 -5 0 -39 -29 -77 -64 -68 -63 -157 -121 -176 -114 -18 6 213
208 238 208 13 0 22 -6 22 -15z m-3861 -332 c-24 -69 -51 -135 -62 -147 -18
-21 -18 -21 -12 32 8 75 52 207 83 256 l27 41 3 -28 c2 -16 -16 -85 -39 -154z
m8291 94 c0 -31 -727 -422 -772 -415 -17 2 -4 14 63 57 214 138 437 261 604
334 52 22 105 34 105 24z m-3482 -318 c40 -14 44 -28 27 -86 -8 -27 -15 -74
-15 -105 0 -52 -3 -59 -27 -75 -16 -9 -53 -36 -83 -59 -108 -81 -367 -250
-445 -290 -44 -23 -97 -44 -117 -47 -35 -5 -39 -3 -45 21 -17 71 47 227 134
321 93 102 272 251 339 283 92 43 176 57 232 37z m-2370 -1056 c-16 -107 -49
-206 -100 -307 -107 -209 -340 -382 -268 -199 29 73 113 223 187 335 77 114
165 227 179 228 8 0 8 -17 2 -57z m4026 -259 c69 -27 -106 -122 -273 -149 -99
-16 -301 -31 -301 -22 0 30 362 152 505 170 17 2 35 5 42 6 6 0 18 -2 27 -5z
m-3171 -661 c-7 -2 -19 -2 -25 0 -7 3 -2 5 12 5 14 0 19 -2 13 -5z m-98 -33
c-3 -5 -12 -10 -20 -10 -8 0 -17 5 -20 10 -4 6 5 10 20 10 15 0 24 -4 20 -10z
m-1285 -116 c0 -8 -4 -12 -10 -9 -5 3 -10 10 -10 16 0 5 5 9 10 9 6 0 10 -7
10 -16z m1037 -30 c-3 -3 -12 -4 -19 -1 -8 3 -5 6 6 6 11 1 17 -2 13 -5z
m-252 -14 c-3 -5 -13 -10 -21 -10 -8 0 -14 5 -14 10 0 6 9 10 21 10 11 0 17
-4 14 -10z m-100 -90 c-3 -5 -12 -10 -20 -10 -8 0 -17 5 -20 10 -4 6 5 10 20
10 15 0 24 -4 20 -10z m-1845 -29 c0 -19 -25 -31 -47 -24 -9 3 -10 10 -3 24
14 25 50 25 50 0z m1871 -44 c-10 -9 -11 -8 -5 6 3 10 9 15 12 12 3 -3 0 -11
-7 -18z m8 -28 c11 2 11 0 0 -12 -12 -12 -17 -12 -36 0 -30 20 -30 38 0 21 12
-7 28 -11 36 -9z m-1888 -26 c-12 -20 -14 -14 -5 12 4 9 9 14 11 11 3 -2 0
-13 -6 -23z m1949 -18 c11 -13 10 -14 -4 -9 -9 3 -16 10 -16 15 0 13 6 11 20
-6z m2 -37 c6 -2 8 -10 4 -17 -6 -9 -13 -6 -27 10 -22 26 -26 47 -4 26 8 -9
20 -17 27 -19z m-1695 -143 c2 -18 -2 -37 -7 -40 -6 -4 -10 6 -10 24 0 16 -3
37 -6 45 -4 11 -2 15 7 11 8 -3 15 -21 16 -40z m-915 21 c23 -17 13 -26 -29
-26 -37 0 -41 7 -15 26 21 16 23 16 44 0z m2075 -88 c-3 -8 -6 -5 -6 6 -1 11
2 17 5 13 3 -3 4 -12 1 -19z m692 -22 c-3 -3 -11 5 -18 17 -13 21 -12 21 5 5
10 -10 16 -20 13 -22z m-2769 -26 c0 -5 -5 -10 -11 -10 -5 0 -7 5 -4 10 3 6 8
10 11 10 2 0 4 -4 4 -10z m4905 -6 c13 -3 31 -17 40 -30 8 -13 23 -24 33 -24
32 0 43 -20 27 -50 -16 -32 -33 -40 -81 -40 -39 0 -66 12 -95 41 -10 10 -23
19 -29 19 -16 0 -11 45 8 67 20 23 42 33 60 27 8 -2 24 -7 37 -10z m-2770 -24
c3 -5 1 -10 -4 -10 -6 0 -11 5 -11 10 0 6 2 10 4 10 3 0 8 -4 11 -10z m6180
-80 c49 -6 114 -18 145 -27 49 -14 52 -17 31 -25 -44 -16 -328 32 -315 53 7
11 28 11 139 -1z m-8765 -10 c-8 -5 -19 -10 -25 -10 -5 0 -3 5 5 10 8 5 20 10
25 10 6 0 3 -5 -5 -10z m4450 -33 c0 -5 -4 -5 -10 -2 -5 3 -10 14 -10 23 0 15
2 15 10 2 5 -8 10 -19 10 -23z m-439 -90 c-10 -9 -11 -8 -5 6 3 10 9 15 12 12
3 -3 0 -11 -7 -18z m-6140 -102 c124 -80 327 -310 415 -469 28 -52 34 -72 29
-96 -4 -17 -11 -28 -16 -25 -9 6 -40 -8 -67 -31 -48 -39 -100 -91 -110 -109
-6 -11 -12 -14 -12 -7 0 7 -17 0 -42 -18 -22 -16 -50 -30 -60 -30 -12 0 -22
-9 -25 -21 -3 -12 -11 -18 -19 -15 -8 3 -14 -1 -14 -10 0 -9 5 -12 11 -8 9 5
10 -6 5 -38 -5 -34 -3 -48 9 -58 8 -7 15 -22 15 -33 0 -15 14 -1 44 44 66 95
144 185 203 232 28 23 60 59 70 79 10 21 21 38 24 38 6 0 39 -66 39 -80 0 -5
-7 -7 -16 -3 -8 3 -13 12 -10 19 3 8 2 14 -3 14 -14 0 -33 -29 -26 -40 4 -6 1
-9 -6 -8 -7 2 -29 -27 -50 -65 -21 -37 -54 -90 -74 -117 -26 -35 -35 -56 -30
-70 4 -13 2 -19 -5 -18 -6 2 -24 -20 -39 -49 -15 -29 -34 -59 -41 -68 -7 -8
-10 -22 -6 -30 3 -9 2 -13 -3 -10 -5 3 -12 1 -15 -4 -4 -5 2 -12 11 -14 14 -4
14 -5 -3 -6 -23 -1 -34 -19 -34 -54 0 -43 -19 0 -33 78 -9 44 -25 123 -36 175
-52 237 -112 577 -146 818 -16 122 -18 152 -9 152 3 0 37 -20 75 -45z m1571
13 c-8 -8 -9 -4 -5 13 4 13 8 18 11 10 2 -7 -1 -18 -6 -23z m4458 22 c-8 -5
-19 -10 -25 -10 -5 0 -3 5 5 10 8 5 20 10 25 10 6 0 3 -5 -5 -10z m-2450 -20
c8 -5 11 -10 5 -10 -5 0 -17 5 -25 10 -8 5 -10 10 -5 10 6 0 17 -5 25 -10z
m4545 -30 c3 -5 -3 -10 -14 -10 -11 0 -23 5 -26 10 -3 6 3 10 14 10 11 0 23
-4 26 -10z m-4490 -10 c-3 -5 -12 -10 -18 -10 -7 0 -6 4 3 10 19 12 23 12 15
0z m4452 -16 c-3 -3 -12 -4 -19 -1 -8 3 -5 6 6 6 11 1 17 -2 13 -5z m-7194
-93 c8 -8 7 -11 -3 -11 -11 0 -11 -3 -2 -12 20 -20 14 -28 -22 -28 -35 0 -55
13 -36 25 17 10 11 25 -7 18 -15 -6 -16 -4 -5 9 13 17 58 16 75 -1z m517 -5
c0 -3 -4 -8 -10 -11 -5 -3 -10 -1 -10 4 0 6 5 11 10 11 6 0 10 -2 10 -4z
m4957 -28 c-3 -8 -6 -5 -6 6 -1 11 2 17 5 13 3 -3 4 -12 1 -19z m-5417 2 c0
-5 -7 -10 -16 -10 -8 0 -12 5 -9 10 3 6 10 10 16 10 5 0 9 -4 9 -10z m4110
-54 c9 -15 3 -12 -19 8 -17 17 -31 31 -31 33 0 9 39 -23 50 -41z m-3620 10 c0
-20 -13 -27 -30 -15 -13 8 -13 10 0 19 21 14 30 12 30 -4z m-50 -6 c0 -5 -7
-10 -16 -10 -8 0 -12 5 -9 10 3 6 10 10 16 10 5 0 9 -4 9 -10z m-11 -59 c2 -1
-2 -7 -8 -14 -6 -8 -8 -17 -4 -20 3 -4 -5 -7 -20 -7 -30 0 -43 15 -28 34 9 10
32 13 60 7z m341 -33 c0 -11 -28 -10 -35 1 -3 6 4 9 15 8 11 -1 20 -5 20 -9z
m3411 -5 c13 -16 12 -17 -3 -4 -10 7 -18 15 -18 17 0 8 8 3 21 -13z m-3441
-33 c0 -5 -2 -10 -4 -10 -3 0 -8 5 -11 10 -3 6 -1 10 4 10 6 0 11 -4 11 -10z
m3478 -35 c-3 -3 -9 2 -12 12 -6 14 -5 15 5 6 7 -7 10 -15 7 -18z m-4200 -13
c2 -7 -1 -12 -7 -12 -6 0 -11 5 -11 11 0 5 -4 7 -10 4 -13 -8 -32 4 -25 15 7
11 48 -3 53 -18z m2412 -7 c0 -8 -2 -15 -4 -15 -2 0 -6 7 -10 15 -3 8 -1 15 4
15 6 0 10 -7 10 -15z m437 -117 c-3 -8 -6 -5 -6 6 -1 11 2 17 5 13 3 -3 4 -12
1 -19z m2017 -71 c-3 -9 -11 -17 -16 -17 -6 0 -5 6 2 15 10 12 9 18 -5 31 -15
15 -16 15 -9 -10 4 -16 2 -26 -5 -26 -12 0 -15 42 -4 54 12 12 44 -29 37 -47z
m-2127 21 c-3 -8 -6 -5 -6 6 -1 11 2 17 5 13 3 -3 4 -12 1 -19z m43 -46 c0 -8
-1 -13 -3 -11 -1 2 -9 12 -16 22 -12 15 -12 17 3 11 9 -3 16 -13 16 -22z m40
-1 c0 -10 -6 -18 -13 -18 -9 0 -12 9 -9 24 5 26 22 21 22 -6z m2400 -11 c-5
-22 -8 -27 -9 -13 -1 21 9 56 14 51 2 -2 0 -19 -5 -38z m-5520 5 c0 -8 -2 -15
-4 -15 -2 0 -6 7 -10 15 -3 8 -1 15 4 15 6 0 10 -7 10 -15z m5140 8 c0 -10
-20 -40 -20 -31 0 3 -3 13 -6 22 -4 11 -1 16 10 16 9 0 16 -3 16 -7z m457 -35
c-3 -8 -6 -5 -6 6 -1 11 2 17 5 13 3 -3 4 -12 1 -19z m-490 -20 c-3 -8 -6 -5
-6 6 -1 11 2 17 5 13 3 -3 4 -12 1 -19z m203 2 c0 -5 -4 -10 -10 -10 -5 0 -10
5 -10 10 0 6 5 10 10 10 6 0 10 -4 10 -10z m-3860 -29 c0 -5 8 -12 18 -14 9
-3 4 -4 -13 -2 -16 2 -31 4 -33 4 -2 1 0 6 3 11 8 13 25 13 25 1z m-1380 -5
c0 -3 -4 -8 -10 -11 -5 -3 -10 -1 -10 4 0 6 5 11 10 11 6 0 10 -2 10 -4z
m5155 -8 c3 -3 -1 -11 -10 -18 -12 -10 -15 -10 -15 3 0 8 -6 18 -12 21 -7 2
-3 4 9 2 12 -1 25 -5 28 -8z m5190 -33 c137 -46 225 -111 225 -166 0 -34 -24
-60 -82 -90 -24 -12 -56 -33 -72 -46 -34 -29 -32 -29 -266 17 -357 70 -556
140 -548 193 3 24 64 62 158 98 115 44 445 41 585 -6z m-8852 18 c-7 -2 -19
-2 -25 0 -7 3 -2 5 12 5 14 0 19 -2 13 -5z m126 -19 c9 -8 -75 -2 -94 6 -13 6
-1 7 35 3 30 -3 57 -7 59 -9z m-1869 -4 c0 -5 -2 -10 -4 -10 -3 0 -8 5 -11 10
-3 6 -1 10 4 10 6 0 11 -4 11 -10z m260 0 c0 -5 -4 -10 -10 -10 -5 0 -10 5
-10 10 0 6 5 10 10 10 6 0 10 -4 10 -10z m1687 4 c-3 -3 -12 -4 -19 -1 -8 3
-5 6 6 6 11 1 17 -2 13 -5z m4860 0 c-3 -3 -12 -4 -19 -1 -8 3 -5 6 6 6 11 1
17 -2 13 -5z m-4828 -20 c9 -8 -65 -2 -84 6 -13 6 -2 7 30 3 28 -3 52 -7 54
-9z m4754 9 c-7 -2 -19 -2 -25 0 -7 3 -2 5 12 5 14 0 19 -2 13 -5z m-6376 -35
c-3 -8 -6 -5 -6 6 -1 11 2 17 5 13 3 -3 4 -12 1 -19z m1693 12 c20 -6 21 -8 5
-8 -11 0 -29 3 -40 8 -25 11 1 11 35 0z m4497 -6 c-3 -3 -12 -4 -19 -1 -8 3
-5 6 6 6 11 1 17 -2 13 -5z m-6570 -10 c-3 -3 -12 -4 -19 -1 -8 3 -5 6 6 6 11
1 17 -2 13 -5z m2286 -33 c7 -7 -3 -7 -29 0 -57 15 -64 20 -20 14 22 -2 44 -9
49 -14z m4092 9 c-3 -5 -12 -10 -18 -10 -7 0 -6 4 3 10 19 12 23 12 15 0z
m-4038 -16 c-3 -3 -12 -4 -19 -1 -8 3 -5 6 6 6 11 1 17 -2 13 -5z m646 -25 c4
-16 3 -18 -9 -8 -16 13 -19 29 -5 29 5 0 11 -9 14 -21z m-536 -5 c-3 -3 -12
-4 -19 -1 -8 3 -5 6 6 6 11 1 17 -2 13 -5z m573 -64 c0 -5 -2 -10 -4 -10 -3 0
-8 5 -11 10 -3 6 -1 10 4 10 6 0 11 -4 11 -10z m2378 -64 c-23 -48 -48 -57
-48 -17 0 21 2 23 10 11 8 -12 10 -10 10 8 0 13 4 21 9 18 5 -3 11 4 14 15 3
12 10 18 16 15 7 -5 3 -22 -11 -50z m-2121 5 c-1 -21 -5 -37 -9 -34 -10 5 -10
35 -2 57 10 26 14 18 11 -23z m9388 -90 c7 -12 -39 -17 -325 -36 -266 -18
-715 -29 -655 -16 137 30 966 74 980 52z m-5718 -23 c-3 -8 -6 -5 -6 6 -1 11
2 17 5 13 3 -3 4 -12 1 -19z m-7246 -153 l-7 -50 -7 38 c-6 26 -4 43 4 53 16
20 17 16 10 -41z m26 13 c-3 -8 -6 -5 -6 6 -1 11 2 17 5 13 3 -3 4 -12 1 -19z
m2988 -38 c3 -5 -1 -10 -9 -10 -9 0 -16 5 -16 10 0 6 4 10 9 10 6 0 13 -4 16
-10z m-2278 -22 c-3 -8 -6 -5 -6 6 -1 11 2 17 5 13 3 -3 4 -12 1 -19z m-730
-30 c-3 -8 -6 -5 -6 6 -1 11 2 17 5 13 3 -3 4 -12 1 -19z m-164 -48 c-3 -11 0
-27 7 -35 7 -8 8 -15 4 -15 -5 0 -15 9 -22 21 -10 16 -10 24 -1 35 16 19 18
18 12 -6z m-46 -12 c-3 -8 -6 -5 -6 6 -1 11 2 17 5 13 3 -3 4 -12 1 -19z m31
-53 c-3 -3 -9 2 -12 12 -6 14 -5 15 5 6 7 -7 10 -15 7 -18z m2905 -3 c-3 -8
-10 -9 -17 -4 -6 5 -18 12 -26 15 -8 3 -1 4 16 4 21 -1 30 -6 27 -15z m6672
-10 c-3 -3 -11 0 -18 7 -9 10 -8 11 6 5 10 -3 15 -9 12 -12z m75 -2 c-8 -5
-22 -9 -30 -9 -10 0 -8 3 5 9 27 12 43 12 25 0z m-9592 -25 c-3 -14 -1 -25 3
-25 5 0 9 -10 8 -22 0 -16 -2 -18 -6 -8 -4 10 -10 4 -20 -20 -11 -31 -12 -31
-6 -5 3 17 6 41 5 55 -1 29 5 50 14 50 3 0 4 -11 2 -25z m9535 8 c-7 -2 -19
-2 -25 0 -7 3 -2 5 12 5 14 0 19 -2 13 -5z m-53 -13 c-20 -13 -43 -13 -35 0 3
6 16 10 28 10 18 0 19 -2 7 -10z m-6655 -10 c-3 -5 -12 -10 -18 -10 -7 0 -6 4
3 10 19 12 23 12 15 0z m115 0 c0 -5 -8 -10 -17 -10 -15 0 -16 2 -3 10 19 12
20 12 20 0z m47 4 c-3 -3 -12 -4 -19 -1 -8 3 -5 6 6 6 11 1 17 -2 13 -5z
m6356 -31 c-7 -2 -19 -2 -25 0 -7 3 -2 5 12 5 14 0 19 -2 13 -5z m-299 -82
c19 -7 19 -8 -2 -13 -12 -4 -20 -2 -17 2 3 5 -3 11 -12 13 -12 3 -13 5 -3 5 8
0 24 -3 34 -7z m-59 -31 c-3 -5 -12 -10 -18 -10 -7 0 -6 4 3 10 19 12 23 12
15 0z m555 0 c-8 -5 -26 -10 -40 -10 -20 0 -22 -2 -10 -11 12 -8 10 -9 -10 -5
-14 3 -29 6 -35 7 -10 1 80 26 100 28 6 0 3 -4 -5 -9z m-637 -54 c-10 -13 -20
-22 -22 -20 -4 4 29 44 36 44 2 0 -4 -11 -14 -24z m414 -2 c-3 -3 -12 -4 -19
-1 -8 3 -5 6 6 6 11 1 17 -2 13 -5z m-153 -53 c3 -4 -1 -17 -9 -27 -14 -18
-14 -17 -13 9 2 27 12 35 22 18z m53 3 c-3 -3 -12 -4 -19 -1 -8 3 -5 6 6 6 11
1 17 -2 13 -5z m-8540 -106 c-3 -8 -6 -5 -6 6 -1 11 2 17 5 13 3 -3 4 -12 1
-19z m-10 -85 c-3 -10 -5 -2 -5 17 0 19 2 27 5 18 2 -10 2 -26 0 -35z m-517
-23 c0 -5 -7 -15 -15 -24 -8 -8 -15 -19 -15 -25 0 -6 -4 -11 -8 -11 -7 0 -8
33 -2 50 1 3 1 13 0 23 -1 16 2 17 19 7 12 -6 21 -15 21 -20z m667 -57 c-3
-10 -5 -4 -5 12 0 17 2 24 5 18 2 -7 2 -21 0 -30z m5793 17 c0 -5 -5 -10 -11
-10 -5 0 -7 5 -4 10 3 6 8 10 11 10 2 0 4 -4 4 -10z m-6437 -22 c4 -12 4 -24
2 -27 -3 -2 -5 1 -5 7 0 7 -4 12 -9 12 -6 0 -6 -12 0 -30 6 -16 8 -35 6 -42
-4 -8 -8 -4 -12 10 -4 12 -11 22 -16 22 -10 0 -12 53 -2 63 13 14 31 6 36 -15z
m6307 -12 c0 -3 -4 -8 -10 -11 -5 -3 -10 -1 -10 4 0 6 5 11 10 11 6 0 10 -2
10 -4z m-6260 -78 c0 -5 -7 -8 -15 -8 -8 0 -15 -8 -15 -17 0 -15 -2 -16 -10
-3 -6 10 -6 16 0 18 6 2 10 15 10 30 0 25 1 25 15 6 8 -10 15 -22 15 -26z
m230 5 c0 -20 -16 -8 -23 17 -4 17 -3 19 9 9 8 -6 14 -18 14 -26z m-20 -37 c0
-6 -7 -1 -15 10 -8 10 -14 26 -14 34 0 16 28 -28 29 -44z m2243 17 c-7 -2 -19
-2 -25 0 -7 3 -2 5 12 5 14 0 19 -2 13 -5z m-2153 -84 c-11 -19 -10 -20 9 -9
15 8 21 8 21 0 0 -6 6 -8 13 -4 8 5 8 2 -2 -9 -15 -18 -26 -23 -16 -7 8 13 -8
13 -22 -1 -8 -8 -17 -5 -34 12 -22 22 -22 23 -3 30 36 14 46 11 34 -12z
m-1400 -3 c0 -8 -6 -21 -13 -28 -8 -7 -16 -20 -20 -28 -4 -12 -6 -12 -6 1 -1
9 5 22 13 29 8 6 12 18 9 26 -3 8 0 14 6 14 6 0 11 -6 11 -14z m1120 10 c0 -3
-4 -8 -10 -11 -5 -3 -10 -1 -10 4 0 6 5 11 10 11 6 0 10 -2 10 -4z m-341 -68
c-1 -44 -17 -109 -28 -118 -10 -9 -38 -74 -45 -105 -8 -41 6 -59 48 -59 19 0
32 -4 29 -9 -3 -5 0 -13 7 -17 6 -4 12 -28 12 -54 0 -57 -26 -94 -119 -171
-79 -65 -103 -74 -103 -38 0 25 62 217 82 257 6 10 12 33 15 50 2 17 7 38 10
46 3 8 7 17 8 20 1 3 4 12 7 20 7 19 29 106 37 145 5 26 31 75 39 75 1 0 2
-19 1 -42z m3729 18 c3 -3 -6 -6 -21 -6 -14 0 -28 4 -31 9 -6 9 42 6 52 -3z
m2248 3 c5 -9 -1 -10 -20 -5 -15 4 -26 2 -26 -3 0 -6 -7 -8 -16 -4 -13 5 -13
7 -2 14 19 12 56 11 64 -2z m87 4 c-7 -2 -19 -2 -25 0 -7 3 -2 5 12 5 14 0 19
-2 13 -5z m-2268 -13 c16 -7 11 -9 -20 -9 -29 -1 -36 2 -25 9 17 11 19 11 45
0z m53 -24 c-7 -8 -15 -12 -17 -11 -5 6 10 25 20 25 5 0 4 -6 -3 -14z m65 -3
c-7 -2 -19 -2 -25 0 -7 3 -2 5 12 5 14 0 19 -2 13 -5z m887 -43 c0 -5 -13 -2
-30 6 -16 9 -30 17 -30 19 0 2 14 -1 30 -6 17 -6 30 -15 30 -19z m427 -5 c0
-8 -6 -15 -13 -15 -8 0 -11 6 -8 15 4 8 9 15 13 15 4 0 8 -7 8 -15z m-377 -5
c-8 -5 -22 -9 -30 -9 -10 0 -8 3 5 9 27 12 43 12 25 0z m313 3 c-7 -2 -19 -2
-25 0 -7 3 -2 5 12 5 14 0 19 -2 13 -5z m2107 -13 c0 -5 -2 -10 -4 -10 -3 0
-8 5 -11 10 -3 6 -1 10 4 10 6 0 11 -4 11 -10z m-6992 -12 c-6 -18 -28 -21
-28 -4 0 9 7 16 16 16 9 0 14 -5 12 -12z m517 -18 c3 -5 2 -10 -4 -10 -5 0
-13 5 -16 10 -3 6 -2 10 4 10 5 0 13 -4 16 -10z m4207 -28 c-7 -2 -10 -8 -6
-13 3 -5 -4 -9 -15 -9 -12 0 -21 5 -21 10 0 6 5 10 11 10 5 0 8 4 5 9 -4 5 4
7 16 3 12 -3 17 -7 10 -10z m2354 -1 c0 -16 -3 -17 -14 -9 -12 10 -7 19 13 28
1 0 1 -9 1 -19z m-7186 -53 c-1 -79 -44 -277 -75 -340 -15 -30 -38 -68 -52
-84 -88 -101 -338 -510 -488 -799 -95 -183 -98 -188 -106 -149 -3 16 -7 196
-8 401 l-2 372 38 42 c83 92 104 109 133 109 23 0 35 9 55 37 14 21 25 42 25
48 0 13 59 75 71 75 10 0 12 -26 9 -102 -2 -56 9 -60 89 -29 119 45 211 167
246 326 10 46 49 145 58 145 4 0 7 -24 7 -52z m453 45 c-7 -2 -19 -2 -25 0 -7
3 -2 5 12 5 14 0 19 -2 13 -5z m3722 -13 c-3 -5 -12 -10 -18 -10 -7 0 -6 4 3
10 19 12 23 12 15 0z m596 -15 c19 -8 27 -14 19 -14 -14 0 -72 28 -59 29 4 0
22 -7 40 -15z m1684 5 c3 -6 -1 -7 -9 -4 -18 7 -21 14 -7 14 6 0 13 -4 16 -10z
m-6332 -33 c26 -30 22 -89 -8 -121 -40 -44 -50 -30 -50 67 0 82 1 86 20 80 11
-3 28 -15 38 -26z m3857 29 c0 -3 -4 -8 -10 -11 -5 -3 -10 -1 -10 4 0 6 5 11
10 11 6 0 10 -2 10 -4z m1251 -57 c-14 -6 -29 -5 -39 1 -14 9 -13 10 6 5 26
-8 29 2 5 22 -12 9 -6 8 17 -3 34 -16 34 -17 11 -25z m-1393 10 c-7 -5 -22 -8
-33 -8 -17 1 -17 2 -2 6 9 2 17 8 17 13 0 5 7 7 16 3 13 -5 13 -7 2 -14z
m3421 -28 c0 -11 -2 -12 -6 -3 -2 6 -9 10 -14 7 -5 -4 -6 2 -2 11 4 12 3 15
-5 10 -13 -8 -17 6 -5 18 10 9 33 -23 32 -43z m-2399 29 c0 -5 -6 -10 -14 -10
-8 0 -18 5 -21 10 -3 6 3 10 14 10 12 0 21 -4 21 -10z m-194 -27 c1 -12 4 -28
7 -37 4 -9 3 -16 -2 -16 -5 0 -12 12 -16 27 -5 22 -8 24 -17 12 -8 -11 -9 -10
-4 4 3 10 6 23 6 29 0 19 25 1 26 -19z m252 8 c9 -5 4 -8 -16 -7 -17 1 -28 4
-25 9 6 9 25 9 41 -2z m412 -21 c49 -26 52 -29 27 -30 -19 0 -26 4 -21 12 5 8
0 9 -16 5 -13 -3 -39 1 -59 9 -28 12 -33 17 -21 24 22 14 29 12 90 -20z
m-1495 10 c-3 -5 -12 -10 -18 -10 -7 0 -6 4 3 10 19 12 23 12 15 0z m1175 -31
c0 -14 -16 -11 -29 5 -10 12 -8 13 8 9 12 -3 21 -9 21 -14z m2280 -26 c0 -7
-4 -13 -9 -13 -5 0 -11 6 -14 13 -3 8 1 14 9 14 8 0 14 -6 14 -14z m40 13 c0
-3 -4 -8 -10 -11 -5 -3 -10 -1 -10 4 0 6 5 11 10 11 6 0 10 -2 10 -4z m-2277
-13 c-7 -2 -19 -2 -25 0 -7 3 -2 5 12 5 14 0 19 -2 13 -5z m-366 -25 c-3 -8
-6 -5 -6 6 -1 11 2 17 5 13 3 -3 4 -12 1 -19z m393 13 c0 -5 -7 -12 -16 -15
-14 -5 -15 -4 -4 9 14 17 20 19 20 6z m-2840 -46 c0 -2 -9 -9 -20 -15 -12 -6
-20 -7 -20 -1 0 5 8 12 18 14 9 3 18 5 20 6 1 0 2 -1 2 -4z m3950 -5 c8 -5 11
-10 5 -10 -5 0 -17 5 -25 10 -8 5 -10 10 -5 10 6 0 17 -5 25 -10z m-4010 -20
c8 -5 11 -10 5 -10 -5 0 -17 5 -25 10 -8 5 -10 10 -5 10 6 0 17 -5 25 -10z
m4924 -5 c-25 -19 -40 -19 -24 0 7 8 20 15 28 15 13 0 12 -3 -4 -15z m-54 1
c0 -2 -7 -7 -16 -10 -8 -3 -12 -2 -9 4 6 10 25 14 25 6z m-2920 -10 c0 -2 -7
-7 -16 -10 -8 -3 -12 -2 -9 4 6 10 25 14 25 6z m637 -18 c-3 -8 -6 -5 -6 6 -1
11 2 17 5 13 3 -3 4 -12 1 -19z m-2510 6 c-3 -3 -12 -4 -19 -1 -8 3 -5 6 6 6
11 1 17 -2 13 -5z m43 -14 c-20 -13 -33 -13 -25 0 3 6 14 10 23 10 15 0 15 -2
2 -10z m112 -38 c11 -14 10 -15 -7 -7 -11 4 -32 10 -48 13 -42 7 -40 18 3 14
22 -2 45 -11 52 -20z m4528 19 c0 -17 -55 -32 -81 -23 -21 9 -19 10 15 9 23
-1 41 4 44 11 4 14 22 16 22 3z m-4473 -17 c-3 -3 -12 -4 -19 -1 -8 3 -5 6 6
6 11 1 17 -2 13 -5z m4391 -19 c-3 -3 -21 -10 -39 -15 -31 -9 -32 -8 -15 5 18
14 66 22 54 10z m-115 -32 c-7 -2 -19 -2 -25 0 -7 3 -2 5 12 5 14 0 19 -2 13
-5z m-2800 -10 c-7 -2 -19 -2 -25 0 -7 3 -2 5 12 5 14 0 19 -2 13 -5z m-996
-29 c-3 -3 -12 -4 -19 -1 -8 3 -5 6 6 6 11 1 17 -2 13 -5z m86 -1 c-7 -2 -19
-2 -25 0 -7 3 -2 5 12 5 14 0 19 -2 13 -5z m953 -102 c-4 -6 -13 -11 -19 -11
-8 0 -7 3 2 9 8 5 10 14 6 22 -6 11 -5 11 5 2 7 -6 9 -16 6 -22z m1282 -31
c-11 -18 -38 -36 -38 -25 0 5 42 45 47 45 2 0 -2 -9 -9 -20z m90 -5 c-3 -3 -9
2 -12 12 -6 14 -5 15 5 6 7 -7 10 -15 7 -18z m47 -5 c3 -5 1 -10 -4 -10 -6 0
-11 5 -11 10 0 6 2 10 4 10 3 0 8 -4 11 -10z m-505 -30 c0 -5 -2 -10 -4 -10
-3 0 -8 5 -11 10 -3 6 -1 10 4 10 6 0 11 -4 11 -10z m-439 -62 c-6 -17 -11
-45 -11 -62 -1 -26 -2 -28 -11 -13 -5 9 -7 22 -4 27 3 6 1 10 -4 10 -6 0 -11
5 -11 10 0 6 7 10 16 10 11 0 14 6 9 20 -4 11 -2 20 4 20 6 0 10 3 10 8 -1 4
0 14 1 22 2 11 4 10 7 -3 3 -10 0 -32 -6 -49z m1104 24 c-3 -3 -11 0 -18 7 -9
10 -8 11 6 5 10 -3 15 -9 12 -12z m-705 -7 c10 -12 10 -15 -4 -15 -9 0 -16 7
-16 15 0 8 2 15 4 15 2 0 9 -7 16 -15z m68 -10 c-3 -3 -9 2 -12 12 -6 14 -5
15 5 6 7 -7 10 -15 7 -18z m666 -1 c3 -8 2 -12 -4 -9 -6 3 -10 10 -10 16 0 14
7 11 14 -7z m-689 -70 c19 -46 19 -53 0 -28 -14 18 -15 17 -6 -8 9 -23 7 -26
-9 -25 -15 1 -18 7 -14 27 4 19 3 22 -5 10 -9 -12 -11 -10 -11 11 0 21 15 49
27 49 1 0 10 -16 18 -36z m415 21 c11 -13 10 -14 -4 -9 -9 3 -16 10 -16 15 0
13 6 11 20 -6z m410 -65 c0 -5 -2 -10 -4 -10 -3 0 -8 5 -11 10 -3 6 -1 10 4
10 6 0 11 -4 11 -10z m-45 -30 c10 -11 16 -20 13 -20 -3 0 -13 9 -23 20 -10
11 -16 20 -13 20 3 0 13 -9 23 -20z m85 -4 c-7 -7 -13 -7 -20 0 -6 6 -3 10 10
10 13 0 16 -4 10 -10z m57 -48 c-1 -15 3 -22 11 -20 8 1 11 -2 6 -9 -5 -9 -2
-10 9 -6 12 4 14 2 10 -10 -5 -13 -2 -15 13 -9 15 6 17 5 6 -6 -10 -10 -18 -7
-43 18 -20 20 -28 36 -23 47 9 24 14 21 11 -5z m-1637 -42 c0 -2 -7 -7 -16
-10 -8 -3 -12 -2 -9 4 6 10 25 14 25 6z m955 -36 c3 -5 2 -10 -4 -10 -5 0 -13
5 -16 10 -3 6 -2 10 4 10 5 0 13 -4 16 -10z m761 -5 c-4 -10 4 -17 27 -23 21
-6 27 -10 16 -14 -19 -8 -64 26 -55 41 10 16 19 14 12 -4z m-1761 -15 c-27
-12 -43 -12 -25 0 8 5 22 9 30 9 10 0 8 -3 -5 -9z m1835 -70 c12 -16 19 -30
16 -30 -2 0 -14 14 -26 30 -12 17 -19 30 -16 30 2 0 14 -13 26 -30z m-2682
-40 c-7 -10 -14 -17 -17 -15 -4 4 18 35 25 35 2 0 -1 -9 -8 -20z m-228 -254
c0 -3 -4 -8 -10 -11 -5 -3 -10 -1 -10 4 0 6 5 11 10 11 6 0 10 -2 10 -4z
m7860 -52 c0 -8 3 -14 8 -14 15 0 51 -68 77 -146 21 -65 25 -95 23 -160 -2
-61 -6 -79 -18 -79 -14 0 -24 26 -35 98 -3 21 -9 36 -13 33 -4 -2 -8 12 -8 33
-2 47 -41 230 -56 256 -10 18 -9 19 5 6 10 -7 17 -20 17 -27z m-7919 -117
c-10 -9 -11 -8 -5 6 3 10 9 15 12 12 3 -3 0 -11 -7 -18z m3309 -43 c0 -8 4
-22 9 -32 5 -9 15 -37 22 -62 7 -25 16 -50 20 -55 4 -6 4 -17 -1 -25 -8 -12
-10 -9 -10 10 0 21 -2 22 -11 10 -9 -12 -10 -12 -5 4 6 17 -23 118 -44 158 -8
13 -6 16 5 12 8 -4 15 -12 15 -20z m-7281 -22 c7 -21 21 -49 32 -62 l18 -25
33 19 c18 11 53 29 78 42 57 28 61 16 22 -63 -16 -32 -42 -87 -57 -123 -15
-36 -36 -84 -46 -107 -10 -23 -19 -46 -19 -52 0 -19 -40 -22 -68 -5 -36 21
-78 103 -86 169 -7 54 6 173 23 218 17 43 54 37 70 -11z m7331 -12 c0 -5 -4
-10 -10 -10 -5 0 -10 5 -10 10 0 6 5 10 10 10 6 0 10 -4 10 -10z m-2421 -189
c0 -14 -1 -14 -6 -1 -4 8 -14 21 -25 28 -10 7 -18 17 -18 23 0 5 11 -1 25 -13
14 -12 25 -29 24 -37z m-5582 32 c1 -10 6 -36 12 -59 6 -22 15 -90 21 -150 6
-60 14 -122 17 -139 10 -49 15 -205 8 -223 -9 -20 -44 115 -45 169 0 19 -5 40
-12 47 -15 15 -28 372 -13 372 6 0 11 -8 12 -17z m6310 -9 c-3 -3 -12 -4 -19
-1 -8 3 -5 6 6 6 11 1 17 -2 13 -5z m830 -55 c2 -16 -1 -19 -9 -11 -5 5 -7 15
-4 21 10 15 12 14 13 -10z m724 -18 c7 12 9 12 9 0 0 -11 3 -11 15 -1 23 19
18 1 -11 -37 -26 -34 -51 -45 -40 -17 5 12 1 14 -15 9 -15 -5 -19 -4 -15 4 4
6 0 11 -8 11 -9 0 -16 5 -16 11 0 6 8 8 19 4 14 -4 21 0 26 16 7 21 8 21 17 4
8 -14 12 -15 19 -4z m146 -18 c-3 -10 -5 -4 -5 12 0 17 2 24 5 18 2 -7 2 -21
0 -30z m-3302 3 c9 4 13 -1 12 -15 -1 -12 -5 -21 -9 -21 -9 0 -38 42 -38 55 0
5 5 2 11 -7 5 -9 16 -15 24 -12z m3065 14 c0 -5 -5 -10 -11 -10 -5 0 -7 5 -4
10 3 6 8 10 11 10 2 0 4 -4 4 -10z m-3016 -28 c3 -5 -1 -9 -9 -9 -8 0 -15 4
-15 9 0 4 4 8 9 8 6 0 12 -4 15 -8z m16 -26 c0 -2 -9 -6 -20 -9 -11 -3 -18 -1
-14 4 5 9 34 13 34 5z m2485 -36 c8 -13 -5 -13 -25 0 -13 8 -13 10 2 10 9 0
20 -4 23 -10z m100 -78 c-3 -3 -11 0 -18 7 -9 10 -8 11 6 5 10 -3 15 -9 12
-12z m-2566 -28 c3 -16 1 -17 -13 -5 -19 16 -21 34 -3 29 6 -3 14 -13 16 -24z
m2626 -4 c15 -6 25 -13 22 -16 -6 -6 -67 23 -67 32 0 3 4 3 9 0 4 -3 21 -10
36 -16z m510 -1 c11 -17 2 -18 -19 -3 -17 12 -17 14 -4 14 9 0 20 -5 23 -11z
m-2885 -43 c0 -3 -4 -8 -10 -11 -5 -3 -10 -1 -10 4 0 6 5 11 10 11 6 0 10 -2
10 -4z m1337 -48 c-3 -8 -6 -5 -6 6 -1 11 2 17 5 13 3 -3 4 -12 1 -19z m-1587
-82 c0 -2 -7 -7 -16 -10 -8 -3 -12 -2 -9 4 6 10 25 14 25 6z m3334 -148 c-15
-7 -28 -7 -40 0 -14 8 -10 10 22 10 33 0 36 -2 18 -10z m-3407 -54 c-3 -3 -12
-4 -19 -1 -8 3 -5 6 6 6 11 1 17 -2 13 -5z m-4527 -200 c-12 -54 -19 -52 -17
4 1 36 5 47 13 41 8 -6 9 -22 4 -45z m9117 -46 c-3 -7 -5 -2 -5 12 0 14 2 19
5 13 2 -7 2 -19 0 -25z m-9092 2 c3 -5 -1 -10 -9 -10 -9 0 -16 5 -16 10 0 6 4
10 9 10 6 0 13 -4 16 -10z m2755 -64 c0 -3 -4 -8 -10 -11 -5 -3 -10 -1 -10 4
0 6 5 11 10 11 6 0 10 -2 10 -4z m6487 -2 c-3 -3 -12 -4 -19 -1 -8 3 -5 6 6 6
11 1 17 -2 13 -5z m-6204 -24 c-3 -11 -7 -20 -9 -20 -2 0 -4 9 -4 20 0 11 4
20 9 20 5 0 7 -9 4 -20z m6233 11 c-4 -5 0 -11 6 -14 7 -2 9 -8 5 -13 -4 -5
-12 -2 -17 6 -13 20 -12 30 1 30 5 0 8 -4 5 -9z m-6296 -21 c0 -5 -2 -10 -4
-10 -3 0 -8 5 -11 10 -3 6 -1 10 4 10 6 0 11 -4 11 -10z m5294 -28 c-21 -5
-28 4 -20 24 6 16 8 15 21 -2 12 -16 12 -19 -1 -22z m813 -67 c5 -53 3 -66 -6
-60 -8 4 -11 22 -9 46 2 22 0 39 -4 39 -5 0 -8 14 -8 32 0 58 20 15 27 -57z
m-5900 -32 c-2 -16 -4 -5 -4 22 0 28 2 40 4 28 2 -13 2 -35 0 -50z m6042 5
c-1 -55 -5 -50 -11 15 -2 20 0 37 4 37 4 0 7 -24 7 -52z m-6012 -20 c-3 -7 -5
-2 -5 12 0 14 2 19 5 13 2 -7 2 -19 0 -25z m5178 12 c3 -5 1 -10 -4 -10 -6 0
-11 5 -11 10 0 6 2 10 4 10 3 0 8 -4 11 -10z m244 -63 c1 -5 -3 -5 -9 -2 -5 3
-10 16 -9 28 0 21 1 21 9 2 5 -11 9 -24 9 -28z m1041 37 c0 -3 -7 -12 -15 -20
-16 -17 -18 -14 -9 10 6 15 24 23 24 10z m-1253 -29 c11 -24 10 -25 -12 -22
-29 4 -45 17 -22 17 20 0 23 16 5 23 -9 4 -8 6 2 6 8 1 20 -10 27 -24z m243
-1 c0 -8 -5 -12 -10 -9 -6 4 -8 11 -5 16 9 14 15 11 15 -7z m-6076 -19 c-4 -8
-8 -15 -10 -15 -2 0 -4 7 -4 15 0 8 4 15 10 15 5 0 7 -7 4 -15z m433 -22 c-3
-10 -5 -4 -5 12 0 17 2 24 5 18 2 -7 2 -21 0 -30z m6223 21 c0 -8 -4 -12 -10
-9 -5 3 -10 10 -10 16 0 5 5 9 10 9 6 0 10 -7 10 -16z m470 -20 c0 -8 -4 -12
-10 -9 -5 3 -10 10 -10 16 0 5 5 9 10 9 6 0 10 -7 10 -16z m-3210 -24 c0 -5
-2 -10 -4 -10 -3 0 -8 5 -11 10 -3 6 -1 10 4 10 6 0 11 -4 11 -10z m2749 -40
c1 -13 0 -13 -9 0 -5 8 -9 24 -9 35 l0 20 9 -20 c5 -11 9 -27 9 -35z m-589 25
c0 -8 -2 -15 -4 -15 -2 0 -6 7 -10 15 -3 8 -1 15 4 15 6 0 10 -7 10 -15z m11
-28 c-10 -9 -11 -8 -5 6 3 10 9 15 12 12 3 -3 0 -11 -7 -18z m-5675 -43 c-4
-9 -9 -15 -11 -12 -3 3 -3 13 1 22 4 9 9 15 11 12 3 -3 3 -13 -1 -22z m5701
-21 c-3 -10 -5 -2 -5 17 0 19 2 27 5 18 2 -10 2 -26 0 -35z m43 15 c0 -5 -4
-8 -10 -8 -5 0 -10 10 -10 23 0 18 2 19 10 7 5 -8 10 -18 10 -22z m545 -61 c7
-27 9 -45 5 -40 -9 11 -40 108 -39 125 0 18 18 -26 34 -85z m27 43 c3 -17 2
-33 -2 -35 -3 -2 -7 12 -8 31 -3 42 4 45 10 4z m-6352 -10 c0 -5 -4 -10 -10
-10 -5 0 -10 5 -10 10 0 6 5 10 10 10 6 0 10 -4 10 -10z m17 -22 c-3 -7 -5 -2
-5 12 0 14 2 19 5 13 2 -7 2 -19 0 -25z m5573 -50 c0 -4 -4 -8 -10 -8 -5 0
-10 4 -10 9 0 5 -3 18 -6 28 -5 16 -4 16 10 -1 9 -11 16 -23 16 -28z m-5613
-10 c-3 -7 -5 -2 -5 12 0 14 2 19 5 13 2 -7 2 -19 0 -25z m6394 -68 c6 0 7 -5
4 -10 -10 -16 -25 -1 -24 23 1 17 2 18 6 5 2 -10 9 -18 14 -18z m-764 -2 c-3
-8 -6 -5 -6 6 -1 11 2 17 5 13 3 -3 4 -12 1 -19z m781 -59 c-3 -8 -7 -3 -11
10 -4 17 -3 21 5 13 5 -5 8 -16 6 -23z m39 -11 c-3 -8 -6 -5 -6 6 -1 11 2 17
5 13 3 -3 4 -12 1 -19z m363 -28 c0 -5 -2 -10 -4 -10 -3 0 -8 5 -11 10 -3 6
-1 10 4 10 6 0 11 -4 11 -10z m-7220 -20 c0 -5 -2 -10 -4 -10 -3 0 -8 5 -11
10 -3 6 -1 10 4 10 6 0 11 -4 11 -10z m5202 -22 c-7 -7 -12 -8 -12 -2 0 14 12
26 19 19 2 -3 -1 -11 -7 -17z m-2005 -20 c-3 -7 -5 -2 -5 12 0 14 2 19 5 13 2
-7 2 -19 0 -25z m4311 -15 c-2 -22 -3 -22 -20 -3 -23 24 -23 29 2 27 14 -1 19
-8 18 -24z m-5678 -18 c0 -8 -2 -15 -4 -15 -2 0 -6 7 -10 15 -3 8 -1 15 4 15
6 0 10 -7 10 -15z m1375 -14 c3 -5 1 -12 -5 -16 -5 -3 -10 1 -10 9 0 18 6 21
15 7z m3708 -8 c-7 -2 -13 -12 -13 -20 0 -9 -3 -14 -6 -10 -10 10 4 37 18 36
10 0 10 -2 1 -6z m-6146 -45 c-3 -7 -5 -2 -5 12 0 14 2 19 5 13 2 -7 2 -19 0
-25z m-3534 -22 c-3 -4 -9 -2 -14 5 -13 22 -11 31 5 17 8 -7 12 -17 9 -22z
m45 5 c1 -25 1 -25 -13 -7 -18 24 -19 33 -2 33 7 0 14 -12 15 -26z m10305 -3
c3 -10 8 -9 22 2 17 14 18 13 12 -4 -4 -10 -3 -24 1 -30 14 -17 23 -48 13 -41
-18 11 -73 85 -63 85 6 0 12 -6 15 -12z m-813 -28 c0 -5 -2 -10 -4 -10 -3 0
-8 5 -11 10 -3 6 -1 10 4 10 6 0 11 -4 11 -10z m24 -64 c-7 -17 -34 -22 -34
-6 0 6 7 10 15 10 8 0 15 5 15 12 0 6 2 9 5 6 3 -3 3 -13 -1 -22z m213 -18
c-3 -8 -6 -5 -6 6 -1 11 2 17 5 13 3 -3 4 -12 1 -19z m-5277 -58 c0 -20 -2
-22 -10 -10 -5 8 -10 26 -10 40 0 20 2 22 10 10 5 -8 10 -26 10 -40z m5720 46
c0 -3 -4 -8 -10 -11 -5 -3 -10 -1 -10 4 0 6 5 11 10 11 6 0 10 -2 10 -4z
m-620 -16 c0 -5 -4 -10 -10 -10 -5 0 -10 5 -10 10 0 6 5 10 10 10 6 0 10 -4
10 -10z m880 -31 c0 -6 -4 -7 -10 -4 -5 3 -10 11 -10 16 0 6 5 7 10 4 6 -3 10
-11 10 -16z m-860 -20 c0 -6 -4 -7 -10 -4 -5 3 -10 11 -10 16 0 6 5 7 10 4 6
-3 10 -11 10 -16z m885 -9 c3 -5 1 -10 -4 -10 -6 0 -11 5 -11 10 0 6 2 10 4
10 3 0 8 -4 11 -10z m-5988 -22 c-3 -8 -6 -5 -6 6 -1 11 2 17 5 13 3 -3 4 -12
1 -19z m2250 0 c-3 -8 -6 -5 -6 6 -1 11 2 17 5 13 3 -3 4 -12 1 -19z m-2234
-65 c4 -19 2 -33 -3 -33 -6 0 -10 17 -10 37 0 43 5 41 13 -4z m-1632 -6 c-6
-8 -9 -17 -6 -21 3 -3 0 -2 -6 3 -12 10 -4 31 13 31 7 0 7 -4 -1 -13z m6188
-57 c0 -8 -4 -5 -9 8 -5 12 -16 22 -25 22 -18 0 -20 17 -2 23 13 4 36 -29 36
-53z m-3312 -62 c-3 -8 -6 -5 -6 6 -1 11 2 17 5 13 3 -3 4 -12 1 -19z m2253
18 c0 -3 -4 -8 -10 -11 -5 -3 -10 -1 -10 4 0 6 5 11 10 11 6 0 10 -2 10 -4z
m2634 -21 c-7 -16 -24 -21 -24 -6 0 8 7 13 27 20 1 1 0 -6 -3 -14z m-7877 -11
c-3 -3 -12 -4 -19 -1 -8 3 -5 6 6 6 11 1 17 -2 13 -5z m1792 -76 c1 -20 7 -39
14 -41 6 -3 -1 -6 -16 -6 -19 -1 -26 3 -21 11 4 7 7 35 6 62 -1 38 1 46 8 31
5 -11 9 -36 9 -57z m1201 58 c0 -3 -4 -8 -10 -11 -5 -3 -10 -1 -10 4 0 6 5 11
10 11 6 0 10 -2 10 -4z m-2960 -10 c0 -2 -7 -9 -15 -16 -13 -11 -14 -10 -9 4
5 14 24 23 24 12z m-46 -22 c3 -8 2 -12 -4 -9 -6 3 -10 10 -10 16 0 14 7 11
14 -7z m2993 -16 c-3 -8 -6 -5 -6 6 -1 11 2 17 5 13 3 -3 4 -12 1 -19z m3963
12 c0 -5 -4 -10 -9 -10 -6 0 -13 5 -16 10 -3 6 1 10 9 10 9 0 16 -4 16 -10z
m1009 -40 c11 -24 11 -24 -3 -6 -9 11 -16 24 -16 30 0 12 5 7 19 -24z m-8719
6 c0 -3 -4 -8 -10 -11 -5 -3 -10 -1 -10 4 0 6 5 11 10 11 6 0 10 -2 10 -4z
m3737 -43 c-3 -10 -5 -2 -5 17 0 19 2 27 5 18 2 -10 2 -26 0 -35z m4001 13
c12 -3 12 -4 -3 -3 -11 1 -20 9 -21 17 0 8 1 10 3 3 2 -6 12 -14 21 -17z m993
-33 c-12 -20 -14 -14 -5 12 4 9 9 14 11 11 3 -2 0 -13 -6 -23z m-762 -38 l0
-20 -9 20 c-5 11 -9 27 -9 35 -1 13 0 13 9 0 5 -8 9 -24 9 -35z m798 13 c-3
-8 -6 -5 -6 6 -1 11 2 17 5 13 3 -3 4 -12 1 -19z m-7289 -66 c-3 -27 -19 -34
-27 -11 -2 7 1 9 8 5 7 -5 11 1 11 13 0 12 -4 21 -10 21 -5 0 -7 7 -3 16 5 15
7 15 15 0 5 -9 8 -29 6 -44z m3329 6 c-3 -7 -5 -2 -5 12 0 14 2 19 5 13 2 -7
2 -19 0 -25z m3968 22 c3 -5 1 -10 -4 -10 -6 0 -11 5 -11 10 0 6 2 10 4 10 3
0 8 -4 11 -10z m-775 -10 c0 -5 -4 -10 -9 -10 -6 0 -13 5 -16 10 -3 6 1 10 9
10 9 0 16 -4 16 -10z m-780 -30 c0 -5 -5 -10 -11 -10 -5 0 -7 5 -4 10 3 6 8
10 11 10 2 0 4 -4 4 -10z m83 -15 c4 -8 1 -17 -5 -21 -7 -4 -8 -3 -4 4 4 7 2
12 -3 12 -6 0 -11 5 -11 10 0 15 17 12 23 -5z m-113 -4 c0 -5 -8 -12 -19 -16
-10 -3 -26 -14 -36 -25 -22 -24 -31 -25 -39 -4 -4 11 -1 14 13 9 10 -3 24 1
31 10 7 8 9 15 4 16 -9 0 25 17 39 18 4 1 7 -3 7 -8z m817 -13 c-3 -8 -6 -5
-6 6 -1 11 2 17 5 13 3 -3 4 -12 1 -19z m-4319 -28 c-12 -37 -34 -54 -23 -19
7 23 24 49 31 49 1 0 -2 -14 -8 -30z m3693 -21 c16 -23 17 -28 4 -33 -17 -6
-36 30 -34 67 0 15 2 17 6 7 3 -8 14 -27 24 -41z m683 34 c4 -9 2 -19 -4 -23
-6 -4 -8 -21 -5 -40 8 -46 17 -57 26 -34 6 16 8 16 8 2 1 -9 -4 -20 -10 -24
-19 -11 -33 15 -35 68 -2 29 -8 55 -16 59 -9 6 -7 9 8 9 12 0 25 -8 28 -17z
m-984 -31 c0 -13 -3 -12 -15 4 -19 25 -19 40 0 24 8 -7 15 -20 15 -28z m-5750
-14 c0 -4 -4 -8 -10 -8 -5 0 -10 4 -10 9 0 5 -3 18 -6 28 -5 16 -4 16 10 -1 9
-11 16 -23 16 -28z m2330 32 c0 -5 -4 -10 -10 -10 -5 0 -10 5 -10 10 0 6 5 10
10 10 6 0 10 -4 10 -10z m3675 -20 c3 -5 1 -10 -4 -10 -6 0 -11 5 -11 10 0 6
2 10 4 10 3 0 8 -4 11 -10z m-5970 -10 c-3 -5 -11 -10 -16 -10 -6 0 -7 5 -4
10 3 6 11 10 16 10 6 0 7 -4 4 -10z m5696 -34 c9 5 10 -1 5 -22 -4 -16 -11
-31 -14 -34 -4 -3 -8 -12 -10 -20 -2 -8 -7 -21 -12 -30 -8 -13 -9 -13 -10 1 0
9 3 19 7 22 4 4 6 33 5 65 -1 45 0 52 8 34 6 -14 15 -20 21 -16z m30 11 c-10
-9 -11 -8 -5 6 3 10 9 15 12 12 3 -3 0 -11 -7 -18z m-5801 -24 c0 -27 -43 -63
-61 -52 -12 7 -11 9 2 9 21 0 53 36 44 49 -3 6 -1 11 4 11 6 0 11 -8 11 -17z
m7597 -15 c-3 -8 -6 -5 -6 6 -1 11 2 17 5 13 3 -3 4 -12 1 -19z m-220 -10 c-3
-8 -6 -5 -6 6 -1 11 2 17 5 13 3 -3 4 -12 1 -19z m-2950 -20 c-3 -7 -5 -2 -5
12 0 14 2 19 5 13 2 -7 2 -19 0 -25z m2700 10 c-3 -8 -6 -5 -6 6 -1 11 2 17 5
13 3 -3 4 -12 1 -19z m-4240 -315 c-1 -59 -3 -13 -3 102 0 116 2 164 3 108 2
-56 2 -151 0 -210z m3918 297 c-3 -5 -12 -10 -18 -10 -7 0 -6 4 3 10 19 12 23
12 15 0z m-8133 -32 c-8 -8 -9 -4 -5 13 4 13 8 18 11 10 2 -7 -1 -18 -6 -23z
m1231 10 c3 -10 7 -10 20 1 10 7 17 10 17 6 0 -4 -8 -13 -17 -20 -13 -10 -19
-10 -30 1 -15 15 -17 24 -4 24 5 0 11 -6 14 -12z m6049 -6 c-17 -5 -15 -22 3
-22 8 0 15 -5 15 -11 0 -24 -35 -2 -38 24 -3 22 0 26 14 20 11 -4 13 -8 6 -11z
m-6425 -14 c-3 -8 -6 -5 -6 6 -1 11 2 17 5 13 3 -3 4 -12 1 -19z m665 -12 c3
-26 0 -33 -12 -31 -8 2 -17 4 -19 4 -3 1 0 6 7 13 7 7 12 20 12 30 0 30 8 20
12 -16z m5384 -3 c-10 -10 -19 5 -10 18 6 11 8 11 12 0 2 -7 1 -15 -2 -18z
m2078 -13 c6 0 5 -4 -3 -9 -19 -12 -5 -52 16 -44 13 5 15 1 11 -20 -3 -16 -1
-27 6 -27 6 0 4 -4 -4 -10 -17 -11 -19 -9 -25 18 -2 11 -15 42 -29 68 -32 60
-33 71 -4 44 12 -11 27 -20 32 -20z m-8144 -5 c0 -5 -5 -3 -10 5 -5 8 -10 20
-10 25 0 6 5 3 10 -5 5 -8 10 -19 10 -25z m370 15 c0 -5 -2 -10 -4 -10 -3 0
-8 5 -11 10 -3 6 -1 10 4 10 6 0 11 -4 11 -10z m-405 -10 c3 -5 1 -10 -4 -10
-6 0 -11 5 -11 10 0 6 2 10 4 10 3 0 8 -4 11 -10z m-990 -30 c3 -5 1 -10 -4
-10 -6 0 -11 5 -11 10 0 6 2 10 4 10 3 0 8 -4 11 -10z m-18 -42 c-3 -8 -6 -5
-6 6 -1 11 2 17 5 13 3 -3 4 -12 1 -19z m7100 -25 c-3 -10 -5 -4 -5 12 0 17 2
24 5 18 2 -7 2 -21 0 -30z m-5361 -49 c-2 -41 -7 -78 -10 -81 -8 -8 -8 121 0
141 11 30 14 16 10 -60z m4181 34 c-3 -8 -6 -5 -6 6 -1 11 2 17 5 13 3 -3 4
-12 1 -19z m1387 -217 c19 -64 18 -61 7 -61 -4 0 -14 20 -21 45 -7 25 -22 57
-32 71 -17 21 -19 35 -14 87 3 34 6 71 6 82 1 11 10 -23 20 -75 10 -52 25
-119 34 -149z m-4215 179 c0 -10 -3 -8 -9 5 -12 27 -12 43 0 25 5 -8 9 -22 9
-30z m5318 8 c-3 -8 -6 -5 -6 6 -1 11 2 17 5 13 3 -3 4 -12 1 -19z m842 0 c5
-15 4 -26 -3 -30 -8 -5 -8 -13 2 -28 6 -11 12 -32 11 -47 -1 -28 -1 -28 -16 6
-8 19 -12 46 -10 60 3 14 1 34 -4 43 -7 12 -6 18 1 18 6 0 14 -10 19 -22z
m-31 -13 c-3 -3 -9 2 -12 12 -6 14 -5 15 5 6 7 -7 10 -15 7 -18z m-2131 -7
c-3 -8 -6 -5 -6 6 -1 11 2 17 5 13 3 -3 4 -12 1 -19z m-7124 -9 c-8 -8 -13 -7
-18 2 -5 8 -4 10 3 5 7 -4 12 -2 12 5 0 7 3 9 7 6 4 -4 2 -12 -4 -18z m7112
-95 l-14 -69 6 65 c5 63 11 86 19 77 2 -2 -3 -35 -11 -73z m1383 38 c6 -18
-15 -14 -22 4 -4 10 -1 14 6 12 6 -2 14 -10 16 -16z m-9928 -22 c0 -11 -2 -20
-4 -20 -2 0 -6 9 -9 20 -3 11 -1 20 4 20 5 0 9 -9 9 -20z m8970 -10 c0 -14 -9
-12 -26 4 -20 21 -17 28 6 16 11 -6 20 -15 20 -20z m-8927 0 c-3 -12 -8 -19
-11 -16 -5 6 5 36 12 36 2 0 2 -9 -1 -20z m1348 -24 c-14 -36 -22 -33 -9 5 6
16 12 28 14 26 3 -2 0 -16 -5 -31z m1799 -6 c0 -13 -1 -13 -10 0 -5 8 -10 22
-10 30 0 13 1 13 10 0 5 -8 10 -22 10 -30z m-1563 8 c-3 -8 -6 -5 -6 6 -1 11
2 17 5 13 3 -3 4 -12 1 -19z m5910 0 c-3 -8 -6 -5 -6 6 -1 11 2 17 5 13 3 -3
4 -12 1 -19z m3220 -17 c-3 -15 -2 -32 2 -37 5 -5 12 -25 15 -44 l6 -35 -11
30 c-6 17 -17 44 -25 62 -16 35 -18 55 -4 33 8 -13 10 -12 10 3 0 9 3 17 6 17
4 0 4 -13 1 -29z m-792 -36 l7 -30 -16 29 c-18 31 -22 56 -7 41 5 -6 13 -23
16 -40z m-8595 -18 c0 -8 -3 -7 -9 2 -7 11 -10 9 -16 -8 -4 -13 -9 -20 -12
-18 -2 3 0 15 7 26 11 22 30 20 30 -2z m790 2 c-7 -11 -14 -18 -17 -15 -3 3 0
12 7 21 18 21 23 19 10 -6z m3727 -11 c-3 -8 -6 -5 -6 6 -1 11 2 17 5 13 3 -3
4 -12 1 -19z m3123 -8 c0 -5 -4 -10 -10 -10 -5 0 -10 5 -10 10 0 6 5 10 10 10
6 0 10 -4 10 -10z m208 -27 c-4 -22 -22 -20 -26 1 -2 10 3 16 13 16 10 0 15
-7 13 -17z m-3331 -15 c-3 -8 -6 -5 -6 6 -1 11 2 17 5 13 3 -3 4 -12 1 -19z
m4948 -15 c2 -16 6 -37 10 -48 l7 -20 -14 20 c-8 11 -15 35 -15 53 0 38 9 34
12 -5z m-8518 5 c-3 -8 -6 -5 -6 6 -1 11 2 17 5 13 3 -3 4 -12 1 -19z m6697 7
c-4 -8 -1 -15 5 -15 6 0 11 -4 11 -10 0 -5 -4 -10 -9 -10 -12 0 -23 29 -15 41
9 14 14 10 8 -6z m-8934 1 c0 -3 -4 -8 -10 -11 -5 -3 -10 -1 -10 4 0 6 5 11
10 11 6 0 10 -2 10 -4z m2290 -6 c0 -5 -4 -10 -10 -10 -5 0 -10 5 -10 10 0 6
5 10 10 10 6 0 10 -4 10 -10z m7360 0 c0 -5 -2 -10 -4 -10 -3 0 -8 5 -11 10
-3 6 -1 10 4 10 6 0 11 -4 11 -10z m279 -50 c0 -13 -1 -13 -8 0 -5 8 -12 26
-15 40 l-7 25 15 -25 c9 -14 15 -32 15 -40z m-7609 25 c-7 -8 -18 -15 -24 -15
-6 0 -2 7 8 15 25 19 32 19 16 0z m7637 -7 c-3 -8 -6 -5 -6 6 -1 11 2 17 5 13
3 -3 4 -12 1 -19z m-1217 -3 c7 -9 10 -18 7 -22 -4 -3 -10 2 -13 11 -5 14 -9
15 -15 4 -7 -10 -9 -9 -9 5 0 21 13 22 30 2z m2000 -44 c-1 -13 -30 34 -30 48
0 9 7 3 15 -13 8 -15 15 -31 15 -35z m-8510 39 c0 -5 -5 -10 -11 -10 -6 0 -8
-7 -5 -16 3 -8 2 -12 -4 -9 -12 7 -12 3 -4 -19 3 -9 11 -13 18 -9 6 4 -9 -14
-34 -40 -44 -47 -57 -57 -44 -36 3 6 1 15 -5 19 -9 5 -9 13 0 33 7 15 16 24
20 21 5 -3 6 2 3 10 -3 9 2 17 15 21 11 3 23 15 26 26 7 20 25 27 25 9z m7030
-26 c0 -2 -12 -4 -26 -4 -14 0 -23 4 -20 9 6 8 46 4 46 -5z m-6015 -4 c3 -6
-1 -7 -9 -4 -18 7 -21 14 -7 14 6 0 13 -4 16 -10z m6705 -35 c0 -5 -5 -3 -10
5 -5 8 -10 20 -10 25 0 6 5 3 10 -5 5 -8 10 -19 10 -25z m-950 21 c0 -3 -4 -8
-10 -11 -5 -3 -10 -1 -10 4 0 6 5 11 10 11 6 0 10 -2 10 -4z m730 -6 c0 -5 -2
-10 -4 -10 -3 0 -8 5 -11 10 -3 6 -1 10 4 10 6 0 11 -4 11 -10z m77 -55 c-2
-5 5 -23 17 -40 18 -27 18 -29 1 -15 -35 28 -83 85 -78 93 6 11 64 -25 60 -38z
m-8400 13 c-3 -8 -6 -5 -6 6 -1 11 2 17 5 13 3 -3 4 -12 1 -19z m-30 -10 c-3
-8 -6 -5 -6 6 -1 11 2 17 5 13 3 -3 4 -12 1 -19z m1613 12 c0 -5 -5 -10 -11
-10 -5 0 -7 5 -4 10 3 6 8 10 11 10 2 0 4 -4 4 -10z m6020 0 c0 -5 -6 -10 -12
-10 -9 0 -8 -4 2 -10 8 -5 10 -10 4 -10 -16 0 -23 10 -17 26 6 16 23 19 23 4z
m953 -10 c3 -11 1 -18 -4 -14 -5 3 -9 12 -9 20 0 20 7 17 13 -6z m-6998 -21
c11 -16 1 -19 -13 -3 -7 8 -8 14 -3 14 5 0 13 -5 16 -11z m2925 7 c0 -2 -7 -9
-15 -16 -12 -10 -15 -10 -15 4 0 9 7 16 15 16 8 0 15 -2 15 -4z m4126 -23 c-7
-7 -26 7 -26 19 0 6 6 6 15 -2 9 -7 13 -15 11 -17z m-7895 -16 c-10 -9 -11 -8
-5 6 3 10 9 15 12 12 3 -3 0 -11 -7 -18z m829 -7 c0 -5 -5 -10 -11 -10 -5 0
-7 5 -4 10 3 6 8 10 11 10 2 0 4 -4 4 -10z m6120 -18 c0 -8 -1 -13 -3 -11 -1
2 -9 12 -16 22 -12 15 -12 17 3 11 9 -3 16 -13 16 -22z m-3160 -7 c0 -8 -7
-15 -15 -15 -9 0 -12 6 -9 15 4 8 10 15 15 15 5 0 9 -7 9 -15z m4102 -67 c3
-16 2 -28 -2 -28 -4 0 -10 12 -13 28 -3 15 -9 36 -13 47 l-6 20 14 -20 c8 -11
17 -32 20 -47z m-4115 17 c-7 -14 -18 -25 -24 -25 -17 0 -16 10 4 32 23 26 33
22 20 -7z m-3950 -37 c-3 -8 -6 -5 -6 6 -1 11 2 17 5 13 3 -3 4 -12 1 -19z
m-800 -10 c-3 -8 -6 -5 -6 6 -1 11 2 17 5 13 3 -3 4 -12 1 -19z m770 0 c-3 -8
-6 -5 -6 6 -1 11 2 17 5 13 3 -3 4 -12 1 -19z m8129 13 c-4 -5 -1 -11 6 -13 7
-3 8 -9 3 -18 -7 -11 -10 -10 -15 6 -7 18 -4 34 6 34 3 0 3 -4 0 -9z m-4203
-13 c4 -10 8 -9 16 2 8 12 11 12 11 2 0 -20 -32 -70 -48 -77 -25 -9 -34 7 -13
22 16 10 19 21 15 39 -6 25 10 35 19 12z m3287 -3 c0 -8 -4 -15 -10 -15 -5 0
-7 7 -4 15 4 8 8 15 10 15 2 0 4 -7 4 -15z m1734 0 c3 -8 1 -15 -4 -15 -6 0
-10 7 -10 15 0 8 2 15 4 15 2 0 6 -7 10 -15z m-3457 -47 c-2 -13 -4 -5 -4 17
-1 22 1 32 4 23 2 -10 2 -28 0 -40z m-6269 17 c-3 -3 -9 2 -12 12 -6 14 -5 15
5 6 7 -7 10 -15 7 -18z m8900 -35 c0 -9 -3 -7 -8 5 -5 11 -8 29 -8 40 0 16 2
15 8 -5 4 -14 8 -32 8 -40z m806 0 c7 -41 -8 -21 -18 25 -5 19 -4 26 2 20 5
-5 12 -26 16 -45z m-3459 -112 c-14 -10 -14 -10 -7 67 l7 70 5 -65 c3 -37 1
-68 -5 -72z m2705 106 c0 -8 -4 -12 -10 -9 -5 3 -10 10 -10 16 0 5 5 9 10 9 6
0 10 -7 10 -16z m-7086 -38 c-3 -9 -10 -16 -15 -16 -6 0 -5 9 1 21 13 24 24
20 14 -5z m4203 -28 c-3 -8 -6 -5 -6 6 -1 11 2 17 5 13 3 -3 4 -12 1 -19z
m2863 -16 c0 -15 -2 -15 -10 -2 -13 20 -13 33 0 25 6 -3 10 -14 10 -23z m810
-2 c0 -5 -2 -10 -4 -10 -3 0 -8 5 -11 10 -3 6 -1 10 4 10 6 0 11 -4 11 -10z
m26 -25 c-9 -7 -17 -21 -17 -31 -1 -17 -2 -17 -6 -2 -5 19 30 73 36 55 2 -5
-4 -16 -13 -22z m-1001 15 c3 -5 1 -10 -4 -10 -6 0 -11 5 -11 10 0 6 2 10 4
10 3 0 8 -4 11 -10z m219 -56 c3 -8 2 -12 -4 -9 -6 3 -10 1 -10 -6 0 -7 -2
-10 -5 -7 -5 5 4 38 10 38 2 0 6 -7 9 -16z m626 1 c0 -8 -4 -15 -10 -15 -5 0
-7 7 -4 15 4 8 8 15 10 15 2 0 4 -7 4 -15z m170 -4 c0 -6 -5 -13 -10 -16 -6
-4 -8 -11 -4 -16 4 -6 12 -5 22 3 14 10 15 10 5 -2 -7 -8 -13 -23 -13 -34 0
-12 -3 -16 -9 -10 -17 17 -17 84 -1 84 6 0 10 -4 10 -9z m-9093 -93 c-3 -8 -6
-5 -6 6 -1 11 2 17 5 13 3 -3 4 -12 1 -19z m10 -40 c-3 -8 -6 -5 -6 6 -1 11 2
17 5 13 3 -3 4 -12 1 -19z m9123 -61 c0 -5 -4 -5 -10 -2 -5 3 -10 14 -10 23 0
15 2 15 10 2 5 -8 10 -19 10 -23z m39 -117 c0 -21 -25 29 -32 65 -5 26 -4 25
13 -10 11 -22 19 -47 19 -55z m-172 48 c-3 -7 -5 -2 -5 12 0 14 2 19 5 13 2
-7 2 -19 0 -25z m-3430 -40 c-3 -8 -6 -5 -6 6 -1 11 2 17 5 13 3 -3 4 -12 1
-19z m-6429 -13 c-3 -3 -9 2 -12 12 -6 14 -5 15 5 6 7 -7 10 -15 7 -18z m9009
3 c-3 -8 -6 -5 -6 6 -1 11 2 17 5 13 3 -3 4 -12 1 -19z m-8200 -50 c-3 -8 -6
-5 -6 6 -1 11 2 17 5 13 3 -3 4 -12 1 -19z m9080 -20 c-3 -8 -6 -5 -6 6 -1 11
2 17 5 13 3 -3 4 -12 1 -19z m-9110 -10 c-3 -8 -6 -5 -6 6 -1 11 2 17 5 13 3
-3 4 -12 1 -19z m8443 12 c0 -5 -2 -10 -4 -10 -3 0 -8 5 -11 10 -3 6 -1 10 4
10 6 0 11 -4 11 -10z m690 -33 c0 -13 -6 -31 -12 -40 -11 -15 -13 -13 -14 18
0 22 3 31 8 23 6 -10 8 -8 8 5 0 9 2 17 5 17 3 0 5 -10 5 -23z m160 9 c0 -3
-4 -8 -10 -11 -5 -3 -10 -1 -10 4 0 6 5 11 10 11 6 0 10 -2 10 -4z m-1330 -26
c0 -5 -2 -10 -4 -10 -3 0 -8 5 -11 10 -3 6 -1 10 4 10 6 0 11 -4 11 -10z
m-7473 -16 c-3 -3 -12 -4 -19 -1 -8 3 -5 6 6 6 11 1 17 -2 13 -5z m-1330 -36
c-3 -8 -6 -5 -6 6 -1 11 2 17 5 13 3 -3 4 -12 1 -19z m1293 -2 c0 -3 -4 -8
-10 -11 -5 -3 -10 -1 -10 4 0 6 5 11 10 11 6 0 10 -2 10 -4z m940 -16 c0 -9
-48 -1 -55 9 -2 4 9 5 26 3 16 -2 29 -8 29 -12z m5771 -5 c16 -9 35 -13 41 -9
7 4 8 3 4 -4 -4 -7 0 -12 11 -13 16 -1 16 -2 1 -6 -9 -2 -27 2 -40 9 -13 7
-39 18 -58 24 -28 9 -30 12 -12 13 13 1 36 -6 53 -14z m2003 -18 c4 -19 3 -26
-4 -22 -5 3 -10 18 -10 32 0 32 5 28 14 -10z m-7896 -8 c-29 -15 -58 -20 -58
-10 0 6 12 11 28 12 15 0 21 3 14 6 -6 2 -9 9 -6 14 3 6 12 5 21 -2 11 -10 12
-14 1 -20z m5782 -24 c-12 -15 -14 -15 -23 0 -5 9 -6 19 -3 22 3 4 6 1 6 -5 0
-7 5 -12 11 -12 6 0 8 7 4 18 -5 13 -4 14 6 5 10 -10 9 -16 -1 -28z m-7109
-36 c-5 -13 -10 -19 -10 -12 -1 15 10 45 15 40 3 -2 0 -15 -5 -28z m8586 -1
c-3 -8 -6 -5 -6 6 -1 11 2 17 5 13 3 -3 4 -12 1 -19z m664 -31 c-10 -9 -11 -8
-5 6 3 10 9 15 12 12 3 -3 0 -11 -7 -18z m-9234 -19 c-3 -8 -6 -5 -6 6 -1 11
2 17 5 13 3 -3 4 -12 1 -19z m-876 -13 c9 6 11 3 6 -9 -4 -10 -10 -28 -13 -41
-4 -17 -12 -22 -30 -20 -16 1 -24 -3 -24 -14 0 -9 -12 -22 -27 -28 -36 -17
-40 -10 -7 12 21 13 24 19 13 26 -11 7 -10 9 4 9 9 0 17 8 18 18 0 14 2 14 9
-3 7 -16 9 -17 9 -3 1 9 -3 20 -9 23 -5 3 -10 11 -10 16 0 6 5 7 10 4 6 -3 13
1 16 10 5 12 9 13 14 5 5 -7 13 -9 21 -5z m1046 -7 c-3 -8 -6 -5 -6 6 -1 11 2
17 5 13 3 -3 4 -12 1 -19z m-1287 -8 c0 -5 -4 -10 -9 -10 -6 0 -13 5 -16 10
-3 6 1 10 9 10 9 0 16 -4 16 -10z m8428 -50 c3 -12 1 -12 -6 -2 -5 7 -26 15
-48 18 -29 4 -35 3 -24 -5 9 -7 10 -11 3 -11 -15 0 -26 17 -18 29 8 14 88 -11
93 -29z m-5978 20 c0 -5 -5 -10 -11 -10 -5 0 -7 5 -4 10 3 6 8 10 11 10 2 0 4
-4 4 -10z m5737 -12 c-3 -8 -6 -5 -6 6 -1 11 2 17 5 13 3 -3 4 -12 1 -19z
m2222 -58 c1 -13 0 -13 -9 0 -5 8 -9 26 -9 40 l1 25 8 -25 c4 -14 8 -32 9 -40z
m-2029 -2 c0 -10 -4 -18 -10 -18 -5 0 -10 9 -10 20 0 11 -4 20 -10 20 -5 0
-10 5 -10 10 0 6 8 5 20 -2 11 -7 20 -21 20 -30z m-7296 -2 c-3 -15 -8 -25
-11 -23 -2 3 -1 17 3 31 3 15 8 25 11 23 2 -3 1 -17 -3 -31z m7120 -8 c5 -21
3 -26 -7 -22 -9 3 -12 14 -9 30 5 29 7 28 16 -8z m233 20 c-2 -7 2 -21 11 -30
22 -26 7 -22 -18 4 -24 26 -26 38 -4 38 9 0 14 -6 11 -12z m-6737 -14 c0 -2
-9 -4 -21 -4 -11 0 -18 4 -14 10 5 8 35 3 35 -6z m-50 -8 c0 -2 -9 -6 -20 -9
-11 -3 -18 -1 -14 4 5 9 34 13 34 5z m8060 -34 c0 -15 -2 -15 -10 -2 -13 20
-13 33 0 25 6 -3 10 -14 10 -23z m-2943 -4 c-3 -8 -6 -5 -6 6 -1 11 2 17 5 13
3 -3 4 -12 1 -19z m2738 -8 c3 -5 -1 -10 -9 -10 -9 0 -16 5 -16 10 0 6 4 10 9
10 6 0 13 -4 16 -10z m57 -25 c-3 -20 -7 -22 -22 -13 -22 14 -15 47 9 41 13
-3 17 -12 13 -28z m-8298 4 c-32 -13 -50 -9 -24 5 14 7 29 10 34 8 5 -3 1 -9
-10 -13z m1311 -19 c3 -5 1 -10 -4 -10 -6 0 -11 5 -11 10 0 6 2 10 4 10 3 0 8
-4 11 -10z m6242 4 c-3 -3 -12 -4 -19 -1 -8 3 -5 6 6 6 11 1 17 -2 13 -5z
m-355 -56 c-7 -7 -12 -8 -12 -2 0 14 12 26 19 19 2 -3 -1 -11 -7 -17z m-5892
2 c0 -5 -2 -10 -4 -10 -3 0 -8 5 -11 10 -3 6 -1 10 4 10 6 0 11 -4 11 -10z
m5925 -40 c3 -6 -1 -7 -9 -4 -18 7 -21 14 -7 14 6 0 13 -4 16 -10z m1263 -76
c-3 -14 -5 -12 -10 9 -3 19 -2 25 4 19 6 -6 8 -18 6 -28z m-1188 -15 c0 -5 4
-7 10 -4 6 3 7 -1 4 -10 -4 -9 -7 -15 -8 -13 -1 2 -8 11 -15 21 -9 11 -10 17
-2 17 6 0 11 -5 11 -11z m1204 -35 c3 -8 2 -12 -4 -9 -6 3 -10 10 -10 16 0 14
7 11 14 -7z m426 12 c0 -3 -4 -8 -10 -11 -5 -3 -10 -1 -10 4 0 6 5 11 10 11 6
0 10 -2 10 -4z m-8048 -28 c-7 -7 -12 -8 -12 -2 0 14 12 26 19 19 2 -3 -1 -11
-7 -17z m-1155 -20 c-3 -7 -5 -2 -5 12 0 14 2 19 5 13 2 -7 2 -19 0 -25z
m7658 -9 c11 -17 -1 -21 -15 -4 -8 9 -8 15 -2 15 6 0 14 -5 17 -11z m-6535 -9
c0 -5 -5 -10 -11 -10 -5 0 -7 5 -4 10 3 6 8 10 11 10 2 0 4 -4 4 -10z m-73
-73 c-6 -19 -23 -18 -23 2 0 11 5 17 14 14 7 -3 11 -10 9 -16z m-1130 -19 c-3
-7 -5 -2 -5 12 0 14 2 19 5 13 2 -7 2 -19 0 -25z m7773 22 c0 -5 -2 -10 -4
-10 -3 0 -8 5 -11 10 -3 6 -1 10 4 10 6 0 11 -4 11 -10z m-1893 -62 c-2 -13
-4 -5 -4 17 -1 22 1 32 4 23 2 -10 2 -28 0 -40z m-5840 -20 c-3 -8 -6 -5 -6 6
-1 11 2 17 5 13 3 -3 4 -12 1 -19z m170 -35 c-3 -10 -5 -4 -5 12 0 17 2 24 5
18 2 -7 2 -21 0 -30z m843 27 c0 -5 -4 -10 -10 -10 -5 0 -10 5 -10 10 0 6 5
10 10 10 6 0 10 -4 10 -10z m7870 -43 c0 -5 -4 -5 -10 -2 -5 3 -10 14 -10 23
0 15 2 15 10 2 5 -8 10 -19 10 -23z m-8921 -32 c0 -5 -4 -3 -9 5 -5 8 -9 22
-9 30 0 16 17 -16 18 -35z m8970 -37 c0 -27 -2 -29 -8 -13 -5 11 -6 26 -4 33
8 21 13 13 12 -20z m-8982 0 c-3 -8 -6 -5 -6 6 -1 11 2 17 5 13 3 -3 4 -12 1
-19z m18 -28 c-4 -23 -9 -39 -11 -37 -3 2 -2 23 2 46 4 23 9 40 11 37 3 -3 2
-23 -2 -46z m860 -10 c-3 -5 -12 -10 -18 -10 -7 0 -6 4 3 10 19 12 23 12 15 0z
m-878 -82 c-3 -7 -5 -2 -5 12 0 14 2 19 5 13 2 -7 2 -19 0 -25z m8227 1 c-2
-4 4 -12 13 -18 10 -6 12 -11 6 -11 -7 0 -27 9 -44 19 l-32 20 31 -1 c17 -1
29 -5 26 -9z m-8234 -29 c0 -5 -4 -10 -10 -10 -5 0 -10 5 -10 10 0 6 5 10 10
10 6 0 10 -4 10 -10z m565 -70 c-3 -5 -12 -10 -18 -10 -7 0 -6 4 3 10 19 12
23 12 15 0z m-585 -9 c0 -5 -7 -22 -15 -37 -15 -29 -20 -17 -9 24 6 21 24 31
24 13z m8624 -51 c7 0 21 -7 32 -15 16 -12 12 -12 -28 1 -27 9 -48 18 -48 21
0 3 7 2 16 -1 9 -3 21 -6 28 -6z m-8219 -10 c-27 -12 -43 -12 -25 0 8 5 22 9
30 9 10 0 8 -3 -5 -9z m-453 -142 c-6 -6 -7 0 -4 19 5 21 7 23 10 9 2 -10 0
-22 -6 -28z m8735 -24 c-3 -3 -12 -4 -19 -1 -8 3 -5 6 6 6 11 1 17 -2 13 -5z
m-8740 -26 c-3 -8 -6 -5 -6 6 -1 11 2 17 5 13 3 -3 4 -12 1 -19z m8974 -17
c19 -18 51 -148 40 -156 -18 -10 -294 -74 -365 -84 -99 -14 -189 -14 -181 -1
4 6 11 8 16 4 6 -3 39 0 74 7 47 9 65 17 68 31 3 10 14 18 26 18 23 0 91 66
91 87 0 7 6 13 14 13 31 0 66 85 41 102 -5 4 28 5 75 2 59 -5 90 -11 101 -23z
m-9039 -36 c3 -13 1 -22 -3 -19 -9 5 -13 44 -5 44 2 0 6 -11 8 -25z m38 8 c0
-16 2 -16 11 -3 7 11 8 6 4 -20 -3 -19 -9 -55 -13 -79 -7 -42 -32 -71 -32 -38
0 9 -9 17 -20 19 -20 3 -19 4 5 31 15 15 30 25 35 22 4 -3 4 12 -1 33 -11 48
-11 52 1 52 6 0 10 -8 10 -17z m-20 -53 c0 -5 -5 -10 -11 -10 -5 0 -7 5 -4 10
3 6 8 10 11 10 2 0 4 -4 4 -10z m-30 -16 c0 -8 -5 -12 -10 -9 -6 4 -8 11 -5
16 9 14 15 11 15 -7z m2927 -56 c-3 -7 -5 -2 -5 12 0 14 2 19 5 13 2 -7 2 -19
0 -25z m-2437 -38 c-21 -7 -18 -8 20 -10 25 -1 53 -2 63 -1 9 1 17 -2 17 -8 0
-5 15 -12 33 -14 17 -3 -6 -3 -53 -2 -92 4 -123 11 -113 28 4 6 -2 8 -15 5
-12 -4 -20 -2 -16 3 3 5 24 9 47 8 36 -1 38 -2 17 -9z m2413 -70 c-3 -12 -8
-19 -11 -16 -5 6 5 36 12 36 2 0 2 -9 -1 -20z m6344 -2 c-3 -8 -6 -5 -6 6 -1
11 2 17 5 13 3 -3 4 -12 1 -19z m-917 -9 c0 -5 -4 -9 -10 -9 -5 0 -10 7 -10
16 0 8 5 12 10 9 6 -3 10 -10 10 -16z m120 11 c-14 -4 -45 -8 -70 -8 l-45 1
40 7 c22 4 54 7 70 8 29 0 29 0 5 -8z m77 4 c-3 -3 -12 -4 -19 -1 -8 3 -5 6 6
6 11 1 17 -2 13 -5z m595 -54 c26 -116 27 -125 11 -149 -14 -22 -14 -24 1 -18
12 5 19 0 25 -16 10 -26 41 -252 41 -299 l0 -30 -72 6 c-40 3 -118 8 -173 11
-143 8 -294 43 -195 45 28 0 55 8 70 20 33 25 19 36 -29 22 -21 -7 -49 -12
-62 -12 -14 0 -34 -7 -46 -15 -19 -13 -31 -13 -105 0 -122 23 -231 61 -256 90
-23 26 -29 40 -13 31 4 -3 33 12 64 34 l56 40 3 -32 c2 -26 7 -32 23 -30 25 4
85 70 79 87 -3 7 2 19 10 28 8 8 12 17 9 21 -4 3 2 13 13 21 15 12 16 16 5 24
-7 5 -11 14 -7 20 5 7 1 9 -9 5 -9 -4 -14 -12 -12 -18 7 -17 -15 -43 -38 -48
-11 -2 -19 -10 -17 -17 1 -7 -2 -10 -8 -6 -5 3 -10 14 -10 23 0 15 -2 15 -10
2 -5 -8 -10 -11 -10 -5 0 5 -5 4 -12 -3 -7 -7 -22 -12 -35 -12 -23 0 -23 1 -7
25 9 14 20 22 25 19 5 -3 13 5 18 18 7 20 19 24 102 35 180 22 309 51 469 103
77 25 93 22 102 -20z m-8967 -9 c-3 -5 3 -12 12 -14 14 -4 13 -5 -4 -6 -14 -1
-23 5 -23 14 0 8 5 15 11 15 5 0 8 -4 4 -9z m2735 -6 c0 -8 -4 -15 -10 -15 -5
0 -7 7 -4 15 4 8 8 15 10 15 2 0 4 -7 4 -15z m3327 -7 c-3 -8 -6 -5 -6 6 -1
11 2 17 5 13 3 -3 4 -12 1 -19z m-6067 -48 c0 -5 5 -10 12 -10 6 0 37 -27 70
-60 32 -33 65 -60 73 -60 8 0 15 -5 15 -10 0 -6 38 -49 85 -96 47 -48 85 -93
85 -100 0 -8 11 -20 25 -26 14 -6 25 -15 25 -20 0 -5 5 -6 10 -3 6 3 15 3 21
-1 7 -4 -1 -12 -21 -20 -21 -9 -104 -16 -256 -20 l-224 -7 0 47 c0 39 34 266
56 369 5 25 24 39 24 17z m8110 -66 c0 -17 -26 -19 -36 -3 -7 12 15 31 28 23
4 -3 8 -12 8 -20z m-2003 -6 c-3 -8 -6 -5 -6 6 -1 11 2 17 5 13 3 -3 4 -12 1
-19z m43 1 c0 -5 -4 -9 -10 -9 -5 0 -10 7 -10 16 0 8 5 12 10 9 6 -3 10 -10
10 -16z m-3458 -11 c-7 -7 -12 -8 -12 -2 0 14 12 26 19 19 2 -3 -1 -11 -7 -17z
m-1815 -20 c2 6 8 12 12 12 10 0 7 -58 -4 -68 -4 -4 -4 4 0 17 5 16 4 21 -4
17 -6 -4 -11 -16 -11 -27 0 -10 -5 -19 -10 -19 -6 0 -8 10 -4 24 3 13 1 27 -5
31 -6 3 -8 11 -5 17 4 6 10 5 16 -3 7 -11 11 -11 15 -1z m5274 -15 c-12 -20
-14 -14 -5 12 4 9 9 14 11 11 3 -2 0 -13 -6 -23z m1969 5 c0 -13 -7 -31 -15
-41 -13 -18 -14 -18 -24 1 -14 26 -3 62 20 62 13 0 19 -7 19 -22z m104 -4 c30
-11 16 -29 -23 -29 -38 -1 -38 -1 -17 17 25 21 21 19 40 12z m-2087 -46 c-3
-8 -6 -5 -6 6 -1 11 2 17 5 13 3 -3 4 -12 1 -19z m2238 12 c-3 -5 -11 -10 -16
-10 -6 0 -7 5 -4 10 3 6 11 10 16 10 6 0 7 -4 4 -10z m-435 -33 c0 -5 -4 -5
-10 -2 -5 3 -10 14 -10 23 0 15 2 15 10 2 5 -8 10 -19 10 -23z m-7100 -28 c-7
-11 -14 -19 -16 -16 -7 7 7 37 17 37 6 0 5 -9 -1 -21z m-33 -16 c1 -22 -1 -24
-8 -10 -6 9 -7 22 -4 27 9 14 10 13 12 -17z m7168 -13 c3 -5 1 -10 -4 -10 -6
0 -11 5 -11 10 0 6 2 10 4 10 3 0 8 -4 11 -10z m-7289 -19 c-4 -5 0 -12 6 -14
8 -4 7 -6 -3 -6 -9 -1 -19 6 -23 14 -3 9 0 15 10 15 8 0 13 -4 10 -9z m81 -7
c-3 -3 -12 -4 -19 -1 -8 3 -5 6 6 6 11 1 17 -2 13 -5z m5253 -69 c1 -5 1 -17
0 -25 -3 -20 -18 38 -18 70 0 26 0 25 18 -45z m40 -91 c0 -7 3 -20 7 -30 4
-12 3 -15 -5 -10 -7 4 -12 16 -12 27 0 10 -4 19 -10 19 -5 0 -10 10 -10 23 1
21 1 22 15 3 8 -11 15 -25 15 -32z m-5454 -139 c38 -36 87 -77 109 -92 22 -15
54 -39 71 -54 56 -47 299 -203 541 -347 150 -89 182 -106 196 -104 4 1 7 -2 7
-8 0 -5 14 -17 31 -26 26 -13 33 -14 40 -2 6 9 9 7 9 -9 0 -13 4 -23 9 -23 15
0 61 -49 51 -55 -5 -3 -7 -12 -4 -19 5 -14 199 -133 334 -205 173 -94 173 -94
167 -77 -5 13 1 16 26 17 18 0 42 2 55 3 25 3 27 0 10 -18 -11 -10 -312 -238
-399 -302 -15 -10 -75 -56 -133 -102 -305 -238 -586 -383 -856 -444 -137 -30
-388 -33 -520 -5 -121 26 -204 55 -232 80 -101 94 -271 435 -329 659 -21 82
-21 85 -5 278 9 107 19 229 22 270 4 65 51 418 72 550 l7 45 230 7 c165 5 257
13 325 27 52 10 95 19 96 20 0 1 31 -28 70 -64z m7834 61 c0 -3 -4 -8 -10 -11
-5 -3 -10 -1 -10 4 0 6 5 11 10 11 6 0 10 -2 10 -4z m140 -31 c47 -7 177 -16
289 -19 113 -3 208 -9 212 -13 10 -12 51 -320 78 -603 6 -58 17 -154 26 -215
20 -147 19 -214 -5 -313 -37 -154 -168 -445 -255 -567 -84 -118 -120 -136
-350 -176 -98 -18 -144 -20 -250 -16 -267 12 -485 80 -730 228 -144 87 -409
279 -635 460 -14 11 -77 54 -140 96 -63 41 -118 80 -122 86 -9 15 0 27 20 26
14 0 13 -2 -3 -9 -49 -21 55 -14 135 10 70 20 281 60 317 60 12 0 25 5 29 11
4 8 9 8 17 0 7 -7 14 -7 24 1 10 8 18 7 31 -6 10 -9 28 -16 40 -16 29 0 33
-11 12 -38 -22 -27 -29 -27 -46 -5 -16 23 -25 13 -27 -29 -2 -30 1 -33 30 -36
21 -2 37 3 50 16 28 30 55 40 92 34 19 -2 31 -1 28 4 -3 5 20 9 51 8 34 0 57
-5 60 -12 5 -15 37 -16 63 -2 15 8 19 7 19 -5 0 -21 22 -19 48 5 41 38 29 47
-71 54 -51 4 -101 4 -110 0 -10 -3 -23 -2 -30 3 -6 6 -33 13 -58 16 -99 13
-123 41 -74 87 33 31 47 79 45 148 -4 91 -2 102 18 102 10 0 23 -5 30 -12 6
-6 45 -13 86 -15 62 -2 217 -17 251 -24 22 -4 34 2 39 19 3 10 32 44 65 77 44
45 104 87 242 167 243 141 342 228 407 355 23 46 21 53 -20 53 -15 0 -28 6
-28 13 -1 6 -7 1 -15 -13 l-14 -25 -1 29 c0 25 3 27 23 21 12 -3 60 -13 107
-20z m-2763 -671 c-3 -3 -12 -4 -19 -1 -8 3 -5 6 6 6 11 1 17 -2 13 -5z m-74
-21 c-13 -2 -33 -2 -45 0 -13 2 -3 4 22 4 25 0 35 -2 23 -4z m267 -13 c8 -5
11 -10 5 -10 -5 0 -17 5 -25 10 -8 5 -10 10 -5 10 6 0 17 -5 25 -10z m-4290
-10 c0 -5 -7 -10 -15 -10 -8 0 -15 5 -15 10 0 6 7 10 15 10 8 0 15 -4 15 -10z
m1269 6 c-2 -2 -22 -6 -44 -9 -28 -5 -34 -4 -20 3 19 8 73 14 64 6z m448 -2
c-3 -3 -12 -4 -19 -1 -8 3 -5 6 6 6 11 1 17 -2 13 -5z m100 0 c-3 -3 -12 -4
-19 -1 -8 3 -5 6 6 6 11 1 17 -2 13 -5z m2010 -10 c-3 -3 -12 -4 -19 -1 -8 3
-5 6 6 6 11 1 17 -2 13 -5z m-2010 -20 c-3 -3 -12 -4 -19 -1 -8 3 -5 6 6 6 11
1 17 -2 13 -5z m40 -10 c-3 -3 -12 -4 -19 -1 -8 3 -5 6 6 6 11 1 17 -2 13 -5z
m3748 -14 c3 -5 -3 -10 -15 -10 -12 0 -18 5 -15 10 3 6 10 10 15 10 5 0 12 -4
15 -10z m-545 -49 c0 -11 -14 -31 -31 -45 -26 -22 -39 -26 -92 -25 -34 1 -75
5 -92 9 -29 8 -29 8 -7 15 14 5 19 11 13 15 -19 11 71 68 115 72 48 4 94 -16
94 -41z m-3064 14 c25 -19 15 -19 -27 0 -25 10 -29 14 -13 15 11 0 29 -7 40
-15z m84 -42 c11 -10 5 -9 -20 3 -45 22 -52 28 -20 19 14 -4 32 -14 40 -22z
m-1180 12 c0 -2 -10 -10 -22 -16 -21 -11 -22 -11 -9 4 13 16 31 23 31 12z
m1225 -35 c3 -6 -1 -7 -9 -4 -18 7 -21 14 -7 14 6 0 13 -4 16 -10z m-1325 -10
c18 -12 2 -12 -25 0 -13 6 -15 9 -5 9 8 0 22 -4 30 -9z m2563 -16 c-21 -13
-44 -24 -50 -24 -7 0 -13 -4 -13 -9 0 -5 -8 -12 -17 -15 -15 -6 -15 -4 2 14
10 11 24 20 32 20 8 0 11 4 8 10 -4 6 1 7 11 3 13 -5 16 -2 12 8 -4 10 3 14
24 15 l29 1 -38 -23z m-2180 9 c-7 -2 -19 -2 -25 0 -7 3 -2 5 12 5 14 0 19 -2
13 -5z m-63 -18 c-14 -8 -34 -15 -45 -15 -17 0 -17 -2 -5 -10 13 -9 13 -10 0
-10 -8 0 -21 4 -29 9 -11 7 -5 11 22 16 21 4 40 11 43 16 3 5 13 9 22 9 12 -1
10 -5 -8 -15z m-341 2 c-25 -20 -79 -46 -79 -39 0 9 57 41 74 42 5 0 7 -1 5
-3z m2896 -34 c-11 -3 -24 -10 -30 -17 -15 -17 -81 -35 -96 -25 -10 6 -5 11
16 20 53 20 79 27 105 27 20 0 21 -1 5 -5z m-2985 -21 c0 -1 -10 -7 -22 -12
-13 -5 -33 -17 -45 -26 -13 -9 -23 -12 -23 -7 0 5 12 16 28 23 25 12 26 13 7
20 -15 6 -10 8 17 7 21 -1 38 -3 38 -5z m1570 -37 c5 -5 11 -28 14 -50 l7 -40
-20 45 c-11 25 -20 56 -19 70 0 20 1 21 5 5 3 -11 9 -24 13 -30z m-1283 29
c-3 -3 -12 -4 -19 -1 -8 3 -5 6 6 6 11 1 17 -2 13 -5z m2563 -33 c0 -11 -63
-42 -70 -35 -7 8 39 44 56 44 8 0 14 -4 14 -9z m-286 -55 c-3 -21 -8 -35 -11
-32 -2 2 -1 20 3 40 3 21 8 35 11 32 2 -2 1 -20 -3 -40z m306 -56 c0 -5 -4
-10 -10 -10 -5 0 -10 5 -10 10 0 6 5 10 10 10 6 0 10 -4 10 -10z m-1265 -9 c3
-5 1 -12 -5 -16 -5 -3 -10 1 -10 9 0 18 6 21 15 7z m1215 -21 c-14 -11 -29
-20 -33 -20 -5 0 -6 -10 -3 -22 3 -13 3 -17 0 -10 -3 6 -13 12 -21 12 -13 0
-13 -3 -2 -17 11 -15 10 -14 -9 1 -31 27 -28 34 21 56 56 26 80 26 47 0z
m-2850 0 c0 -5 -5 -10 -11 -10 -5 0 -7 5 -4 10 3 6 8 10 11 10 2 0 4 -4 4 -10z
m1415 -102 c-9 -24 -122 -88 -195 -111 l-55 -18 -103 33 c-112 35 -170 72
-139 90 10 5 22 6 28 2 11 -6 189 -34 234 -37 11 0 22 -4 25 -8 3 -4 23 -10
45 -13 29 -5 34 -4 20 3 -19 9 -18 10 5 12 14 1 33 2 43 1 9 -1 17 3 17 8 0 6
6 10 13 10 6 0 23 9 37 20 30 23 31 24 25 8z m-85 -28 c0 -5 -2 -10 -4 -10 -3
0 -8 5 -11 10 -3 6 -1 10 4 10 6 0 11 -4 11 -10z m-994 -65 c16 -8 22 -15 14
-15 -8 1 -24 7 -34 15 -25 19 -16 19 20 0z m731 -58 c-5 -13 -57 -30 -66 -21
-2 2 11 10 30 18 l34 15 -35 2 -35 1 30 7 c34 8 50 -1 42 -22z m-97 -37 c0 -9
-80 -33 -87 -27 -2 3 5 8 16 12 12 3 19 10 17 14 -3 4 8 8 24 8 17 0 30 -3 30
-7z m1157 -16 c-3 -3 -12 -4 -19 -1 -8 3 -5 6 6 6 11 1 17 -2 13 -5z m217 -40
c3 -8 2 -12 -4 -9 -6 3 -10 10 -10 16 0 14 7 11 14 -7z m146 -4 c0 -5 -4 -10
-9 -10 -6 0 -13 5 -16 10 -3 6 1 10 9 10 9 0 16 -4 16 -10z"/>
<path d="M10165 11840 c-3 -5 -1 -10 4 -10 6 0 11 5 11 10 0 6 -2 10 -4 10 -3
0 -8 -4 -11 -10z"/>
<path d="M3664 10525 c16 -62 25 -66 13 -5 -5 27 -13 50 -17 50 -4 0 -2 -20 4
-45z"/>
<path d="M6215 7571 c-3 -5 -1 -12 5 -16 5 -3 10 1 10 9 0 18 -6 21 -15 7z"/>
<path d="M13870 4770 c0 -5 5 -10 10 -10 6 0 10 5 10 10 0 6 -4 10 -10 10 -5
0 -10 -4 -10 -10z"/>
<path d="M13122 3202 c0 -18 -8 -46 -16 -64 -9 -17 -15 -33 -13 -34 4 -5 77
56 77 64 0 4 -11 20 -23 36 l-24 29 -1 -31z"/>
<path d="M12569 3133 c-24 -32 -46 -60 -50 -63 -4 -3 -4 -11 0 -19 10 -16 41
-2 84 37 20 19 27 35 27 64 0 21 -4 38 -10 38 -5 0 -28 -26 -51 -57z"/>
<path d="M8954 18672 c-38 -24 -74 -80 -74 -116 0 -25 2 -26 54 -26 68 0 98
11 119 43 40 61 27 104 -33 113 -24 3 -44 -1 -66 -14z"/>
<path d="M15482 16500 c-55 -25 -56 -51 -3 -85 30 -20 49 -26 82 -23 38 3 45
7 54 31 8 25 6 31 -15 47 -63 48 -72 50 -118 30z"/>
<path d="M15647 16238 c-18 -14 -18 -16 8 -46 50 -60 125 -81 158 -44 20 22
22 65 5 80 -23 18 -150 26 -171 10z"/>
<path d="M9240 16140 l-35 -7 30 -3 30 -2 -30 -7 c-16 -4 -32 -3 -33 1 -7 16
-21 -3 -16 -20 5 -14 4 -15 -5 -2 -20 29 -23 -1 -6 -70 9 -38 20 -72 24 -75 4
-2 25 2 46 9 30 11 35 15 19 19 -10 2 4 6 31 7 28 1 66 7 85 14 l35 13 -28 7
c-25 6 -28 10 -25 47 1 26 -3 44 -13 50 -12 7 -12 9 1 10 25 1 -22 18 -50 17
-14 0 -41 -4 -60 -8z m50 -65 c7 -8 19 -15 26 -15 8 0 14 -7 14 -16 0 -11 -6
-14 -20 -9 -16 5 -20 2 -20 -14 0 -12 -4 -21 -10 -21 -5 0 -10 4 -10 9 0 5 -9
11 -21 14 -16 4 -19 11 -14 26 4 14 2 21 -7 21 -10 0 -9 3 2 10 22 14 46 12
60 -5z"/>
<path d="M10695 16060 c-4 -6 16 -10 52 -9 44 1 52 3 33 9 -36 12 -78 12 -85
0z"/>
<path d="M11280 15949 c0 -5 4 -9 9 -9 5 0 17 -3 27 -7 11 -4 15 -3 11 4 -9
14 -47 24 -47 12z"/>
<path d="M10093 15943 c9 -2 23 -2 30 0 6 3 -1 5 -18 5 -16 0 -22 -2 -12 -5z"/>
<path d="M10161 15946 c11 -9 69 -14 69 -6 0 6 -16 10 -37 10 -20 0 -34 -2
-32 -4z"/>
<path d="M9798 15933 c-10 -2 -18 -6 -18 -7 0 -12 23 -66 28 -66 20 1 34 20
29 39 -3 14 0 21 9 21 22 0 74 -42 67 -53 -3 -6 -1 -7 5 -3 18 11 15 24 -13
51 -23 24 -61 30 -107 18z"/>
<path d="M9855 15880 c-3 -5 1 -10 10 -10 9 0 13 5 10 10 -3 6 -8 10 -10 10
-2 0 -7 -4 -10 -10z"/>
<path d="M7930 15410 c0 -5 5 -10 10 -10 6 0 10 5 10 10 0 6 -4 10 -10 10 -5
0 -10 -4 -10 -10z"/>
<path d="M12960 15246 c0 -4 13 -24 30 -44 30 -38 60 -109 60 -143 0 -11 5
-19 11 -19 13 0 6 64 -12 115 -10 27 -89 108 -89 91z"/>
<path d="M7148 14983 c-16 -2 -28 -10 -28 -18 0 -7 -6 -15 -12 -18 -7 -2 8 -8
33 -12 33 -5 55 -3 75 8 l28 15 -32 16 c-17 9 -32 15 -34 15 -2 -1 -15 -4 -30
-6z"/>
<path d="M5918 14708 c9 -9 15 -9 24 0 9 9 7 12 -12 12 -19 0 -21 -3 -12 -12z"/>
<path d="M5875 14700 c3 -5 10 -10 16 -10 5 0 9 5 9 10 0 6 -7 10 -16 10 -8 0
-12 -4 -9 -10z"/>
<path d="M6071 14424 c0 -11 3 -14 6 -6 3 7 2 16 -1 19 -3 4 -6 -2 -5 -13z"/>
<path d="M4115 12573 c-34 -46 -65 -104 -65 -122 0 -10 9 -26 20 -36 11 -10
26 -38 32 -62 11 -46 18 -52 38 -28 10 12 7 20 -13 45 -14 16 -29 39 -32 50
-7 23 9 80 36 125 33 54 20 76 -16 28z"/>
<path d="M3686 12258 c-4 -23 -15 -61 -26 -85 -10 -23 -20 -68 -21 -99 -2 -46
1 -59 18 -73 11 -9 23 -24 26 -33 4 -10 11 -18 17 -18 14 0 13 27 -2 33 -8 4
-7 6 4 6 14 1 15 6 7 33 -5 18 -6 55 -4 82 13 124 12 196 0 196 -7 0 -15 -19
-19 -42z"/>
<path d="M3605 11830 c-3 -11 -3 -25 0 -31 5 -7 -1 -9 -15 -7 -13 2 -25 -3
-27 -10 -3 -7 1 -10 11 -6 10 4 16 1 16 -7 0 -11 3 -11 10 1 8 13 10 12 10 -3
0 -14 -5 -17 -20 -12 -12 4 -20 2 -20 -5 0 -6 -5 -8 -10 -5 -12 7 -40 -18 -40
-36 0 -6 -14 -34 -30 -61 -24 -39 -28 -53 -19 -64 6 -8 16 -14 21 -14 13 0 38
26 38 39 0 6 9 11 20 11 22 0 27 16 8 23 -7 2 0 4 15 4 16 0 36 8 45 17 16 16
15 17 -10 12 -26 -4 -26 -3 -15 22 9 18 13 21 15 10 4 -22 29 -30 52 -16 19
12 23 44 7 65 -5 7 -6 17 -2 22 8 15 -23 71 -40 71 -7 0 -16 -9 -20 -20z m-15
-110 c0 -5 -2 -10 -4 -10 -3 0 -8 5 -11 10 -3 6 -1 10 4 10 6 0 11 -4 11 -10z
m-20 -34 c0 -2 -7 -7 -16 -10 -8 -3 -12 -2 -9 4 6 10 25 14 25 6z"/>
<path d="M3288 11720 c-4 -41 13 -111 37 -158 13 -26 16 -46 10 -88 -5 -46 -4
-53 9 -48 8 3 18 14 21 24 3 10 17 25 30 34 15 10 22 22 19 31 -4 8 -1 15 5
15 6 0 11 -5 11 -11 0 -5 5 -7 11 -3 7 4 7 10 1 16 -12 12 -4 40 9 32 5 -3 9
2 9 10 0 19 -9 20 -32 2 -10 -7 -14 -17 -10 -21 4 -5 2 -5 -5 -1 -7 4 -9 14
-6 23 5 12 2 15 -10 10 -25 -9 -62 37 -85 105 -20 61 -20 62 -24 28z m112
-181 c0 -6 -4 -8 -9 -5 -5 3 -11 -1 -15 -9 -3 -8 -10 -15 -16 -15 -17 0 -11
28 7 39 19 10 33 6 33 -10z m0 -33 c0 -3 -4 -8 -10 -11 -5 -3 -10 -1 -10 4 0
6 5 11 10 11 6 0 10 -2 10 -4z"/>
<path d="M3356 11265 c4 -8 11 -15 16 -15 6 0 5 6 -2 15 -7 8 -14 15 -16 15
-2 0 -1 -7 2 -15z"/>
<path d="M16199 7693 c-12 -29 -26 -372 -15 -362 3 3 12 82 21 176 8 94 17
178 21 186 3 8 1 18 -5 22 -6 3 -16 -6 -22 -22z"/>
<path d="M15656 6781 c-18 -65 -20 -101 -7 -101 16 0 22 18 23 60 0 22 5 37
10 34 5 -3 8 -20 6 -36 -4 -42 18 -47 27 -6 5 21 4 33 -4 36 -6 2 -16 13 -22
24 -8 15 -8 19 0 14 16 -10 14 3 -3 19 -12 12 -16 5 -30 -44z"/>
<path d="M15753 6763 c-8 -3 -10 -21 -6 -58 3 -31 1 -60 -4 -67 -6 -7 -13 -30
-17 -50 -4 -21 -12 -38 -18 -38 -6 0 -8 -3 -5 -6 19 -20 87 96 86 146 0 35
-22 78 -36 73z"/>
<path d="M15620 6640 c0 -14 -6 -34 -13 -45 -8 -11 -19 -35 -25 -52 -9 -27 -8
-33 3 -33 8 0 17 5 21 11 3 6 15 8 26 6 14 -4 18 -2 14 9 -3 8 -9 21 -13 30
-5 13 -2 15 15 9 13 -4 22 -2 22 4 0 6 -9 11 -21 11 -17 0 -20 4 -16 23 4 12
2 29 -3 37 -8 12 -10 9 -10 -10z"/>
<path d="M15655 6650 c-3 -5 -1 -10 4 -10 6 0 11 5 11 10 0 6 -2 10 -4 10 -3
0 -8 -4 -11 -10z"/>
<path d="M15670 6555 c-8 -9 -8 -15 -2 -15 12 0 26 19 19 26 -2 2 -10 -2 -17
-11z"/>
<path d="M4636 6314 c-5 -14 -4 -15 9 -4 17 14 19 20 6 20 -5 0 -12 -7 -15
-16z"/>
<path d="M4613 6280 c-13 -5 -23 -11 -23 -13 0 -8 50 5 56 14 6 11 -4 11 -33
-1z"/>
<path d="M15450 6264 c0 -8 8 -23 17 -32 16 -16 16 -16 10 1 -4 11 -2 17 8 17
17 0 39 -21 61 -60 22 -35 62 -57 70 -36 8 22 0 69 -12 73 -7 2 -19 -3 -27
-12 -19 -19 -34 -20 -18 -1 9 10 7 18 -6 34 -22 25 -69 37 -76 19 -4 -9 -6 -9
-6 1 -1 18 -21 15 -21 -4z"/>
<path d="M15505 6011 c3 -5 0 -15 -7 -23 -18 -18 -58 -97 -58 -113 0 -7 6 -15
13 -18 9 -3 9 -9 -2 -29 -15 -30 -7 -68 16 -68 24 0 93 42 93 57 0 7 12 16 27
19 15 4 36 15 46 25 19 17 19 18 -2 47 -11 16 -30 32 -41 35 -16 4 -21 -1 -26
-30 -7 -35 -51 -113 -65 -113 -17 0 -15 50 3 70 10 11 18 26 16 34 -2 8 9 25
23 38 25 23 26 26 10 45 -16 20 -57 41 -46 24z"/>
<path d="M14845 5413 c-4 -29 -12 -43 -26 -46 -10 -3 -27 -19 -36 -36 -10 -17
-24 -29 -30 -26 -8 2 -13 -4 -13 -15 0 -17 3 -18 25 -8 14 6 25 18 26 27 1 9
5 5 9 -9 7 -21 8 -19 9 18 1 29 5 42 15 42 18 0 26 -22 19 -49 -3 -12 -1 -21
4 -21 13 0 25 128 14 148 -6 11 -10 5 -16 -25z"/>
<path d="M15110 5335 c0 -3 15 -14 33 -25 17 -11 28 -20 24 -20 -4 0 -3 -8 2
-19 20 -37 68 -30 84 11 7 21 -6 30 -47 34 -17 1 -32 7 -34 13 -4 11 -62 16
-62 6z m90 -45 c0 -5 -2 -10 -4 -10 -3 0 -8 5 -11 10 -3 6 -1 10 4 10 6 0 11
-4 11 -10z"/>
<path d="M15104 5299 c-9 -15 -2 -18 20 -9 17 6 18 7 3 13 -9 3 -19 2 -23 -4z"/>
<path d="M15060 5269 c0 -5 5 -7 10 -4 6 3 10 8 10 11 0 2 -4 4 -10 4 -5 0
-10 -5 -10 -11z"/>
<path d="M14657 5227 c-55 -49 -60 -72 -16 -81 46 -9 104 41 84 74 -9 15 -25
12 -25 -5 0 -8 -4 -15 -10 -15 -14 0 -12 11 6 31 35 38 6 35 -39 -4z"/>
<path d="M15090 5250 c0 -5 5 -10 11 -10 5 0 7 5 4 10 -3 6 -8 10 -11 10 -2 0
-4 -4 -4 -10z"/>
<path d="M14800 5240 c0 -5 5 -10 10 -10 6 0 10 5 10 10 0 6 -4 10 -10 10 -5
0 -10 -4 -10 -10z"/>
<path d="M15055 5231 c-6 -11 9 -23 19 -14 9 9 7 23 -3 23 -6 0 -12 -4 -16 -9z"/>
<path d="M15065 5192 c-35 -7 -35 -17 1 -19 19 -1 34 2 34 7 0 13 -12 17 -35
12z"/>
<path d="M15115 5160 c-3 -5 -18 -10 -33 -11 -26 -1 -26 -1 5 -10 27 -8 36 -6
53 11 20 20 20 20 1 20 -11 0 -23 -4 -26 -10z"/>
<path d="M15008 5143 c6 -2 18 -2 25 0 6 3 1 5 -13 5 -14 0 -19 -2 -12 -5z"/>
<path d="M11780 3240 c0 -15 9 -22 30 -27 17 -3 33 -10 36 -14 8 -14 46 -11
41 4 -2 6 -11 11 -19 9 -8 -1 -27 9 -42 23 -33 30 -46 32 -46 5z"/>
<path d="M11970 3109 c-30 -11 -67 -25 -82 -31 -16 -5 -28 -14 -28 -20 0 -6 8
-7 17 -4 9 4 38 10 63 13 36 5 116 39 139 59 14 12 -63 0 -109 -17z"/>
<path d="M9090 2769 c-19 -5 -52 -11 -74 -14 -21 -4 -36 -8 -35 -9 2 -2 47 -7
99 -10 106 -7 141 2 106 29 -21 16 -42 17 -96 4z"/>
</g>
</svg>
