<svg width="57" height="15" viewBox="0 0 57 15" fill="none" xmlns="http://www.w3.org/2000/svg">
<path d="M3.90307 10.9317L6.93873 8.93638L9.77447 11.2069L8.81488 7.7032L11.8505 5.70787L8.22181 5.53781L7.26221 2.03413L5.97913 5.4327L2.3504 5.26264L5.18614 7.53314L3.90307 10.9317Z" fill="#453445" fill-opacity="0.4"/>
<path d="M14.9304 10.9649L17.9661 8.96959L20.8018 11.2401L19.8422 7.73641L22.8779 5.74108L19.2492 5.57101L18.2896 2.06733L17.0065 5.46591L13.3777 5.29584L16.2135 7.56634L14.9304 10.9649Z" fill="#453445" fill-opacity="0.4"/>
<path d="M25.9304 10.961L28.9661 8.96568L31.8018 11.2362L30.8422 7.7325L33.8779 5.73717L30.2492 5.56711L29.2896 2.06343L28.0065 5.462L24.3777 5.29194L27.2135 7.56244L25.9304 10.961Z" fill="#453445" fill-opacity="0.4"/>
<path d="M35.9304 10.961L38.9661 8.96568L41.8018 11.2362L40.8422 7.7325L43.8779 5.73717L40.2492 5.56711L39.2896 2.06343L38.0065 5.462L34.3777 5.29194L37.2135 7.56244L35.9304 10.961Z" fill="#453445" fill-opacity="0.4"/>
<path d="M45.9304 10.961L48.9661 8.96568L51.8018 11.2362L50.8422 7.7325L53.8779 5.73717L50.2492 5.56711L49.2896 2.06343L48.0065 5.462L44.3777 5.29194L47.2135 7.56244L45.9304 10.961Z" fill="#453445" fill-opacity="0.4"/>
</svg>
